<?xml version="1.0" standalone="no"?>
<!DOCTYPE svg PUBLIC "-//W3C//DTD SVG 20010904//EN"
 "http://www.w3.org/TR/2001/REC-SVG-20010904/DTD/svg10.dtd">
<svg version="1.0" xmlns="http://www.w3.org/2000/svg"
 width="141.000000pt" height="141.000000pt" viewBox="0 0 141.000000 141.000000"
 preserveAspectRatio="xMidYMid meet">
<metadata>
Created by potrace 1.11, written by Peter Selinger 2001-2013
</metadata>
<g transform="translate(0.000000,141.000000) scale(0.100000,-0.100000)"
fill="#000000" stroke="none">
<path d="M735 1389 c-16 -5 -61 -8 -100 -8 -77 2 -110 -8 -148 -43 -13 -13
-39 -36 -57 -51 -55 -49 -73 -106 -67 -206 5 -66 2 -91 -9 -105 -32 -44 -3
-126 55 -155 20 -9 43 -17 51 -16 8 0 23 -7 33 -16 10 -9 39 -23 64 -30 70
-19 29 -27 -111 -22 -107 4 -121 7 -137 26 -18 21 -19 65 -3 119 4 12 -2 19
-20 24 -45 11 -56 0 -56 -60 0 -32 -5 -56 -12 -58 -13 -5 -20 -31 -18 -70 1
-16 2 -43 3 -60 0 -18 -1 -46 -3 -62 -4 -25 -1 -31 21 -37 38 -10 48 0 50 54
3 43 4 45 19 32 26 -23 34 -18 16 10 -18 28 -7 32 27 11 22 -13 163 -44 225
-48 l34 -2 -6 -46 c-9 -72 -40 -144 -78 -187 -15 -16 -18 -29 -13 -50 11 -45
60 -138 73 -136 16 4 8 -25 -22 -81 -29 -54 -28 -61 4 -51 24 8 140 102 140
113 0 5 -8 17 -18 28 -22 24 -25 57 -5 49 8 -3 36 -5 63 -5 48 0 48 0 37 -25
-7 -14 -17 -25 -23 -25 -6 0 -19 -9 -29 -20 -18 -20 -17 -22 31 -93 50 -73 88
-100 78 -55 -2 13 -7 44 -11 71 -5 39 -3 46 9 42 9 -4 31 13 60 45 52 58 64
103 43 158 -25 65 -85 273 -81 281 2 3 52 40 110 81 65 47 106 82 108 95 3 21
13 23 81 13 41 -6 46 -2 20 18 -12 9 -14 14 -5 15 6 1 17 3 22 4 6 1 16 3 23
5 6 1 -1 7 -17 15 -28 12 -29 13 -8 19 36 12 28 36 -10 30 -31 -5 -32 -4 -14
10 29 24 9 40 -23 17 -35 -25 -55 -30 -57 -13 -1 6 -2 17 -3 22 0 6 -5 10 -11
10 -8 0 -26 -66 -22 -82 4 -14 -176 -114 -223 -124 -5 -1 -19 -5 -30 -9 -11
-3 3 6 30 21 28 14 57 32 65 39 8 8 27 16 41 20 38 10 79 56 86 98 6 37 -12
97 -28 97 -5 0 -9 34 -9 75 0 46 -6 90 -15 113 -9 20 -13 47 -10 60 5 19 2 23
-13 20 -10 -1 -30 5 -44 14 -15 10 -54 25 -87 34 -58 17 -60 18 -45 36 10 10
15 18 13 17 -2 0 -17 -5 -34 -10z"/>
</g>
</svg>
