<?xml version="1.0" encoding="utf-8"?>
<!-- Generator: Adobe Illustrator 21.0.2, SVG Export Plug-In . SVG Version: 6.00 Build 0)  -->
<svg version="1.1" id="Layer_1" xmlns="http://www.w3.org/2000/svg" xmlns:xlink="http://www.w3.org/1999/xlink" x="0px" y="0px"
	 viewBox="0 0 200 200" style="enable-background:new 0 0 200 200;" xml:space="preserve">
<style type="text/css">
	.st0{fill:#FFFFFF;}
	.st1{fill:#FFD5C7;}
	.st2{fill:#F9F9F9;}
	.st3{fill:#7AA1C1;}
	.st4{fill:#5C8CAD;}
	.st5{fill:#E4E9F2;}
	.st6{fill:#895C5C;}
	.st7{fill:#5B87A5;}
	.st8{opacity:0.26;}
	.st9{fill:#DD4A4A;}
	.st10{fill:#6996B5;}
	.st11{fill:#E4A78E;}
	.st12{fill:#775640;}
	.st13{fill:#FCC8B4;}
	.st14{fill:#C68C75;}
	.st15{fill:#F9BCB7;}
	.st16{fill:#701608;}
	.st17{fill:#DD7868;}
	.st18{fill:#604130;}
	.st19{fill:#461D14;}
	.st20{fill:#FEFFFE;}
	.st21{fill:#932014;}
	.st22{fill:#DD4343;}
	.st23{fill:#721212;}
	.st24{fill:#6684A3;}
	.st25{fill:#456C89;}
	.st26{opacity:0.14;}
	.st27{fill:#507393;}
	.st28{fill:#4BC4B8;}
	.st29{fill:#FAC7B3;}
	.st30{fill:#E4A68D;}
	.st31{fill:#8F6455;}
	.st32{fill:#FBD3C7;}
	.st33{fill:#FFC0C0;}
	.st34{fill:#F9FEFF;}
	.st35{fill:#602220;}
	.st36{fill:#5B0000;}
	.st37{fill:#F9D564;}
	.st38{fill:#E84669;}
	.st39{fill:#AF5315;}
	.st40{fill:#CC6A1F;}
	.st41{fill:#994710;}
	.st42{fill:#CC5121;}
	.st43{fill:#662F0A;}
	.st44{fill:#EF8F6F;}
	.st45{fill:#E05858;}
	.st46{opacity:0.25;}
	.st47{opacity:0.2;}
	.st48{fill:#81ACC9;}
	.st49{fill:#F47586;}
	.st50{fill:#6691AD;}
	.st51{fill:#F0F6FF;}
	.st52{fill:#BF4559;}
	.st53{fill:#6B697F;}
	.st54{fill:#FFF3FA;}
	.st55{fill:#7C7ACC;}
	.st56{fill:#4A4A99;}
	.st57{fill:#E2E6ED;}
	.st58{fill:#D89882;}
	.st59{fill:#906454;}
	.st60{fill:#FFC6C5;}
	.st61{fill:#3B2C6D;}
	.st62{fill:#CC3B23;}
	.st63{fill:#A3442E;}
	.st64{fill:#F9BB3D;}
	.st65{fill:#872C1A;}
	.st66{fill:#C14B21;}
	.st67{fill:#466E7C;}
	.st68{fill:#E2511E;}
	.st69{fill:#892910;}
	.st70{fill:#44C1A3;}
	.st71{fill:#7A7A7A;}
	.st72{fill:#E25A24;}
	.st73{fill:#1F7EB2;}
	.st74{fill:#7F5447;}
	.st75{fill:#D36553;}
	.st76{fill:#AD3E17;}
	.st77{fill:none;}
	.st78{fill:#F99048;}
</style>
<g>
	<rect x="0" y="0.5" class="st0" width="200" height="79"/>
	<g>
		<path class="st1" d="M100.1,51.4c-0.2,0.2-1.6-1.4-1.4-1.6c1.5-1.5,3.2-3,3.4-3.5c0.1-0.4-1.1-2.6-2.4-4.3l3.5-2.2
			c1,2,2.6,5.9,2.5,6.6C105.5,47.5,100.4,51.3,100.1,51.4z"/>
		<path class="st2" d="M98.7,49.4c0.2-0.2,1.4-1.1,1.5-1.2l1.9,2.4c0,0-1.6,0.8-1.7,0.9C99.8,51.6,98.6,49.9,98.7,49.4z"/>
		<g>
			<path class="st3" d="M101.3,51.6c0.1-0.1,0.2-0.3,0.3-0.4c0.1-0.1-0.6-1.2-0.8-1c-0.1,0-0.1,0.1-0.2,0.1
				c-0.1-0.2-0.2-0.4-0.3-0.6c-0.3-0.5-0.5-0.9-0.6-1.2c-0.4,0.2-1.1,0.7-1.5,0.9c0,0,2,5.4,3.1,5.8
				C101.6,55.2,101.7,53.5,101.3,51.6z"/>
			<path class="st4" d="M98.4,49.2c-0.1,0.1-0.2,0.1-0.3,0.2c0,0,2,5.4,3.1,5.8c0,0,0.1,0,0.1-0.1C100.3,53.8,98.9,50.5,98.4,49.2z"
				/>
			<path class="st4" d="M101.5,53.4C101.5,53.4,101.5,53.4,101.5,53.4c-0.5-0.6-1.2-0.6-1.6-0.2c0,0,0,0,0,0c0.5,0.9,1,1.7,1.4,1.9
				C101.5,55.2,101.6,54.5,101.5,53.4z"/>
			<path class="st5" d="M100.7,51.9C100.7,51.9,100.7,51.9,100.7,51.9c0-0.1,0-0.1,0.1-0.1c0.3,0.1,0.6,0.3,0.8,0.6c0,0,0,0.1,0,0.1
				c0,0-0.1,0-0.1,0C101.3,52.3,101.2,52.1,100.7,51.9C100.7,51.9,100.7,51.9,100.7,51.9z"/>
			<path class="st5" d="M100.8,52.4C100.7,52.4,100.7,52.3,100.8,52.4c0-0.1,0-0.1,0.1-0.1c0.3,0.1,0.7,0.4,0.8,0.7c0,0,0,0.1,0,0.1
				c0,0-0.1,0-0.1,0C101.4,52.7,101.1,52.5,100.8,52.4C100.8,52.4,100.8,52.4,100.8,52.4z"/>
		</g>
		<path class="st1" d="M87.7,42.6c-0.2-0.2,1.2-1.7,1.4-1.5c1.7,1.3,3.4,2.8,3.9,2.9c0.4,0.1,1.2-2.7,2.2-4.4l2.8,2.6
			c-1.2,2-3.5,5.5-4.3,5.5C92.7,47.6,88,42.8,87.7,42.6z"/>
		<path class="st2" d="M89.8,41.2c0.2,0.2,1.3,1.2,1.4,1.3L89,44.7c0,0-1-1.5-1.2-1.6C87.7,42.6,89.3,41.1,89.8,41.2z"/>
		<path class="st1" d="M85.3,29.2c-0.2-0.2,0-1.5,0.2-1.4c3.3,1.2,9.3,2.5,11.1,2.4l-0.9,3.2C94.3,33.3,87.4,31.1,85.3,29.2z"/>
		<path class="st1" d="M83.5,28.7c-0.1,0.1-0.3,0.1-0.6,0.2c-0.3,0.1-0.7,0.1-0.9,0.3c-0.2,0.2,0,0.3,0.4,0.3
			c0.6,0.1,1.9,0.2,2.6,0.2c1.1,0.1,2.2-0.6,2.2-1.6c0.1-1.4,0-1.9,0-2.8c0-0.2-0.5,0-0.6,0.2c-0.3,0.6-0.2,0.8-0.3,1.1
			c-0.2,0.3-0.4,0.2-0.7,0c-1-1.2-1.5-2-2-1.9c-0.4,0.1,0.2,1,0.9,2c-1.2-0.8-2.2-1.3-2.4-1c-0.2,0.4,0.6,1.1,1.6,1.7
			c-1.1,0-2.2-0.3-2.3,0.1C81.3,28.1,83.7,28.4,83.5,28.7z"/>
		<path class="st6" d="M92.5,29.5c-0.3,1.4,0.9,4.4,1.2,4.5c0,0,1.1-0.1,1.7-0.7c1-1.2,0.9-3.1,0.9-3.3
			C94.9,29.8,92.5,29.5,92.5,29.5z"/>
		<path class="st1" d="M112.8,29.2c0.2-0.2,0-1.5-0.2-1.4c-3.3,1.2-9.3,2.5-11.1,2.4l0.9,3.2C103.8,33.2,110.7,31.1,112.8,29.2z"/>
		<path class="st1" d="M114.6,28.7c0.1,0.1,0.3,0.1,0.6,0.2c0.3,0.1,0.7,0.1,0.9,0.3c0.2,0.2,0,0.3-0.4,0.3
			c-0.6,0.1-1.9,0.2-2.6,0.2c-1.1,0.1-2.2-0.6-2.2-1.6c-0.1-1.4,0-1.9,0-2.8c0-0.2,0.5,0,0.6,0.2c0.3,0.6,0.2,0.8,0.3,1.1
			c0.2,0.3,0.4,0.2,0.7,0c1-1.2,1.5-2,2-1.9c0.4,0.1-0.2,1-0.9,2c1.2-0.8,2.2-1.3,2.4-1c0.2,0.4-0.6,1.1-1.6,1.7
			c1.1,0,2.2-0.3,2.3,0.1C116.8,28,114.4,28.4,114.6,28.7z"/>
		<path class="st6" d="M105.6,29.5c0.3,1.4-0.9,4.4-1.2,4.5c0,0-1.1-0.1-1.7-0.7c-1-1.2-0.9-3.1-0.9-3.3
			C103.2,29.8,105.6,29.5,105.6,29.5z"/>
		<path class="st3" d="M94.5,37.5c0,0-1.7,3.6-2.5,5.3c1.1,0.7,4.3,2.1,5.7,2.5c0.8-2.6,1.1-2.9,1.5-2.8c0.4,0.1,0.5,0.3,0.6,3.1
			c1.4,0.1,4.9-0.2,6.1-0.5c-0.2-1.7-1.1-5.7-1.3-6.7c0,0-1.4,0.6-5.4,0C96.9,38.1,94.5,37.5,94.5,37.5z"/>
		<path class="st7" d="M105.4,41.8c-0.7,0.1-1.5-0.5-1.8-1.5c-0.2-0.7-0.1-1.4,0.1-1.9c0.6,0.1,1,0.1,1,0.1S105,40.1,105.4,41.8z"/>
		<path class="st7" d="M93.1,40.5c0.7,0.4,1.6,0,2.1-0.9c0.4-0.6,0.5-1.3,0.3-1.9c-0.6-0.1-1-0.2-1-0.2S93.8,38.9,93.1,40.5z"/>
		<path class="st8" d="M104.9,39.3c-1,0.6-2.1,1.6-5.6,1.6c-3.5,0-5.2-0.9-5.9-1.3c0,0,1.7-7.3,2.2-9.1c1.6,0.1,5.1,0.1,6.6,0
			C103,32,104.8,39.3,104.9,39.3z"/>
		<path class="st9" d="M104.9,38.6c-1,0.6-2.1,1.6-5.6,1.6c-3.5,0-5.2-0.9-5.9-1.3c0,0,1.7-7.3,2.2-9.1c1.6,0.1,5.1,0.1,6.6,0
			C103,31.3,104.8,38.6,104.9,38.6z"/>
		<path class="st10" d="M97.8,45.4c0.1-0.2,0.4-1.1,0.5-1.3l-6.1-2.5c0,0-0.5,1.1-0.5,1.3C92.4,43.6,96.9,45.5,97.8,45.4z"/>
		<path class="st10" d="M106,45.3c0-0.2,0-1.2,0-1.4l-6.4,0.4c0,0-0.1,1.2,0,1.4C100.4,46.1,105.3,45.7,106,45.3z"/>
		<path class="st6" d="M101.1,30.3c0-0.1,0-0.3-0.1-0.4c-1.3,0-2.9,0.1-4.2,0c0,0.1-0.1,0.3-0.1,0.4c0,0.9,1,1.6,2.2,1.6
			C100.1,31.9,101.1,31.2,101.1,30.3z"/>
		<path class="st11" d="M97.2,27.9v2.5c0,0.5,0.7,1,1.7,1c0.9,0,1.7-0.4,1.7-1v-2.5H97.2z"/>
		<g>
			<path class="st12" d="M109,17.1c0,6-4.4,8.8-10.5,8.8c-6.1,0-10.6-2.7-10.6-8.8c0-6,4.5-7.4,10.6-7.4
				C104.7,9.7,109,11.1,109,17.1z"/>
			<path class="st13" d="M87,22.6c0.6,2.1,2.7,3.5,4.2,3.3c1.6-0.2,1.9-2,1.6-4c-0.3-2.1-1.8-3.6-3.4-3.3
				C87.3,18.7,86.5,20.6,87,22.6z"/>
			
				<ellipse transform="matrix(0.9904 -0.1382 0.1382 0.9904 -2.2852 12.7029)" class="st14" cx="90.4" cy="22.8" rx="1.5" ry="1.7"/>
			<path class="st13" d="M110.7,22.6c-0.6,2.1-2.7,3.5-4.2,3.3c-1.6-0.2-1.9-2-1.6-4c0.3-2.1,1.8-3.6,3.4-3.3
				C110.4,18.7,111.2,20.6,110.7,22.6z"/>
			
				<ellipse transform="matrix(0.1382 -0.9904 0.9904 0.1382 69.8431 125.888)" class="st14" cx="107.3" cy="22.8" rx="1.7" ry="1.5"/>
			<path class="st1" d="M107.1,12.9c0.5,1.2,0.2,12-1,13.5c-1.3,1.6-4.8,3.1-7.2,3.1c-3.2,0-6.6-1.4-7.6-3.1
				c-1.2-2.1-1.7-11.6-1.3-12.8c1.3-3.8,4.5-4,8.7-4C102.7,9.7,105.7,9.8,107.1,12.9z"/>
			<ellipse class="st15" cx="93.1" cy="24.7" rx="1.8" ry="1.9"/>
			<path class="st12" d="M103.4,7.4C98.7,6.1,97.1,5.7,92,9.5c-0.3,0.2,0.5,1.7-0.8,1.4c-0.9-0.1-2.6,1.1-3.1,2.9
				c-0.5,1.8-0.4,4.3,0.4,4.7c0.8,0.4,2.3-0.7,3.2-2.5c0.5-0.9,0.7-1.9,0.7-2.6c0.6,0.8,1.6,1.7,2.7,2.4c2.6,1.7,5.2,2.2,5.8,1.2
				c0.2-0.2,0.2-0.6,0.1-0.9c0.1,0,0.3,0.1,0.4,0.1c4.8,1.1,9.2,0,9.7-2.4C111.8,11.3,107.2,8.4,103.4,7.4z"/>
			<g>
				<path class="st16" d="M101.8,24.7c0,1.3-1.5,2.4-3.2,2.4s-3.2-1.1-3.2-2.4c0-1.3,1.5-1.1,3.3-1.2
					C100.5,23.4,101.8,23.4,101.8,24.7z"/>
				<path class="st17" d="M98.8,25.8c-1,0-1.8,0.3-2.3,0.7c0.6,0.4,1.3,0.6,2.1,0.6c0.9,0,1.7-0.3,2.3-0.7
					C100.4,26.1,99.7,25.8,98.8,25.8z"/>
				<path class="st0" d="M100.9,23.6c-0.6-0.1-1.4-0.1-2.3,0c-1,0-1.9,0-2.6,0.2c0.3,0.5,1.2,0.9,2.4,0.9
					C99.8,24.6,100.8,24.1,100.9,23.6z"/>
			</g>
			<ellipse class="st15" cx="104.5" cy="24.6" rx="1.8" ry="1.9"/>
			<path class="st18" d="M93.7,16.9c0,0-0.1,0-0.1,0c-0.1-0.1-0.2-0.2-0.1-0.4c0.2-0.5,0.7-0.9,1.4-1c0.6-0.1,1.3,0.1,1.7,0.6
				c0.1,0.1,0.1,0.3,0,0.4c-0.1,0.1-0.3,0.1-0.4,0c-0.3-0.3-0.7-0.5-1.2-0.4c-0.4,0.1-0.8,0.3-0.9,0.6
				C93.9,16.8,93.8,16.9,93.7,16.9z"/>
			<path class="st18" d="M103.4,16.7c-0.1,0-0.2-0.1-0.3-0.2c-0.1-0.3-0.5-0.6-0.9-0.6c-0.5-0.1-0.9,0.1-1.2,0.4
				c-0.1,0.1-0.3,0.1-0.4,0c-0.1-0.1-0.1-0.3,0-0.4c0.4-0.5,1-0.7,1.7-0.6c0.6,0.1,1.1,0.5,1.4,1c0.1,0.1,0,0.3-0.1,0.4
				C103.4,16.7,103.4,16.7,103.4,16.7z"/>
			<path class="st14" d="M99.4,23.1C99.3,23.1,99.3,23.1,99.4,23.1c-0.1-0.4-0.4-0.6-0.7-0.6c-0.3,0-0.6,0.2-0.6,0.5
				c0,0-0.1,0.1-0.1,0.1c0,0-0.1-0.1-0.1-0.1c0.1-0.4,0.4-0.6,0.8-0.6c0.4,0,0.7,0.3,0.8,0.6C99.5,23.1,99.4,23.1,99.4,23.1
				L99.4,23.1z"/>
			<path class="st0" d="M96.5,22.3c0,0-2,0.7-3.2,0.1c-0.5-0.2-0.9-0.7-1-1.5c-0.1-1.2,1.1-2,1.9-1.9c0.9,0,1.7,0.8,2.1,1.8
				C96.5,21.3,96.6,21.8,96.5,22.3z"/>
			<path d="M93.3,22.4c-0.5-0.3-0.8-0.6-0.9-1.4c-0.1-0.8,0.5-2.1,1.9-1.9c0.9,0.1,1.6,0.6,2.2,1.9c-0.2-0.6-0.7-1.7-1.6-2
				c-1.7-0.6-2.9,0.7-2.6,1.9C92.3,22,93,22.4,93.3,22.4z"/>
			<path class="st0" d="M100.8,22.3c0,0,2,0.7,3.2,0.1c0.5-0.2,0.9-0.7,1-1.5c0.1-1.2-1.1-2-1.9-1.9c-0.9,0-1.7,0.8-2.1,1.8
				C100.8,21.3,100.7,21.8,100.8,22.3z"/>
			<path d="M104,22.4c0.5-0.3,0.8-0.6,0.9-1.4c0.1-0.8-0.5-2.1-1.9-1.9c-0.9,0.1-1.6,0.6-2.2,1.9c0.2-0.6,0.7-1.7,1.6-2
				c1.7-0.6,2.9,0.7,2.6,1.9C104.9,22,104.2,22.4,104,22.4z"/>
			<g>
				<ellipse transform="matrix(0.9291 -0.3698 0.3698 0.9291 -1.0875 36.3685)" class="st19" cx="94.3" cy="21" rx="1.2" ry="1.2"/>
				<ellipse transform="matrix(0.9291 -0.3697 0.3697 0.9291 -0.8437 36.586)" class="st20" cx="95" cy="20.5" rx="0.3" ry="0.3"/>
				<ellipse transform="matrix(0.9291 -0.3698 0.3698 0.9291 -0.486 39.5061)" class="st19" cx="102.8" cy="21" rx="1.2" ry="1.2"/>
				
					<ellipse transform="matrix(0.9291 -0.3697 0.3697 0.9291 -0.2423 39.724)" class="st20" cx="103.5" cy="20.5" rx="0.3" ry="0.3"/>
			</g>
			<g>
				<path class="st21" d="M103.8,24.2c-2.3,0-4.2-1.9-4.2-4.2c0-2.3,1.9-4.2,4.2-4.2c2.3,0,4.2,1.9,4.2,4.2
					C108.1,22.3,106.2,24.2,103.8,24.2z M103.8,16.1c-2.1,0-3.9,1.7-3.9,3.9c0,2.1,1.7,3.9,3.9,3.9c2.1,0,3.9-1.7,3.9-3.9
					C107.7,17.9,106,16.1,103.8,16.1z"/>
				<path class="st21" d="M97.4,21.5C97.3,21.5,97.3,21.5,97.4,21.5c-0.2,0-0.2-0.1-0.2-0.2c0.1-0.4,0.7-0.7,1.3-0.8
					c0.6,0,1.3,0.1,1.6,0.8c0,0.1,0,0.2-0.1,0.2c-0.1,0-0.2,0-0.2-0.1c-0.3-0.5-0.8-0.6-1.3-0.6c-0.5,0-0.9,0.3-1,0.5
					C97.5,21.5,97.4,21.5,97.4,21.5z"/>
				<path class="st21" d="M93.5,24.2c-2.3,0-4.2-1.9-4.2-4.2c0-2.3,1.9-4.2,4.2-4.2c2.3,0,4.2,1.9,4.2,4.2
					C97.8,22.3,95.8,24.2,93.5,24.2z M93.5,16.1c-2.1,0-3.9,1.7-3.9,3.9c0,2.1,1.7,3.9,3.9,3.9c2.1,0,3.9-1.7,3.9-3.9
					C97.4,17.9,95.6,16.1,93.5,16.1z"/>
			</g>
		</g>
		<g>
			<path class="st3" d="M87.9,44c0.1,0.1,0.3,0.2,0.4,0.3c0.1,0.1,1.1-0.7,0.9-1c0-0.1-0.1-0.1-0.1-0.2c0.2-0.1,0.4-0.3,0.6-0.4
				c0.4-0.3,0.9-0.6,1.2-0.7c-0.3-0.4-0.8-1-1.1-1.4c0,0-5.1,2.7-5.3,3.8C84.4,44.7,86.1,44.6,87.9,44z"/>
			<path class="st4" d="M90,40.9c-0.1-0.1-0.1-0.2-0.2-0.3c0,0-5.1,2.7-5.3,3.8c0,0,0,0.1,0.1,0.1C85.5,43.3,88.7,41.5,90,40.9z"/>
			<path class="st4" d="M86.1,44.5C86.1,44.4,86.2,44.4,86.1,44.5c0.5-0.6,0.5-1.3,0-1.6c0,0,0,0,0,0c-0.9,0.6-1.6,1.2-1.7,1.6
				C84.4,44.6,85.1,44.7,86.1,44.5z"/>
			<path class="st5" d="M87.5,43.5C87.5,43.5,87.5,43.5,87.5,43.5c0.1,0,0.1,0,0.1,0.1c0,0.3-0.2,0.6-0.5,0.8c0,0-0.1,0-0.1,0
				c0,0,0-0.1,0-0.1C87.2,44.1,87.4,43.9,87.5,43.5C87.5,43.5,87.5,43.5,87.5,43.5z"/>
			<path class="st5" d="M87.1,43.6C87.1,43.6,87.1,43.5,87.1,43.6c0.1,0,0.1,0,0.1,0.1c-0.1,0.4-0.3,0.7-0.6,0.9c0,0-0.1,0-0.1,0
				c0,0,0-0.1,0-0.1C86.8,44.2,87,43.9,87.1,43.6C87,43.6,87,43.6,87.1,43.6z"/>
		</g>
	</g>
	<g>
		<path class="st1" d="M56.7,58.2c0.1,0.3,2.1-0.4,2-0.7c-0.6-2.1-1.3-4.4-1.2-4.8c0.1-0.4,1.6-2.2,3.4-4l-2.5-2.8
			c-1.9,2.1-3.8,4.8-4.1,5.5C54.1,52.4,56.6,57.9,56.7,58.2z"/>
		<path class="st2" d="M59,57.2c-0.1-0.2-0.6-1.4-0.6-1.6l-3,1.2c0,0,0.9,1.3,1,1.5C56.8,58.5,58.9,57.6,59,57.2z"/>
		<g>
			<path class="st22" d="M55.6,57.8c0-0.1,0-0.4-0.1-0.5c0-0.1,1.1-0.8,1.3-0.5c0,0.1,0.1,0.1,0.1,0.2c0.2-0.1,0.4-0.2,0.6-0.4
				c0.5-0.3,0.9-0.6,1.2-0.8c0.2,0.4,0.6,1.1,0.9,1.6c0,0-4.6,3.8-5.8,3.5C53.4,60.8,54.2,59.2,55.6,57.8z"/>
			<path class="st23" d="M59.4,57.1c0.1,0.1,0.1,0.2,0.2,0.3c0,0-4.6,3.8-5.8,3.5c0,0-0.1,0-0.1-0.1C55.3,60.3,58.2,58,59.4,57.1z"
				/>
			<path class="st5" d="M55.9,58.3C55.9,58.3,56,58.3,55.9,58.3c0.1-0.1,0-0.1,0-0.1c-0.3-0.1-0.7,0-1,0.2c0,0,0,0.1,0,0.1
				c0,0,0.1,0,0.1,0C55.1,58.4,55.4,58.2,55.9,58.3C55.9,58.4,55.9,58.4,55.9,58.3z"/>
			<path class="st5" d="M55.6,58.7C55.7,58.7,55.7,58.7,55.6,58.7c0.1-0.1,0-0.1,0-0.1c-0.4-0.1-0.8,0-1,0.2c0,0,0,0.1,0,0.1
				c0,0,0.1,0,0.1,0C54.9,58.7,55.3,58.7,55.6,58.7C55.6,58.8,55.6,58.7,55.6,58.7z"/>
		</g>
		<path class="st1" d="M62.1,59.8c-0.2,0.2-1.8-1.2-1.6-1.5c1.4-1.7,3-3.4,3.1-3.9c0.1-0.4-0.6-2.7-1.4-5l3.4-1.5
			c0.9,2.7,1.4,6,1.4,6.7C67,55.6,62.4,59.6,62.1,59.8z"/>
		<path class="st24" d="M65.9,46.9l-7.2-1.9c-2.2,2.1-5.1,5.9-5.4,6.6c-0.2,0.6,0.9,2.9,1.7,4.6c0.8-0.3,2.4-1.1,3.2-1.5
			C58,54,57.5,53,57.6,52.7c0.1-0.4,2.1-2.3,3.8-1.7c1.8,0.7,2.4,3,2.3,3.4c-0.1,0.3-0.9,1-1.4,1.5c0.6,0.7,1.7,2.1,2.3,2.7
			c1.4-1.2,3.4-2.8,3.5-3.5C68.1,54.4,67,49.7,65.9,46.9z"/>
		<path class="st25" d="M54.5,49.8c0.4,0.1,0.8,0.2,1.3,0.2c1.7-0.2,2.9-1.8,2.8-3.7c0-0.3-0.1-0.6-0.2-0.9
			C57,46.7,55.6,48.4,54.5,49.8z"/>
		<path class="st25" d="M65.9,46.9l-2.2-0.6c-0.1,0.4-0.2,0.8-0.2,1.3c0.1,1.5,1.4,2.7,2.7,2.6c0.2,0,0.4-0.1,0.6-0.2
			C66.6,48.9,66.3,47.8,65.9,46.9z"/>
		<path class="st26" d="M60.4,50.3c2.3,0,4.7-0.3,6.3-1c-0.1-0.5-0.7-2.3-0.9-2.6c-0.2,0.1-9.3,0.7-9.3,0.7s-0.5,0.5-0.9,1
			C56.8,49.4,58.3,50.3,60.4,50.3z"/>
		<path class="st27" d="M54.9,56.3c-0.1-0.2-0.3-0.8-0.4-0.9l3.6-1.3c0,0,0.4,0.8,0.4,0.9C58.2,55.5,55.5,56.5,54.9,56.3z"/>
		<path class="st2" d="M60.5,57.8c0.1-0.2,1.1-1.1,1.2-1.2l2.2,2.3c0,0-1.4,0.8-1.5,0.9C61.9,60,60.4,58.3,60.5,57.8z"/>
		<g>
			<path class="st22" d="M63.4,59.8c0.1-0.1,0.2-0.3,0.3-0.5c0.1-0.1-0.7-1.2-1-1c-0.1,0-0.1,0.1-0.2,0.1c-0.1-0.2-0.3-0.4-0.4-0.6
				c-0.3-0.5-0.6-0.9-0.7-1.2c-0.4,0.3-1,0.8-1.5,1.1c0,0,2.6,5.4,3.8,5.6C64,63.5,64,61.7,63.4,59.8z"/>
			<path class="st23" d="M60.2,57.6c-0.1,0.1-0.2,0.1-0.3,0.2c0,0,2.6,5.4,3.8,5.6c0,0,0.1,0,0.1-0.1C62.6,62.2,60.9,58.9,60.2,57.6
				z"/>
			<path class="st5" d="M62.8,60.2C62.8,60.2,62.8,60.2,62.8,60.2c0-0.1,0-0.1,0.1-0.1c0.4,0.1,0.7,0.3,0.8,0.6c0,0,0,0.1,0,0.1
				c0,0-0.1,0-0.1,0C63.5,60.6,63.3,60.3,62.8,60.2C62.8,60.2,62.8,60.2,62.8,60.2z"/>
			<path class="st5" d="M62.9,60.7C62.9,60.7,62.9,60.6,62.9,60.7c0-0.1,0-0.1,0.1-0.1c0.4,0.1,0.7,0.3,0.9,0.6c0,0,0,0.1,0,0.1
				c0,0-0.1,0-0.1,0C63.6,61,63.3,60.8,62.9,60.7C62.9,60.7,62.9,60.7,62.9,60.7z"/>
		</g>
		<path class="st1" d="M46.6,38.4c-0.2-0.1-0.2-1.6,0-1.5c3.5,0.7,9.7,1.2,11.6,1.3L57.8,41C56.4,41.2,49,40.1,46.6,38.4z"/>
		<path class="st1" d="M44.7,38.7c0,0.1-0.2,0.2-0.6,0.4c-0.3,0.1-0.7,0.3-0.8,0.5c-0.1,0.2,0.1,0.3,0.5,0.2
			c0.6-0.1,1.9-0.4,2.6-0.5c1.1-0.2,2-1.3,1.8-2.2c-0.3-1.4-0.5-1.9-0.7-2.8c-0.1-0.2-0.5,0.1-0.6,0.4c-0.1,0.6,0.1,0.8,0,1.1
			c-0.1,0.3-0.4,0.3-0.7,0.2c-1.4-0.9-2-1.6-2.5-1.4c-0.4,0.2,0.5,1,1.4,1.8c-1.4-0.4-2.5-0.7-2.6-0.3c-0.1,0.4,0.9,1,2.1,1.2
			c-1.1,0.3-2.2,0.3-2.2,0.8C42.3,38.6,44.8,38.3,44.7,38.7z"/>
		<path class="st28" d="M54,37.4c-0.1,1.4,0.1,4.3,0.4,4.4c0,0,2.4,0.2,3-0.5c1-1.3,0.8-3.1,0.8-3.3C56.8,38,54,37.4,54,37.4z"/>
		<path class="st1" d="M73.7,32.2c0.1-0.2-0.7-1.4-0.9-1.2c-2.4,2.7-7.3,6.8-9,7.5l2.4,2.4C67.5,40.3,72.8,34.9,73.7,32.2z"/>
		<path class="st1" d="M75.5,32.3c0.1,0.1,0.3,0.2,0.6,0.3c0.3,0.1,0.8,0.2,0.9,0.4c0.2,0.2-0.1,0.3-0.4,0.3c-0.6,0-2,0-2.7-0.1
			c-1.2,0-2.2-0.9-2.2-1.8c0.1-1.4,0.2-2,0.3-2.9c0-0.2,0.5,0,0.6,0.3c0.2,0.6,0.1,0.8,0.2,1.1c0.1,0.3,0.4,0.3,0.7,0.1
			c1.2-1.1,1.7-1.9,2.2-1.8c0.4,0.2-0.3,1.1-1.1,2c1.3-0.7,2.4-1.1,2.5-0.8c0.2,0.4-0.7,1.1-1.9,1.6c1.2,0.1,2.2-0.1,2.3,0.4
			C77.8,31.8,75.3,32,75.5,32.3z"/>
		<path class="st28" d="M67.3,35.9c1,1.1,1.3,4.4,1.1,4.7c0,0-2.9,0.9-3.3,0.8c-1.6-0.2-2.1-3.1-2.3-3.3
			C65.1,37.9,67.3,35.9,67.3,35.9z"/>
		<path class="st28" d="M67.7,47.5c-1,0.7-2.5,2-6.2,2c-3.7,0-5.4-0.9-6.1-1.4c0,0,1.3-3.3,2.2-10.2c1.7,0.1,5.3,0,6.9-0.1
			C65.2,39.5,67.6,47.5,67.7,47.5z"/>
		<path class="st11" d="M59.2,36l0.1,2.6c0,0.6,0.8,1,1.8,0.9c1,0,1.7-0.5,1.7-1.1l-0.1-2.6L59.2,36z"/>
		<path class="st27" d="M64.6,58.8c0.1-0.1,0.6-0.6,0.7-0.7l-2.7-2.7c0,0-0.7,0.6-0.8,0.7C62,56.7,64,58.7,64.6,58.8z"/>
		<g>
			<path class="st29" d="M48,32.6c0.7,2,2.9,3.1,4.3,2.7c1.5-0.3,1.6-2.1,1.1-4c-0.5-2-2-3.3-3.5-2.9C48,29,47.3,30.8,48,32.6z"/>
			
				<ellipse transform="matrix(0.9735 -0.2287 0.2287 0.9735 -6.0946 12.5822)" class="st30" cx="51.2" cy="32.6" rx="1.4" ry="1.6"/>
			<path class="st29" d="M73.5,30.3c-0.4,2.1-2.2,3.6-3.8,3.5c-1.5-0.1-2-1.7-1.9-3.7c0.1-2,1.4-3.6,2.9-3.5
				C72.8,26.6,73.8,28.3,73.5,30.3z"/>
			
				<ellipse transform="matrix(4.618683e-02 -0.9989 0.9989 4.618683e-02 36.1574 99.5234)" class="st30" cx="70.2" cy="30.8" rx="1.6" ry="1.4"/>
			<path class="st31" d="M70.7,23.8c0.6,6.4-3.6,9.8-9.8,10.3c-6.2,0.6-11.1-1.9-11.7-8.3c-0.6-6.4,3.8-8.4,10.1-8.9
				C65.5,16.2,70.1,17.3,70.7,23.8z"/>
			<path class="st32" d="M70.2,26.1c0.7,7.5-3.1,11.3-8.8,11.9c-5.7,0.5-10.2-2.5-10.9-10c-0.7-7.5,3.5-8.1,9.2-8.7
				C65.4,18.7,69.5,18.5,70.2,26.1z"/>
			
				<ellipse transform="matrix(0.9957 -9.215496e-02 9.215496e-02 0.9957 -1.6272 5.789)" class="st31" cx="61.9" cy="20.5" rx="6.8" ry="2.5"/>
			
				<ellipse transform="matrix(0.9957 -9.216741e-02 9.216741e-02 0.9957 -2.7175 6.282)" class="st33" cx="66.7" cy="32.6" rx="1.8" ry="1.8"/>
			
				<ellipse transform="matrix(0.9957 -9.214059e-02 9.214059e-02 0.9957 -2.8636 5.2264)" class="st33" cx="55.2" cy="33.6" rx="1.8" ry="1.8"/>
			<g>
				<path class="st34" d="M62.8,27.6c-0.6,1.1-0.4,2.2,0.3,2.6c1,0.5,3.2,0.5,3.9-0.5c0.7-1,0.2-2.6-1.2-3.1
					C64.6,26.1,63.4,26.6,62.8,27.6z"/>
				<path class="st35" d="M66.8,27c-1.2-1.5-3.5-0.7-4,0.7c0.6-1.1,1.8-1.5,2.9-1.1c0.7,0.3,1.2,0.9,1.4,1.6
					c0.2,0.5,0.1,1.2-0.2,1.6C67.2,29.5,67.7,28,66.8,27z"/>
				
					<ellipse transform="matrix(0.2826 -0.9592 0.9592 0.2826 18.7129 82.3917)" class="st19" cx="64.4" cy="28.7" rx="1.4" ry="1.4"/>
				
					<ellipse transform="matrix(0.2826 -0.9592 0.9592 0.2826 18.4933 81.2729)" class="st20" cx="63.6" cy="28.3" rx="0.4" ry="0.4"/>
			</g>
			<g>
				<path class="st34" d="M57.9,28.1c0.8,1,0.8,2.1,0.2,2.6c-0.9,0.7-3,1.1-3.9,0.2c-0.9-0.8-0.6-2.5,0.6-3.3
					C55.8,26.9,57.1,27.2,57.9,28.1z"/>
				<path class="st35" d="M53.8,28.2c0.9-1.7,3.3-1.3,4.1,0c-0.8-1-2.1-1.2-3.1-0.5c-0.6,0.4-1,1.1-1.1,1.8
					c-0.1,0.6,0.1,1.2,0.5,1.5C53.8,30.7,53.2,29.4,53.8,28.2z"/>
				
					<ellipse transform="matrix(0.2826 -0.9592 0.9592 0.2826 12.2663 75.2522)" class="st19" cx="56.4" cy="29.4" rx="1.4" ry="1.4"/>
				<ellipse transform="matrix(0.2827 -0.9592 0.9592 0.2827 12.047 74.1335)" class="st20" cx="55.6" cy="29" rx="0.4" ry="0.4"/>
			</g>
			<path class="st31" d="M66.7,25c-0.1,0-0.1,0-0.2-0.1c-0.7-0.5-2-0.6-3-0.1c-0.1,0.1-0.3,0-0.4-0.1c-0.1-0.1,0-0.3,0.1-0.4
				c1.2-0.6,2.7-0.5,3.5,0.2c0.1,0.1,0.1,0.3,0.1,0.4C66.8,25,66.8,25,66.7,25z"/>
			<path class="st31" d="M53.6,26.2c-0.1,0-0.2,0-0.2-0.1c-0.1-0.1-0.1-0.3,0-0.4c0.8-0.8,2.2-1.2,3.5-0.8c0.1,0,0.2,0.2,0.2,0.3
				c0,0.1-0.2,0.2-0.3,0.2c-1-0.3-2.3,0-2.9,0.7C53.7,26.2,53.6,26.2,53.6,26.2z"/>
			<path class="st14" d="M61.4,31.2c0,0-0.1,0-0.1-0.1c-0.1-0.3-0.4-0.5-0.7-0.5c-0.4,0-0.6,0.3-0.6,0.6c0,0.1,0,0.1-0.1,0.1
				c-0.1,0-0.1,0-0.1-0.1c0-0.4,0.4-0.8,0.8-0.8c0.4,0,0.8,0.2,0.9,0.6C61.5,31.1,61.5,31.2,61.4,31.2L61.4,31.2z"/>
			<g>
				<path class="st36" d="M64.4,33c0.1,1.6-1.6,2.9-3.7,2.9c-2.1,0.1-3.8-1.7-3.9-2.7c-0.2-1.8,1.8-1.1,3.9-1.3
					C62.8,31.8,64.3,31.5,64.4,33z"/>
				<path class="st0" d="M60.7,32c-1.1,0.1-2.1,0-2.9,0.1c0.4,0.6,1.5,1,2.8,1c1.3,0,2.4-0.5,2.7-1.2C62.7,31.7,61.7,31.9,60.7,32z"
					/>
				<path class="st17" d="M61.3,34.3c-1.3,0-2.4,0.4-3,1c0.7,0.4,1.5,0.7,2.3,0.7c1.2,0,2.3-0.5,2.9-1.1
					C63.1,34.5,62.2,34.3,61.3,34.3z"/>
			</g>
		</g>
		<polygon class="st37" points="61.2,40.8 62,42.1 63.5,42.3 62.5,43.4 62.9,44.9 61.5,44.2 60.2,45 60.3,43.5 59.2,42.5 60.7,42.2 
					"/>
	</g>
	<g>
		<path class="st38" d="M29,56.2c-7.2,2.8-10,0.2-10.6-0.7c0.9-1.5,1.9-5.1,2.3-7.2c1.6,0.1,3-0.2,5.5-0.4
			C27.4,49.4,28.7,55.2,29,56.2z"/>
		<path class="st39" d="M22.6,45.7v2.5c0,0.5,0.7,1,1.6,1s1.6-0.4,1.6-1v-2.5H22.6z"/>
		<g>
			<g>
				<path class="st40" d="M33.3,38.8c0.1,2.1-0.7,3.7-1.6,3.9c-0.9,0.1-1.5-1.4-1.7-3.4c-0.3-1.9,0.2-3.6,1.1-3.8
					C32.3,35.3,33.2,36.8,33.3,38.8z"/>
				<path class="st39" d="M32.3,40c-0.1,0.8-0.6,1.4-1.1,1.2c-0.5-0.2-0.8-1-0.6-1.8c0.1-0.8,0.6-1.4,1.1-1.2
					C32.2,38.3,32.4,39.1,32.3,40z"/>
				<path d="M30.6,34.2c1,6.4-2.6,9.9-8.2,10.7c-5.6,0.9-10.1-1.4-11.1-7.8c-1-6.4,3.4-9,9-9.8C26,26.5,29.6,27.9,30.6,34.2z"/>
				<path class="st40" d="M29.5,31.3c0.2,0.2,0.4,0.4,0.4,1.1c0.3,4.9,1.4,5.3,1.9,8.3c0.5,3-1.1,5.1-3.5,6
					c-2.3,0.9-8.4,2.1-12.6-3.4c-1.8-2.3-2.5-7.7-2.3-8.8c0.8-3.7,2.7-3.6,7.3-4.3C24.9,29.5,26.8,29.4,29.5,31.3z"/>
				<path d="M16.9,37.9c0.6,1.9,1.4,4.1-1,4.6c-2.2,0.5-2.7-2.5-3-5.6c-0.3-3.1-0.2-6.1,6.1-6.1C21.3,30.9,15.3,32.8,16.9,37.9z"/>
				<path class="st40" d="M11.6,43.2c1,1.9,3.3,2.7,4.8,2.2c1.4-0.6,1.3-2.3,0.6-4.2c-0.7-1.9-2.5-3-3.9-2.4
					C11,39.5,10.6,41.4,11.6,43.2z"/>
				<path class="st41" d="M14.1,43.3c0.5,0.8,1.6,1,2,0.7c0.4-0.4,0.3-0.9,0-1.8c-0.4-1-1-1.5-1.7-1.1
					C13.7,41.5,13.5,42.4,14.1,43.3z"/>
				<ellipse transform="matrix(0.9885 -0.1511 0.1511 0.9885 -6.4578 3.5846)" class="st42" cx="20.4" cy="44.3" rx="2" ry="2"/>
				
					<ellipse transform="matrix(0.9885 -0.1511 0.1511 0.9885 -6.0822 4.9839)" class="st42" cx="29.7" cy="42.5" rx="1.4" ry="1.7"/>
				<g>
					<path class="st34" d="M27.3,40.8c0,0,2.3,0.5,2.9-1c0.7-1.8-1-2.8-1.9-2.4C27.4,37.8,26.7,38.9,27.3,40.8z"/>
					<path d="M30,37.8c-0.5-0.5-1-0.6-1.6-0.5c-0.6,0.2-1.1,0.7-1.2,1.3c0.2-0.6,0.7-0.9,1.1-1.1c0.5-0.2,1.3,0,1.7,0.5
						c0.4,0.5,0.5,1.3,0.2,1.9C30.5,39.4,30.5,38.3,30,37.8z"/>
					<path class="st19" d="M27.2,39.1c-0.1,0.6,0.2,1.2,0.8,1.4c0.5,0.2,1-0.2,1.1-0.8c0.1-0.6-0.2-1.2-0.8-1.4
						C27.9,38.1,27.3,38.5,27.2,39.1z"/>
					<path class="st20" d="M27.3,38.9c0,0.2,0.1,0.3,0.2,0.4c0.1,0,0.3-0.1,0.3-0.2c0-0.2-0.1-0.3-0.2-0.4
						C27.5,38.6,27.3,38.7,27.3,38.9z"/>
				</g>
				<g>
					<path class="st34" d="M23.1,41.5c0,0-2.4,1.2-3.6,0c-1.4-1.4,0.2-3,1.4-2.9C22.1,38.6,23.2,39.4,23.1,41.5z"/>
					<path d="M19,39.4c0.4-0.7,1-0.9,1.7-1c0.7,0,1.5,0.4,1.8,0.8c-0.5-0.5-1.1-0.6-1.6-0.7c-0.7,0-1.5,0.4-1.8,1
						c-0.3,0.6-0.1,1.3,0.4,1.9C19,41.2,18.7,40.1,19,39.4z"/>
					
						<ellipse transform="matrix(0.2252 -0.9743 0.9743 0.2252 -22.9871 51.9655)" class="st19" cx="21.2" cy="40.4" rx="1.1" ry="1.1"/>
					
						<ellipse transform="matrix(0.2253 -0.9743 0.9743 0.2253 -23.1933 50.9403)" class="st20" cx="20.4" cy="40.1" rx="0.3" ry="0.3"/>
				</g>
				<path class="st43" d="M26.6,41.6C26.5,41.6,26.5,41.5,26.6,41.6c-0.2-0.3-0.4-0.5-0.7-0.4c-0.3,0-0.5,0.3-0.5,0.5
					c0,0,0,0.1-0.1,0.1c0,0-0.1,0-0.1-0.1c0-0.4,0.3-0.6,0.6-0.7c0.4-0.1,0.7,0.1,0.8,0.5C26.7,41.5,26.6,41.5,26.6,41.6L26.6,41.6z
					"/>
				<g>
					<path class="st36" d="M27.8,43.2c0,1-1.2,1.9-2.6,1.9c-1.4,0-2.6-0.8-2.6-1.9c0-1,1.2-0.8,2.6-0.9
						C26.7,42.2,27.8,42.2,27.8,43.2z"/>
					<path class="st0" d="M27,42.3c-0.5-0.1-1,0-1.7,0c-0.7,0-1.4,0-1.9,0.1c0.4,0.6,1.1,1,1.8,1C25.9,43.3,26.5,42.9,27,42.3z"/>
					<path class="st44" d="M25.9,44.3c-1-0.2-2-0.1-2.6,0.3c0.5,0.3,1.1,0.6,1.9,0.6c0.7,0,1.3-0.2,1.7-0.5
						C26.6,44.5,26.3,44.4,25.9,44.3z"/>
				</g>
				<path d="M30.3,33.9c0-0.1-0.1-0.2-0.2-0.3c-0.9-0.5-2.2-0.4-3.2,0.2c-0.1,0.1-0.2,0.2-0.2,0.3c0,0.1,0,0.2,0.1,0.3
					c0.1,0.1,0.2,0.2,0.4,0.2c0.1,0,0.2,0,0.2-0.1c0.7-0.4,1.7-0.5,2.3-0.2c0.1,0.1,0.2,0.1,0.3,0c0.1,0,0.2-0.1,0.3-0.2
					C30.3,34.2,30.3,34,30.3,33.9z"/>
				<path d="M21.5,35c-0.1-0.1-0.1-0.2-0.3-0.2c-1.1-0.3-2.4,0-3.1,0.7c-0.1,0.1-0.1,0.2-0.1,0.3c0,0.1,0.1,0.2,0.1,0.3
					c0.1,0.1,0.2,0.1,0.3,0.1c0,0,0,0,0,0c0.1,0,0.2-0.1,0.3-0.1c0.5-0.5,1.4-0.7,2.2-0.5c0.2,0.1,0.5-0.1,0.5-0.3
					C21.5,35.2,21.5,35.1,21.5,35z"/>
			</g>
			<path d="M8.5,32.5C8.6,32.2,8.8,32,9,31.8c-0.7-0.6-1.6-1-1.8-2.3c-0.2-1,0.7-1.4,0.7-1.8c-1-0.5-1.5-1.7-1.2-2.7
				c0.3-1,1.5-1.6,2.6-1.2c0.1-0.4,0.3-0.8,0.5-1c0.5-0.4,1,0,1.3,0.8c0.3-0.5,0.7-0.9,1.1-1.1c0.9-0.5,1.7,0.1,2,1.4
				c0.7-0.6,1.6-0.9,2.3-0.7c0.4,0.1,2.1,1.9,0.2,4.9c-0.2,0.3,0.7,0.6,1.6,1c0,0.1-0.1,0.2-0.1,0.3c-0.4,0,0.3,3-0.1,3.2
				c-1.2,0.7-2.7-0.5-2,0.7c0.1,0.2,0.2,0.3,0.4,0.4c-0.3,0.4-0.5,0.8-0.7,1.2c-0.9,0.2-1.7-2.1-2.1-2.5c-0.5,0.9-3.3,2.3-4.1,2
				C8.8,34,8.1,33.7,8.5,32.5z"/>
			<path class="st45" d="M17.9,26.2c-2.4,1.5-5.2,4.3-6.5,7.8C10.2,30.3,14.8,25.8,17.9,26.2z"/>
			<path d="M14.2,33.9C14,34.2,14,34.6,14.1,35c0.2,0.7,1,1.1,1.7,0.9c0.7-0.2,1-1,0.8-1.7c-0.1-0.4-0.4-0.7-0.8-0.8
				c0.1-0.1,0.2-0.3,0.3-0.5c0.3-0.1,0.6-0.2,0.8-0.5c0.2-0.4,0.2-0.8-0.1-1.3c0,0,0.1,0,0.1,0c0.2-0.1,0.3-0.2,0.4-0.3
				c0.4,1.2,1.7,1.8,2.8,1.4c0.4-0.1,0.7-0.4,1-0.7c0.6,0.3,1.3,0.3,1.9,0.1c0.4-0.1,0.7-0.3,0.9-0.6c0.2,0.4,0.6,0.6,1,0.6
				c0,0.1,0,0.3,0.1,0.4c0.3,0.9,1.4,1.4,2.3,1.1c0.3-0.1,0.5-0.2,0.7-0.4c0.2,0.6,0.9,0.9,1.5,0.7c0.6-0.2,0.9-0.9,0.7-1.5
				c0,0,0-0.1-0.1-0.1c0,0,0,0,0,0c1.2-0.4,1.7-1.7,1.3-2.9c-0.3-1-1.2-1.6-2.2-1.6c0.2-0.6,0.2-1.4-0.1-2.1
				c-0.6-1.3-2.1-1.8-3.3-1.2c-0.3,0.1-0.5,0.3-0.7,0.5c-0.6-0.4-1.3-0.5-2-0.3c-0.2,0.1-0.3,0.1-0.5,0.2c0-0.1,0-0.2-0.1-0.4
				c-0.2-0.6-0.9-0.9-1.5-0.7c-0.3,0.1-0.6,0.4-0.7,0.7c-1.4-0.7-3.2-0.2-4,1.2c-0.6,1.1-0.5,2.4,0.1,3.4c-0.2,0-0.4,0-0.6,0
				c-0.1,0-0.1,0.1-0.2,0.1c0-0.2-0.1-0.4-0.2-0.5c-0.3-0.5-1.1-0.7-1.6-0.3c-0.4,0.3-0.6,0.8-0.5,1.3c-0.4,0.1-0.7,0.2-0.9,0.5
				c-0.4,0.6,0.1,1.6,1,2.3c-0.5,0.3-0.7,0.7-0.6,1.1C13.3,33.6,13.7,33.8,14.2,33.9z"/>
		</g>
		<path class="st46" d="M10.3,44.6c-0.1,0.1-0.3,0.1-0.7,0.1c-0.3,0-0.8,0-1,0.2c-0.2,0.2,0,0.3,0.4,0.4c0.6,0.2,2,0.5,2.8,0.6
			c1.2,0.3,2.5-0.4,2.7-1.4c0.3-1.5,0.3-2.1,0.5-3c0-0.2-0.5-0.1-0.7,0.2c-0.4,0.6-0.3,0.8-0.5,1.1c-0.2,0.3-0.5,0.2-0.8-0.1
			c-0.9-1.5-1.3-2.4-1.9-2.4c-0.5,0.1,0,1.2,0.7,2.4c-1.2-1-2.2-1.7-2.4-1.4c-0.3,0.4,0.5,1.3,1.5,2.1c-1.2-0.2-2.3-0.6-2.5-0.2
			C8,43.6,10.6,44.3,10.3,44.6z"/>
		<path class="st40" d="M10.1,45.6c-0.1,0.1-0.3,0.1-0.7,0.1c-0.3,0-0.8,0-1,0.2c-0.2,0.2,0,0.3,0.4,0.4c0.6,0.2,2,0.5,2.8,0.6
			c1.2,0.3,2.5-0.4,2.7-1.4c0.3-1.5,0.3-2.1,0.5-3c0-0.2-0.5-0.1-0.7,0.2c-0.4,0.6-0.3,0.8-0.5,1.1c-0.2,0.3-0.5,0.2-0.8-0.1
			c-0.9-1.5-1.3-2.4-1.9-2.4c-0.5,0.1,0,1.2,0.7,2.4c-1.2-1-2.2-1.7-2.4-1.4c-0.3,0.4,0.5,1.3,1.5,2.1c-1.2-0.2-2.3-0.6-2.5-0.2
			C7.8,44.5,10.3,45.2,10.1,45.6z"/>
		<path class="st40" d="M12.8,44.8c-0.3,0.5-0.7,1-1.1,1.4c2.9,2.2,5.7,4.3,9.1,5.5c0.3-1.1,0.5-2.2,0.8-3.2
			C18.5,47.7,15.7,46.4,12.8,44.8z"/>
		<path class="st38" d="M14.6,45.6c-0.3,0.5-1,1.6-1.3,2.1c2.4,2,5.3,3.5,8,4.4c0.3-1.1,0.1-2.7,0.5-3.8
			C19.3,47.7,16.7,46.7,14.6,45.6z"/>
		<path class="st40" d="M38.1,47.2c0.1,0.1,0.3,0.2,0.7,0.3c0.3,0.1,0.8,0.3,0.9,0.5c0.2,0.2-0.1,0.3-0.5,0.3
			c-0.6,0-2.1-0.1-2.8-0.3C35.2,48,34.1,47,34.2,46c0.1-1.5,0.3-2.1,0.4-3c0-0.2,0.5,0.1,0.6,0.4c0.2,0.7,0,0.9,0.2,1.2
			c0.1,0.3,0.4,0.3,0.8,0.1c1.3-1.1,1.9-1.9,2.5-1.7c0.4,0.2-0.4,1.1-1.3,2.1c1.4-0.6,2.6-1,2.7-0.7c0.2,0.4-0.9,1.1-2.1,1.6
			c1.2,0.1,2.4,0.1,2.5,0.5C40.6,46.9,37.9,46.9,38.1,47.2z"/>
		<path class="st40" d="M35.2,45.4c0.3,0.5,0.6,1,0.9,1.5c-3.1,1.9-6.1,3.6-9.7,4.5c-0.1-1.1-0.2-2.2-0.4-3.3
			C29.3,47.6,32.2,46.6,35.2,45.4z"/>
		<path class="st38" d="M33.4,46c0.3,0.6,0.8,1.7,1,2.3c-2.6,1.7-5.6,2.9-8.4,3.5c-0.2-1.2,0.2-2.7-0.1-3.8
			C28.5,47.5,31.2,46.9,33.4,46z"/>
		<path class="st40" d="M25.1,68.3c-0.3,0.1-1.4-1.5-1.1-1.7c1.7-1.2,3.5-2.5,3.7-2.9c0.2-0.3-1.6-2.4-2.8-4.1l3.4-1.9
			c1.1,1.7,3,5.9,2.8,6.6C30.8,65.2,25.4,68.2,25.1,68.3z"/>
		<path class="st2" d="M24,66.2c0.2-0.1,1.4-0.9,1.6-1l1.5,2.6c0,0-1.6,0.6-1.8,0.7C24.8,68.5,23.8,66.6,24,66.2z"/>
		<path class="st40" d="M12.5,63.6c-0.3-0.1,0.4-2,0.7-1.9c2,0.6,4.1,1.3,4.5,1.2c0.4-0.1,1-2.7,1.6-4.7l3.6,1.5
			c-0.7,1.8-2.9,5.9-3.6,6.2C18.4,66.3,12.7,63.7,12.5,63.6z"/>
		<path class="st2" d="M13.8,61.6c0.2,0.1,1.6,0.6,1.8,0.7L14.4,65c0,0-1.4-1-1.6-1C12.4,63.6,13.3,61.7,13.8,61.6z"/>
		<path class="st3" d="M17.8,55.8c0,0-1.6,3.6-2.3,5.4c1.2,0.6,4.9,1.7,6.5,1.9c0.7-2.6,1-2.9,1.4-2.9c0.5,0,0.5,0.2,0.9,3
			c1.6,0,5.4-0.6,6.7-1c-0.3-1.6-1.6-5.4-1.9-6.3c0,0-1.5,0.7-5.9,0.5C20.6,56.2,17.8,55.8,17.8,55.8z"/>
		<path class="st7" d="M30.2,59.4c-0.8,0.2-1.7-0.3-2.1-1.3c-0.3-0.7-0.3-1.4,0-1.9c0.7,0,1.1,0,1.1,0S29.7,57.8,30.2,59.4z"/>
		<path class="st7" d="M16.5,58.8c0.8,0.3,1.7-0.1,2.2-1c0.4-0.6,0.4-1.3,0.2-1.9c-0.7-0.1-1.1-0.1-1.1-0.1S17.2,57.3,16.5,58.8z"/>
		<path class="st26" d="M22,57.8c2.1,0.2,6-0.4,7.5-1c-0.1-0.5-0.3-0.6-0.3-0.9c0,0-1.5,0.2-5.9,0.1c-2.7-0.1-5.2-0.5-5.2-0.5
			s-0.4,0.8-0.6,1.3C18.9,57.3,20,57.6,22,57.8z"/>
		<path class="st26" d="M23,60.4c-0.1-0.5-0.1-1.3-0.1-2c0-0.4,0-0.8,0-1l0.2,0c0,0.3,0,0.7,0,1.1c0,0.7-0.1,1.4,0.1,1.9L23,60.4
			L23,60.4z"/>
		<path class="st3" d="M23.5,57.6c2.1,0,4.3-0.3,6-0.7c0-0.3-0.3-1.1-0.3-1.4c0,0-1.5,0.7-5.9,0.5c-2.7-0.1-5.4-0.5-5.4-0.5
			s-0.2,0.6-0.4,1.3C19.1,57.3,21.3,57.6,23.5,57.6z"/>
		<path class="st10" d="M22.1,63.2c0.1-0.2,0.4-1.1,0.5-1.3L15.7,60c0,0-0.4,1.1-0.5,1.3C16,62,21.2,63.4,22.1,63.2z"/>
		<path class="st10" d="M31.1,62.3c0-0.2-0.1-1.2-0.1-1.4l-7,1c0,0,0,1.2,0.1,1.4C25,63.6,30.3,62.9,31.1,62.3z"/>
		<g class="st47">
			<path d="M19.5,57.5l-0.3-0.1c0-0.2-0.1-0.5,0-0.9c0.1-0.6,0.3-0.8,0.4-0.9l0.4,0c0,0-0.2,0.3-0.3,1
				C19.5,56.9,19.5,57.3,19.5,57.5z"/>
		</g>
		<path class="st48" d="M19.4,57.5L19,57.4c0-0.2-0.1-0.5,0-0.9c0.1-0.6,0.3-0.8,0.4-0.9l0.4,0c0,0-0.3,0.3-0.4,1
			C19.3,56.8,19.3,57.3,19.4,57.5z"/>
		<g class="st47">
			<path d="M27.4,57.6l0.3-0.1c0-0.2,0.1-0.5,0-0.9c-0.1-0.5-0.3-0.8-0.4-0.8l-0.4,0c0,0,0.3,0.3,0.4,0.9
				C27.4,57,27.4,57.5,27.4,57.6z"/>
		</g>
		<path class="st48" d="M27.6,57.6l0.3-0.1c0-0.2,0.1-0.5,0-0.9c-0.1-0.5-0.3-0.8-0.4-0.8l-0.4,0c0,0,0.3,0.3,0.4,0.9
			C27.6,57,27.6,57.4,27.6,57.6z"/>
		<g>
			<path class="st49" d="M25.8,68.5c-0.2-0.2-0.5-0.8-0.8-1.5c-0.2-0.5-0.4-0.9-0.5-1.3c-0.6,0.2-1.5,0.7-2.1,1
				c1.2,3.2,2.3,5.2,2.4,5.1C25.2,71.7,26.3,71.1,25.8,68.5z"/>
			<path class="st50" d="M26.1,68.6c-0.2,0.3-0.3,0.4-0.4,0.4c-0.4,0.1-0.6-0.4-0.7-0.7c-0.1-0.3-0.1-0.9,0.3-1
				C25.9,67.3,26.4,68.3,26.1,68.6z"/>
			<path class="st49" d="M26.2,68.7c-0.2,0.3-0.3,0.4-0.4,0.4c-0.4,0.1-0.6-0.4-0.7-0.7c-0.1-0.3-0.1-0.9,0.3-1
				C25.9,67.4,26.4,68.3,26.2,68.7z"/>
			<path class="st51" d="M25.2,68.8C25.2,68.8,25.2,68.8,25.2,68.8c0-0.1,0.1-0.2,0.1-0.1c0.3,0.1,0.6,0.4,0.7,0.7
				c0,0.1,0,0.1,0,0.1c0,0-0.1,0-0.1-0.1C25.8,69.2,25.5,69,25.2,68.8C25.3,68.9,25.2,68.8,25.2,68.8z"/>
			<path class="st52" d="M22.6,66.7c-0.1,0-0.1,0.1-0.2,0.1c1.2,3.2,2.3,5.2,2.4,5.1c0,0,0.1,0,0.2-0.1
				C24.4,70.8,23.5,69.1,22.6,66.7z"/>
			<path class="st51" d="M25.2,69.4C25.2,69.3,25.2,69.3,25.2,69.4c0-0.1,0.1-0.2,0.1-0.1c0.3,0.1,0.6,0.3,0.7,0.7
				c0,0.1,0,0.1,0,0.1c0,0-0.1,0-0.1-0.1C25.7,69.6,25.5,69.5,25.2,69.4C25.2,69.4,25.2,69.4,25.2,69.4z"/>
		</g>
		<g>
			<path class="st49" d="M14,63.7c0-0.3,0.2-0.9,0.6-1.6c0.2-0.5,0.4-0.9,0.6-1.2c-0.6-0.3-1.5-0.7-2.2-0.9
				c-1.6,3.1-2.3,5.2-2.2,5.2C11.2,65.3,12.4,65.7,14,63.7z"/>
			<path class="st50" d="M14.2,64c-0.3,0.1-0.5,0.1-0.6,0c-0.3-0.2-0.1-0.7,0-1c0.1-0.3,0.6-0.7,0.9-0.4C15,62.9,14.6,63.9,14.2,64z
				"/>
			<path class="st49" d="M14.2,64.1c-0.3,0.1-0.5,0.1-0.6,0c-0.3-0.2-0.1-0.7,0-1c0.1-0.3,0.6-0.7,1-0.4C15,63,14.6,64,14.2,64.1z"
				/>
			<path class="st51" d="M13.4,63.4C13.4,63.4,13.5,63.4,13.4,63.4c0.1-0.1,0.2-0.1,0.2,0c0.1,0.3,0.1,0.7,0,1
				c0,0.1-0.1,0.1-0.1,0.1c0,0-0.1-0.1,0-0.1C13.5,64.1,13.5,63.8,13.4,63.4C13.4,63.5,13.4,63.4,13.4,63.4z"/>
			<path class="st52" d="M13.2,60c-0.1,0-0.1,0-0.2-0.1c-1.6,3.1-2.3,5.2-2.2,5.2c0,0,0.1,0,0.2,0.1C11.4,64.1,12.1,62.3,13.2,60z"
				/>
			<path class="st51" d="M13,63.8C13,63.7,13,63.7,13,63.8c0.1-0.1,0.2-0.1,0.2,0c0.1,0.3,0.1,0.6,0,1c0,0.1-0.1,0.1-0.1,0.1
				c0,0-0.1-0.1,0-0.2C13.1,64.3,13.1,64,13,63.8C13,63.8,13,63.8,13,63.8z"/>
		</g>
	</g>
	<g>
		<path class="st1" d="M183.6,68.7c0,0.5-1.6,0.9-2,0.6c-2.3-5.1-4.3-6.2-1-13.4c1.2,0.4,2.8,0.9,4,1.4
			C180.1,62.8,183.3,65.5,183.6,68.7z"/>
		<path class="st1" d="M167.3,62.1c-0.4,0.3-1.4-0.7-1.3-1.2c4.4-5,4.8-5.2,11.5-6.6c0.2,1.2,0.4,2.4,0.5,3.7
			C170.9,58.1,171,59.7,167.3,62.1z"/>
		<path class="st53" d="M183.4,66.9c-0.4,0.2-2.3,0.5-3,0.6c-1.8-3.6-2.9-5.3-0.1-11.4c1.2,0.4,3,0.9,4.2,1.4
			C180.9,61.9,182.6,64.3,183.4,66.9z"/>
		<path class="st54" d="M183.9,68.9c0,0.1-2.1,0.9-2.2,0.9c-0.4-0.5-1.3-1.5-1.4-1.6l3.1-0.9C183.5,67.2,184.1,68.6,183.9,68.9z"/>
		<g>
			<path class="st55" d="M181,69.8c0-0.1-0.1-0.3-0.1-0.5c0-0.1,1-0.8,1.2-0.5c0,0.1,0.1,0.1,0.1,0.2c0.2-0.1,0.4-0.2,0.6-0.4
				c0.4-0.3,0.8-0.6,1.1-0.8c0.3,0.4,0.6,1,0.9,1.5c0,0-4.2,3.8-5.3,3.6C179.1,72.8,179.8,71.2,181,69.8z"/>
			<path class="st56" d="M184.6,68.9c0.1,0.1,0.1,0.2,0.2,0.3c0,0-4.2,3.8-5.3,3.6c0,0-0.1,0-0.1-0.1
				C180.8,72.2,183.5,69.9,184.6,68.9z"/>
			<path class="st56" d="M180,71.3C180,71.2,180,71.2,180,71.3c0.7-0.2,1.4,0,1.5,0.5c0,0,0,0,0,0.1c-0.9,0.6-1.7,1-2.1,1
				C179.2,72.8,179.4,72.1,180,71.3z"/>
			<path class="st57" d="M181.5,70C181.6,70,181.6,70,181.5,70C181.6,69.9,181.6,69.9,181.5,70c0.1-0.1,0.1-0.1,0.1-0.1
				c-0.3-0.1-0.7,0-1,0.2c0,0,0,0.1,0,0.1c0,0,0.1,0,0.1,0C180.9,69.9,181.3,69.9,181.5,70z M181.3,70.3
				C181.3,70.3,181.3,70.3,181.3,70.3C181.4,70.3,181.4,70.3,181.3,70.3c0.1-0.1,0.1-0.1,0-0.1c-0.3-0.1-0.7,0-1,0.2
				c0,0,0,0.1,0,0.1c0,0,0.1,0,0.1,0C180.6,70.4,180.9,70.2,181.3,70.3z M180.1,70.9c0,0,0.1,0,0.1,0c0.2-0.2,0.5-0.3,0.8-0.2
				c0,0,0,0,0.1,0c0,0,0,0,0,0c0,0,0-0.1-0.1-0.1c-0.3-0.1-0.7,0-1,0.2C180.1,70.8,180.1,70.9,180.1,70.9z"/>
		</g>
		<path class="st53" d="M167.3,59.1c3.1-3.4,4.1-3.7,10-4.9c0.2,1.2,0.5,2.6,0.6,3.8c-5.8,0.1-6.5,1.4-8.9,3.1
			C168.5,60.6,167.8,59.8,167.3,59.1z"/>
		<path class="st54" d="M167.1,62.9c-0.1,0.1-1.4-1.2-1.3-1.3c0.4-1,0.7-1.9,0.8-2.2l2.1,2C168.7,61.4,167.5,62.5,167.1,62.9z"/>
		<g>
			<path class="st55" d="M165.4,60.1c0.1-0.1,0.3-0.2,0.4-0.2c0.1-0.1,1.1,0.7,0.9,1c0,0.1-0.1,0.1-0.1,0.1c0.2,0.1,0.3,0.3,0.5,0.4
				c0.4,0.3,0.8,0.6,1.1,0.8c-0.3,0.4-0.8,0.9-1.1,1.3c0,0-4.9-2.8-5.1-3.9C162,59.3,163.7,59.5,165.4,60.1z"/>
			<path class="st56" d="M167.4,63.3c-0.1,0.1-0.1,0.2-0.2,0.2c0,0-4.9-2.8-5.1-3.9c0,0,0-0.1,0.1-0.1
				C163.1,60.7,166.2,62.6,167.4,63.3z"/>
			<path class="st56" d="M163.7,59.6C163.7,59.6,163.7,59.7,163.7,59.6c0.5,0.6,0.4,1.3,0,1.6c0,0,0,0,0,0c-0.8-0.6-1.5-1.2-1.6-1.6
				C162,59.4,162.7,59.4,163.7,59.6z"/>
			<path class="st57" d="M165.4,60.7C165.4,60.7,165.4,60.7,165.4,60.7C165.5,60.8,165.5,60.8,165.4,60.7c0.1,0.1,0.2,0.1,0.2,0
				c0-0.3-0.2-0.7-0.5-0.8c0,0-0.1,0-0.1,0c0,0,0,0.1,0,0.1C165.3,60.1,165.4,60.4,165.4,60.7z M165,60.6
				C165,60.6,165,60.6,165,60.6C165.1,60.6,165.1,60.6,165,60.6c0.1,0.1,0.2,0,0.2,0c0-0.3-0.2-0.6-0.5-0.8c0,0-0.1,0-0.1,0
				c0,0,0,0.1,0,0.1C164.7,60,165,60.2,165,60.6z M164.1,59.6c0,0,0,0.1,0,0.1c0.2,0.1,0.4,0.4,0.5,0.7c0,0,0,0,0,0.1c0,0,0,0,0.1,0
				c0,0,0.1,0,0.1-0.1c-0.1-0.3-0.3-0.7-0.5-0.9C164.1,59.6,164.1,59.6,164.1,59.6z"/>
		</g>
		<path class="st53" d="M177.8,55.1c0,0-2.9,0.6-3.9,1c0.1,0.4,2.2,1.3,1.7,1.8c1.9-0.1,3.5,0.8,3.4,1.7c0,0.4,0.6,0.1,0.4,0.9
			c1.3-0.3,3-1.5,4.1-1.9c0.8-1.2,1.8-1.9,1.1-4C183.6,55.1,177.8,55.1,177.8,55.1z"/>
		<path class="st1" d="M165.8,47.2c0,0.6-0.1,1.1-0.2,1.7c2.4,1,6.7,3.2,11.2,0.9c-0.3-1-0.4-1.8-0.6-2.8
			C172.4,48.8,169.3,48.1,165.8,47.2z"/>
		<path class="st26" d="M184.8,56.8c-0.5,1.2-2.5,1.9-5.9,1.7c-2.4-0.1-3.5-3-4.5-3.6c2.3-1.3,1.5-5,1.9-6.9c0.3-0.3,5-0.2,6.2-0.2
			C184.1,52.3,184.8,56.1,184.8,56.8z"/>
		<path class="st55" d="M185.1,56.6c-1,0.6-2.8,1.4-6.2,1.2c-2.4-0.1-2.5-2.1-4.6-3c2.3-1.3,1.6-6.2,2.1-8.1c0.3-0.3,5-0.2,6.2-0.2
			C184.1,51,185,55.9,185.1,56.6z"/>
		<path class="st55" d="M175.9,50.9c1.4-0.7,1.2-4.3,0.8-4.3c0,0-2.4,0.9-4.1,1.1C172.9,51,175.9,50.9,175.9,50.9z"/>
		<path class="st11" d="M180.8,44.7l0,2.2c0,0.5-0.7,0.9-1.7,0.9c-0.9,0-1.7-0.3-1.7-0.8l0-2.2L180.8,44.7z"/>
		<path class="st1" d="M190.1,55.7c0.4-0.4,0.8-0.7,1.3-1.1c-1-2.4-3.1-6.5-8-7.8c-0.5,1-1,1.6-1.5,2.5
			C186,50.5,188.1,52.7,190.1,55.7z"/>
		<path class="st55" d="M183.6,51.3c1.7,0.2,3.5-3.4,3.1-3.6c0,0-2.9-1.6-4.7-1.2C180.4,49.8,183.6,51.3,183.6,51.3z"/>
		<g>
			<path class="st58" d="M161.9,46.9c0.6,0.2,1.5,0.4,3.2,0.9c0.2,0.1,0.3,1,0.1,0.9C164.1,48.2,161.8,47.9,161.9,46.9z"/>
			<path class="st58" d="M161.7,46c0.6,0.2,2.1,0.3,3.6,1.3c0.2,0.1,0.1,1,0,0.9C164.2,47.7,161.7,46.7,161.7,46z"/>
			<path class="st1" d="M162,44.9c0.6,0.2,3.7,1.7,5.2,2.7c0.2,0.1-0.5,1.5-0.8,1.5c-0.6,0.5-1.8-0.1-3.4,0.3
				c-0.3,0.1-0.2-0.4-0.1-0.5c0.2-0.3,0.3-0.3,1.1-0.7c0.4-0.3,0.3-0.9,0.1-1.2C162.9,46,161.9,45.5,162,44.9z"/>
		</g>
		<g>
			<path class="st58" d="M192.5,58.8c-0.3-0.6-0.6-1.4-1.5-3c-0.1-0.2-1-0.1-0.9,0.1C190.9,56.8,191.7,59.1,192.5,58.8z"/>
			<path class="st58" d="M193.5,58.8c-0.3-0.6-0.7-2-2-3.3c-0.2-0.2-1,0-0.9,0.2C191.4,56.7,192.8,59,193.5,58.8z"/>
			<path class="st1" d="M194.5,58.3c-0.3-0.6-2.4-3.4-3.6-4.6c-0.2-0.2-1.4,0.8-1.4,1.1c-0.4,0.7,0.4,1.8,0.4,3.4
				c0,0.3,0.4,0.1,0.5,0c0.2-0.3,0.2-0.4,0.5-1.2c0.2-0.5,0.8-0.4,1.1-0.3C193.3,57.6,193.9,58.5,194.5,58.3z"/>
		</g>
		<g>
			<g>
				<path class="st13" d="M167,40.6c0.4,2.3,2.1,3.8,3.4,3.7c1.3-0.1,1.6-1.9,1.4-4.1c-0.2-2.2-1.4-3.9-2.6-3.8
					C167.4,36.7,166.7,38.5,167,40.6z"/>
				
					<ellipse transform="matrix(0.8962 -0.4436 0.4436 0.8962 -0.5991 79.6513)" class="st11" cx="169.9" cy="41.1" rx="1.3" ry="1.8"/>
				<path class="st59" d="M167.9,35.2c0.5,7.1,5.2,10,11.5,9.6c6.3-0.5,10.6-4,10.1-11.1c-0.5-7.1-5.2-8.5-11.5-8
					C171.7,26,167.3,28,167.9,35.2z"/>
				<path class="st1" d="M168.6,31c-0.7,0.7,0,2.3,0.2,3.5c0.7,4.5,0.5,6.2,0.4,8.1c-0.3,3.9,5.1,4,6.3,4c1.4,0,7.6-0.6,9.3-3.4
					c1.7-2.7,2.1-11.5,1.6-12.6c-1.7-3.7-3.7-3.2-8.6-2.8C173.3,28.2,171.1,28.5,168.6,31z"/>
				<ellipse transform="matrix(0.9945 -0.1046 0.1046 0.9945 -2.1123 18.6477)" class="st59" cx="176.7" cy="29.5" rx="8" ry="3"/>
				<path class="st59" d="M184.5,35.1c-0.2,2.2-0.2,3.9,1.4,5c1.8,1.3,3.1-3.7,2.9-7.1c-0.2-3.4-2.8-5.7-7.1-5.1
					C179.4,28.3,185.1,29.3,184.5,35.1z"/>
				<path class="st1" d="M190.6,40.2c-0.6,2.3-2.9,3.8-4.6,3.5c-1.7-0.3-2-2.2-1.7-4.4c0.3-2.2,2-3.9,3.7-3.6
					C190.3,36,191.2,38,190.6,40.2z"/>
				<path class="st11" d="M187.9,40.9c-0.4,1-1.5,1.5-2,1.2c-0.6-0.3-0.6-0.9-0.4-1.9c0.2-1.2,0.7-1.8,1.5-1.6
					C187.9,38.9,188.4,39.7,187.9,40.9z"/>
				
					<ellipse transform="matrix(0.9974 -7.224698e-02 7.224698e-02 0.9974 -2.5725 13.2763)" class="st60" cx="182.2" cy="42.2" rx="1.7" ry="1.7"/>
				
					<ellipse transform="matrix(0.9974 -7.225174e-02 7.225174e-02 0.9974 -2.6606 12.4539)" class="st60" cx="170.8" cy="43" rx="1.2" ry="1.5"/>
				<g>
					<path class="st34" d="M173.2,38c0.6,0.9,0.6,1.9,0.2,2.4c-0.7,0.6-2.5,0.9-3.2,0.1c-0.7-0.8-0.5-2.3,0.5-3
						C171.5,36.8,172.6,37.1,173.2,38z"/>
					<path class="st35" d="M169.9,38c0.7-1.5,2.7-1.1,3.3,0.1c-0.6-0.9-1.7-1.1-2.5-0.5c-0.5,0.4-0.8,1-0.9,1.6
						c0,0.5,0.1,1.1,0.4,1.4C169.9,40.3,169.3,39.1,169.9,38z"/>
					<path class="st61" d="M173.1,38.6c0.3,0.6,0,1.4-0.5,1.7c-0.6,0.3-1.2,0-1.5-0.6c-0.3-0.6,0-1.4,0.5-1.7
						C172.2,37.7,172.8,37.9,173.1,38.6z"/>
					<path class="st20" d="M173,38.5c0.1,0.2,0,0.4-0.1,0.5c-0.2,0.1-0.3,0-0.4-0.2c-0.1-0.2,0-0.4,0.1-0.5
						C172.8,38.2,172.9,38.3,173,38.5z"/>
				</g>
				<g>
					<path class="st34" d="M178.2,37.6c-0.6,1-0.4,2,0.2,2.4c0.9,0.5,2.9,0.5,3.6-0.4c0.7-0.9,0.2-2.4-1.1-2.9
						C179.8,36.2,178.7,36.7,178.2,37.6z"/>
					<path class="st35" d="M181.9,37.1c-1-1.4-3.2-0.7-3.8,0.6c0.6-1,1.7-1.4,2.7-0.9c0.6,0.3,1.1,0.8,1.3,1.5
						c0.1,0.5,0.1,1.1-0.2,1.5C182.2,39.4,182.6,38.1,181.9,37.1z"/>
					
						<ellipse transform="matrix(0.8999 -0.436 0.436 0.8999 1.1829 82.3719)" class="st61" cx="180.1" cy="38.6" rx="1.3" ry="1.3"/>
					<ellipse transform="matrix(0.9 -0.4359 0.4359 0.9 1.4718 82.6179)" class="st20" cx="180.8" cy="38.1" rx="0.4" ry="0.4"/>
				</g>
				<path class="st59" d="M169.5,34.6c0.1,0,0.1,0,0.2-0.1c0.6-0.6,1.7-0.8,2.7-0.6c0.1,0,0.3,0,0.3-0.2c0-0.1,0-0.3-0.2-0.3
					c-1.2-0.3-2.5,0-3.2,0.7c-0.1,0.1-0.1,0.3,0,0.4C169.4,34.5,169.5,34.6,169.5,34.6z"/>
				<path class="st59" d="M181.7,33.7c0.1,0,0.1,0,0.2-0.1c0.1-0.1,0.1-0.3,0-0.4c-0.8-0.6-2.2-0.7-3.3-0.2
					c-0.1,0.1-0.2,0.2-0.1,0.3c0.1,0.1,0.2,0.2,0.3,0.1c0.9-0.4,2.1-0.4,2.8,0.2C181.6,33.7,181.6,33.7,181.7,33.7z"/>
				<path class="st59" d="M176.2,43.2C176.2,43.2,176.2,43.2,176.2,43.2c0.6-0.1,1-0.5,1-1c0-0.1,0-0.1-0.1-0.1
					c-0.1,0-0.1,0-0.1,0.1c0,0.4-0.3,0.7-0.7,0.8c-0.4,0.1-0.8-0.2-0.9-0.7c0-0.1-0.1-0.1-0.2-0.1c-0.1,0-0.1,0.1-0.1,0.2
					C175.3,43,175.8,43.2,176.2,43.2z"/>
				<path class="st14" d="M174.9,41C174.9,41,174.9,41,174.9,41c0.1-0.4,0.3-0.6,0.7-0.6c0.3,0,0.6,0.2,0.7,0.5c0,0,0.1,0.1,0.1,0.1
					c0,0,0.1-0.1,0.1-0.1c-0.1-0.4-0.4-0.6-0.9-0.6C175.1,40.2,174.8,40.5,174.9,41C174.8,41,174.8,41,174.9,41L174.9,41z"/>
				<g>
					<path class="st16" d="M172.9,43c0.3,1.5,2.1,2.5,4,2.1c1.9-0.4,3.2-1.9,2.9-3.4c-0.3-1.5-1.9-0.9-3.8-0.7
						C174.1,41.3,172.6,41.5,172.9,43z"/>
					<path class="st17" d="M176.4,43.8c1-0.2,2,0,2.6,0.4c-0.5,0.5-1.3,0.9-2.1,1.1c-1,0.2-1.9,0-2.6-0.4
						C174.7,44.3,175.5,43.9,176.4,43.8z"/>
					<path class="st0" d="M173.7,41.5c0.6-0.3,1.4-0.4,2.4-0.5c1.1-0.1,2.1-0.4,2.8-0.3c-0.2,0.7-1.1,1.3-2.3,1.5
						C175.1,42.5,174,42.2,173.7,41.5z"/>
				</g>
			</g>
			<path class="st62" d="M188,26.9c0.9,2.4,1.6,5.2,1.6,5.2s-13.9,2.9-14.5,1.3c-0.9-2.6-3-8.5,1.5-8.8
				C186.5,24.1,188,26.9,188,26.9z"/>
			<path class="st63" d="M178.6,36.9c-1.4,0.8-14.2,1.4-14.6,0.7c-0.9-0.8,2.8-1.7,3.9-2.3c0.8,0,15.4-1.9,15.7-1.9
				C183.6,33.4,179.7,36.3,178.6,36.9z"/>
			<path class="st62" d="M178.2,36.5c-1.4,0.7-13.9,1.4-14.3,0.8c-0.3-0.5,2.8-1.5,3.8-2.1c0.8,0,14.1-1.3,14.4-1.3
				C182,33.9,179.2,36,178.2,36.5z"/>
			<path class="st64" d="M183.5,28c-0.9-2.1-3.4-3.7-7.1-3.4c-4.2,0.3-8.7,3.4-8.7,6.1c0,1,0,4.4,0,4.4c3,0.4,13.8-0.5,16.9-2.1
				C184.6,33.1,184.2,29.9,183.5,28z"/>
			<ellipse class="st65" cx="177.7" cy="24.2" rx="1.1" ry="0.4"/>
		</g>
	</g>
	<g>
		<path class="st66" d="M127.3,34.2c0.1,0.2,0.2,0.4,0.3,0.5c-0.4,0.3-1,0.5-1.2,1.3c-0.1,0.6,0.4,0.9,0.4,1.1c-0.6,0.3-1,1-0.8,1.6
			c0.2,0.7,0.8,1,1.5,0.8c0.1,0.3,0.2,0.5,0.3,0.6c0.3,0.2,0.6,0,0.8-0.5c0.2,0.3,0.4,0.6,0.6,0.7c0.5,0.3,1.1,0,1.3-0.8
			c0.4,0.4,0.9,0.6,1.4,0.5c0.3-0.1,1.3-1.1,0.3-3c-0.1-0.2,0.4-0.4,1-0.5c0-0.1,0-0.1-0.1-0.2c-0.3,0,0.3-1.8,0.1-2
			c-0.7-0.5-1.7,0.2-1.2-0.5c0.1-0.1,0.2-0.2,0.2-0.3c-0.2-0.2-0.3-0.5-0.4-0.8c-0.6-0.2-1.1,1.3-1.4,1.5c-0.3-0.6-2-1.6-2.5-1.4
			C127.6,33.4,127.1,33.5,127.3,34.2z"/>
		<g>
			<path class="st1" d="M144.9,56.7c0.5,0.2,0.1,1.8-0.3,2c-6.7,0.5-8.6-3.2-5.2-9.4c1.2,0.4,2.3,0.8,3.5,1.2
				C137.5,56.3,142,56.3,144.9,56.7z"/>
			<path class="st67" d="M143.6,56.1c-0.2,0.9-0.5,2.4-0.7,3c-2.4-0.5-4.9-1.5-5.5-3.1c-0.5-1.3,0.4-3.6,1.7-6.6
				c1.5,0.4,3.2-0.1,4.6,0.4c-1,2-2.7,4.3-2.7,4.8C141,55.2,142,55.8,143.6,56.1z"/>
		</g>
		<path class="st54" d="M145.8,56.6c0.1,0-0.1,1.4-0.2,1.4c-0.6,0.3-1.7,1-1.9,1.1l0.2-2.9C144,56.2,145.5,56.4,145.8,56.6z"/>
		<g>
			<path class="st68" d="M144.5,59.4c-0.1-0.1-0.3-0.2-0.4-0.2c-0.1-0.1,0.1-1.2,0.3-1.2c0.1,0,0.1,0,0.2,0c0-0.2,0.1-0.4,0.1-0.7
				c0-0.5,0.1-1,0.1-1.3c0.4,0,1.2,0.2,1.6,0.2c0,0,0.3,5.4-0.5,6.1C145.6,62.6,144.8,61.2,144.5,59.4z"/>
			<path class="st69" d="M146,56.2c0.1,0,0.2,0,0.3,0c0,0,0.3,5.4-0.5,6.1c0,0-0.1,0-0.1,0C146.1,61,146.1,57.6,146,56.2z"/>
			<path class="st57" d="M144.9,59.1C145,59.1,145,59.1,144.9,59.1c0-0.1,0-0.1,0-0.1c0,0-0.1,0-0.1,0c-0.3,0.2-0.5,0.5-0.4,0.8
				c0,0,0,0.1,0.1,0.1c0,0,0.1,0,0.1-0.1C144.6,59.5,144.7,59.2,144.9,59.1z M145.1,59.5C145.1,59.5,145.1,59.5,145.1,59.5
				c0-0.1,0-0.1,0-0.1c0,0-0.1,0-0.1,0c-0.3,0.2-0.4,0.5-0.4,0.8c0,0,0,0.1,0.1,0.1s0.1,0,0.1-0.1C144.7,60,144.8,59.7,145.1,59.5z
				 M144.8,60.7C144.8,60.7,144.8,60.7,144.8,60.7c0.1-0.3,0.2-0.6,0.4-0.8c0,0,0,0,0-0.1c0,0,0,0,0-0.1c0,0-0.1,0-0.1,0
				C144.9,60,144.7,60.4,144.8,60.7C144.7,60.7,144.7,60.7,144.8,60.7z"/>
		</g>
		<path class="st1" d="M133.9,61.5c-0.1,0.5-1.9,0.2-2.1-0.1c-0.3-5.8-1.2-7.6,4-12.9c1,0.8,2,1.6,2.9,2.5
			C132.4,54.5,134.8,58.3,133.9,61.5z"/>
		<path class="st67" d="M134.6,59.6c-0.5,0-2.3,0.1-3.1,0.2c-0.4-4.3-1-6.8,4-11.6c1,0.8,2.9,1.9,3.8,2.8
			C133.8,53.5,134.7,57.6,134.6,59.6z"/>
		<path class="st54" d="M134.3,62c0,0.1-1.9,0.4-2,0.3c-0.4-0.5-0.9-1.6-1-1.7l2.9-0.4C134.2,60.1,134.4,61.7,134.3,62z"/>
		<g>
			<path class="st68" d="M131.5,62.5c0-0.1,0-0.3,0-0.5c0-0.1,1-0.7,1.2-0.4c0,0.1,0.1,0.1,0.1,0.2c0.2-0.1,0.4-0.2,0.6-0.3
				c0.4-0.3,0.8-0.5,1.1-0.7c0.2,0.4,0.5,1,0.8,1.5c0,0-4.3,3.3-5.3,3.1C129.5,65.2,130.3,63.7,131.5,62.5z"/>
			<path class="st69" d="M135,61.9c0,0.1,0.1,0.2,0.1,0.3c0,0-4.3,3.3-5.3,3.1c0,0-0.1,0-0.1-0.1C131.2,64.7,133.9,62.7,135,61.9z"
				/>
			<path class="st57" d="M132,62.6C132,62.7,132.1,62.7,132,62.6C132.1,62.6,132.1,62.6,132,62.6c0.1-0.1,0.1-0.1,0.1-0.1
				c-0.3-0.1-0.7-0.1-0.9,0.1c0,0,0,0.1,0,0.1c0,0,0.1,0,0.1,0C131.5,62.6,131.8,62.5,132,62.6z M131.8,63
				C131.8,63,131.8,63,131.8,63C131.8,63,131.9,62.9,131.8,63c0.1-0.1,0.1-0.1,0.1-0.1c-0.3-0.1-0.7,0-0.9,0.1c0,0,0,0.1,0,0.1
				c0,0,0.1,0,0.1,0C131.1,63,131.4,62.9,131.8,63z M130.6,63.5c0,0,0.1,0,0.1,0c0.2-0.2,0.5-0.2,0.8-0.1c0,0,0,0,0.1,0c0,0,0,0,0,0
				c0,0,0-0.1,0-0.1C131.2,63.1,130.8,63.2,130.6,63.5C130.6,63.4,130.6,63.4,130.6,63.5z"/>
		</g>
		<path class="st1" d="M125.9,41.4c0,0.5-0.1,1-0.2,1.5c2.2,0.9,6.3,2.9,10.4,0.6c-0.3-0.9-0.4-1.7-0.6-2.6
			C132,42.7,129.1,42.2,125.9,41.4z"/>
		<path class="st70" d="M135.3,44.6c1.4-0.7,1.1-4.1,0.7-4.1c0,0-2.3,0.9-3.9,1.1C132.4,44.7,135.3,44.6,135.3,44.6z"/>
		<g>
			<path class="st71" d="M136.2,42.5c-1-0.3-1.3-0.9-1.8-1.5c0.1,0,0.1,0,0.2,0c0.4,0.6,0.7,1.1,1.6,1.4
				C136.2,42.4,136.2,42.4,136.2,42.5z"/>
			<path class="st71" d="M132.8,41.4c0.1,0,0.1,0,0.2,0c0.6,1.1,1.8,1.9,3,2.4c0,0,0,0.1-0.1,0.1C134.6,43.4,133.4,42.6,132.8,41.4z
				"/>
		</g>
		<path class="st1" d="M151.4,41.6c0,0.5,0.1,1.2,0.2,1.7c-2.3,0.9-6.2,2.1-10.3-0.3c0.3-0.9,0.2-1.7,0.5-2.6
			C145.3,42.4,148,42.3,151.4,41.6z"/>
		<path class="st70" d="M142.7,44.8c1.6,0.1,3.3-3.3,2.9-3.5c0,0-2.1-0.7-4-1.1C140.1,43.4,142.7,44.8,142.7,44.8z"/>
		<g>
			<path class="st71" d="M142.4,44.2c0.8-1,1.5-2.1,2-3.3c0.1,0,0.1,0,0.1,0c-0.5,1.2-1.2,2.3-2,3.4c-0.1,0.1-0.1,0.1-0.2,0.2
				c0,0-0.1-0.1-0.1-0.1C142.3,44.4,142.3,44.3,142.4,44.2z"/>
			<path class="st71" d="M141.3,43c0.6-0.8,1.1-1.6,1.4-2.5c0.1,0,0.1,0,0.2,0c-0.4,0.9-0.9,1.8-1.5,2.7
				C141.3,43.1,141.3,43.1,141.3,43z"/>
		</g>
		<path class="st70" d="M144.2,49.8c-1.5,0.7-3.3,2.1-5.9,1.4c-2.2-0.6-2.4-0.8-4.5-1.7c2.6-1.8,1.5-7.3,1.9-9.1
			c0.3-0.3,4.7-0.3,5.9-0.3C143.1,44.5,144.1,49.2,144.2,49.8z"/>
		<path class="st11" d="M139.6,38.3l0.5,2c0.1,0.4-0.5,1-1.4,1.1s-1.6,0-1.7-0.4l-0.5-2L139.6,38.3z"/>
		<g>
			<path class="st58" d="M122.5,41.2c0.6,0.2,1.4,0.3,3,0.8c0.2,0.1,0.3,0.9,0.1,0.8C124.6,42.4,122.4,42.1,122.5,41.2z"/>
			<path class="st58" d="M122.4,40.4c0.6,0.2,2,0.3,3.3,1.2c0.2,0.1,0.2,0.9,0,0.8C124.7,41.9,122.3,41.1,122.4,40.4z"/>
			<path class="st1" d="M122.6,39.3c0.6,0.2,3.5,1.5,4.8,2.4c0.2,0.1-0.4,1.4-0.8,1.4c-0.6,0.5-1.7-0.1-3.2,0.3
				c-0.3,0.1-0.2-0.3-0.1-0.4c0.2-0.3,0.3-0.3,1-0.7c0.4-0.3,0.3-0.8,0-1.1C123.4,40.4,122.5,39.9,122.6,39.3z"/>
		</g>
		<g>
			<path class="st58" d="M155,41.5c-0.6,0.1-1.5,0.3-3.1,0.7c-0.2,0.1-0.3,0.9-0.1,0.8C152.9,42.6,155.1,42.4,155,41.5z"/>
			<path class="st58" d="M155.2,40.7c-0.6,0.1-2,0.2-3.4,1c-0.2,0.1-0.2,0.9,0,0.8C152.8,42.1,155.2,41.4,155.2,40.7z"/>
			<path class="st1" d="M155,39.6c-0.6,0.1-3.6,1.4-5,2.3c-0.2,0.1,0.4,1.4,0.7,1.5c0.6,0.5,1.7,0,3.2,0.4c0.3,0.1,0.2-0.3,0.1-0.5
				c-0.2-0.3-0.3-0.3-0.9-0.8c-0.4-0.3-0.2-0.8,0-1.1C154.1,40.6,155,40.2,155,39.6z"/>
		</g>
		<g>
			<path class="st71" d="M143.2,45.4c0,0,0,0.1,0,0.1c-1.3,0.4-2.6,0.6-4,0.6c-1.3,0-2.5-0.2-3.8-0.5c0-0.1,0-0.1,0-0.2
				C138,46.2,140.7,46.1,143.2,45.4z"/>
			<path class="st71" d="M135.6,47.3c-0.1,0-0.3-0.1-0.4-0.1c0,0,0-0.1,0-0.1c0.1,0,0.3,0.1,0.4,0.1c2.6,0.8,5.4,0.8,8,0.1
				c0,0,0,0.1,0,0.1c-1.2,0.3-2.5,0.5-3.8,0.5C138.4,48,137,47.8,135.6,47.3z"/>
			<path class="st71" d="M142.7,43.8c0,0,0,0.1,0,0.1c-1.1,0.2-2.1,0.4-3.2,0.4c-1.3,0-2.7-0.2-4-0.6c0-0.1,0-0.1,0-0.2
				C137.9,44.3,140.4,44.4,142.7,43.8z"/>
			<path class="st71" d="M139.5,49.9c-1.4,0-2.9-0.2-4.2-0.6c-0.3-0.1-0.5-0.2-0.8-0.3c0,0,0.1-0.1,0.1-0.1c0.3,0.1,0.5,0.2,0.8,0.3
				c2.7,0.8,5.7,0.8,8.4,0c0.1,0,0.2-0.1,0.3-0.1c0,0.1,0,0.1,0,0.2c-0.1,0-0.2,0.1-0.3,0.1C142.3,49.7,140.9,49.9,139.5,49.9z"/>
			<path class="st71" d="M142.1,41.8c0,0,0,0.1,0,0.1c-1.2,0.3-2.4,0.5-3.7,0.5c-1,0-1.9-0.1-2.9-0.3c0-0.1,0-0.1,0-0.2
				C137.7,42.4,140,42.4,142.1,41.8z"/>
		</g>
		<g>
			<path class="st13" d="M127.6,34.5c0.3,2.1,1.9,3.6,3.1,3.5c1.2-0.1,1.5-1.8,1.4-3.8c-0.1-2-1.2-3.6-2.4-3.5
				C128,30.9,127.2,32.5,127.6,34.5z"/>
			<ellipse transform="matrix(0.9046 -0.4262 0.4262 0.9046 -2.5075 58.8411)" class="st11" cx="130.2" cy="35" rx="1.2" ry="1.6"/>
			<path class="st66" d="M151.1,33.3c0,0.2-0.1,0.4-0.2,0.5c0.5,0.3,1,0.4,1.3,1.2c0.2,0.6-0.3,0.9-0.3,1.2c0.7,0.2,1.1,0.9,1,1.5
				c-0.1,0.7-0.7,1.1-1.4,1c0,0.3-0.1,0.5-0.2,0.6c-0.2,0.3-0.6,0.1-0.9-0.4c-0.1,0.3-0.3,0.6-0.5,0.8c-0.5,0.4-1.1,0.1-1.4-0.6
				c-0.4,0.5-0.9,0.7-1.4,0.7c-0.3,0-1.5-0.9-0.7-2.9c0.1-0.2-0.5-0.3-1.1-0.4c0-0.1,0-0.1,0-0.2c0.3-0.1-0.5-1.8-0.3-2
				c0.6-0.6,1.7,0,1.2-0.6c-0.1-0.1-0.2-0.2-0.3-0.2c0.1-0.3,0.2-0.5,0.3-0.8c0.5-0.2,1.3,1.1,1.5,1.3c0.2-0.6,1.8-1.8,2.3-1.7
				C150.8,32.5,151.3,32.6,151.1,33.3z"/>
			<path class="st72" d="M128.4,29.5c0.4,6.6,4.7,9.4,10.5,9.1c5.8-0.3,9.9-3.5,9.6-10.2c-0.4-6.6-4.7-8-10.5-7.6
				C132.1,21.1,128.1,22.8,128.4,29.5z"/>
			<path class="st1" d="M129.2,25.8c-0.6,0.7,0,2.1,0.1,3.3c0.6,4.2,0.4,5.8,0.2,7.5c-0.4,3.6,4.6,3.8,5.8,3.8c1.3,0,7.1-0.4,8.7-3
				c1.6-2.5,2.2-10.6,1.7-11.6c-1.5-3.5-3.4-3-7.9-2.8C133.6,23.2,131.5,23.5,129.2,25.8z"/>
			<path class="st72" d="M143.9,29.7c-0.2,2-0.3,3.7,1.2,4.7c1.7,1.2,3-3.4,2.8-6.5c-0.2-3.2-2.5-5.4-6.5-4.9
				C139.2,23.3,144.5,24.4,143.9,29.7z"/>
			<ellipse transform="matrix(0.5 -0.866 0.866 0.5 48.3646 144.4668)" class="st73" cx="149.3" cy="30.3" rx="1.8" ry="0.8"/>
			
				<ellipse transform="matrix(0.9553 -0.2958 0.2958 0.9553 -2.676 45.9649)" class="st73" cx="150.6" cy="31.8" rx="1.9" ry="0.8"/>
			<path class="st1" d="M149.4,34.6c-0.6,2.1-2.8,3.4-4.3,3.2c-1.6-0.3-1.8-2.1-1.5-4.1c0.3-2.1,1.9-3.5,3.5-3.3
				C149.3,30.7,150,32.5,149.4,34.6z"/>
			<path class="st11" d="M146.9,35.2c-0.4,1-1.4,1.3-1.9,1.1c-0.5-0.3-0.5-0.8-0.3-1.8c0.2-1.1,0.7-1.7,1.5-1.5
				C146.9,33.3,147.4,34.1,146.9,35.2z"/>
			
				<ellipse transform="matrix(0.9986 -5.296027e-02 5.296027e-02 0.9986 -1.7357 7.4805)" class="st60" cx="140.3" cy="36.5" rx="2" ry="2"/>
			
				<ellipse transform="matrix(0.9986 -5.296543e-02 5.296543e-02 0.9986 -1.7601 7.0152)" class="st60" cx="131.5" cy="36.7" rx="1.5" ry="1.8"/>
			<g>
				<path class="st0" d="M137.5,34.2c0,0,1.9,0.5,3.1-0.1c0.5-0.3,0.9-0.7,0.9-1.5c0-1.2-1.2-1.8-2-1.7c-0.9,0.1-1.6,0.8-1.9,1.8
					C137.5,33.2,137.4,33.7,137.5,34.2z"/>
				<path class="st74" d="M140.6,34.1c0.4-0.3,0.8-0.6,0.8-1.4c0.1-0.7-0.6-1.9-1.9-1.8c-0.8,0.1-1.5,0.7-2,2c0.1-0.6,0.6-1.6,1.5-2
					c1.6-0.7,2.8,0.5,2.6,1.7C141.5,33.7,140.9,34.1,140.6,34.1z"/>
				
					<ellipse transform="matrix(0.9082 -0.4185 0.4185 0.9082 -0.8674 61.4707)" class="st73" cx="139.7" cy="32.7" rx="1.2" ry="1.2"/>
				
					<ellipse transform="matrix(0.9082 -0.4185 0.4185 0.9082 -0.5804 61.6976)" class="st20" cx="140.4" cy="32.2" rx="0.3" ry="0.3"/>
			</g>
			<g>
				<path class="st0" d="M133.6,34.4c0,0-1.7,0.7-2.8,0.3c-0.5-0.2-0.8-0.6-1-1.4c-0.2-1.1,0.9-1.9,1.6-1.9c0.8,0,1.5,0.7,1.9,1.6
					C133.5,33.4,133.6,33.9,133.6,34.4z"/>
				<path class="st74" d="M130.8,34.6c-0.4-0.2-0.7-0.5-0.9-1.3c-0.1-0.7,0.4-2,1.6-1.9c0.7,0,1.4,0.5,2,1.8
					c-0.2-0.6-0.7-1.5-1.5-1.8c-1.5-0.5-2.5,0.8-2.2,1.9C129.9,34.3,130.6,34.6,130.8,34.6z"/>
				<path class="st73" d="M132.9,32.7c0.3,0.6,0,1.3-0.5,1.6c-0.5,0.3-1.2,0-1.4-0.6c-0.2-0.6,0-1.3,0.5-1.6
					C132.1,31.8,132.7,32.1,132.9,32.7z"/>
				<path class="st20" d="M132.8,32.5c0.1,0.2,0,0.4-0.1,0.4c-0.1,0.1-0.3,0-0.4-0.2c-0.1-0.2,0-0.4,0.1-0.4
					C132.6,32.3,132.8,32.3,132.8,32.5z"/>
			</g>
			<path class="st14" d="M134.4,34.6C134.5,34.6,134.5,34.6,134.4,34.6c0.1-0.4,0.3-0.6,0.6-0.6c0.3,0,0.6,0.2,0.6,0.4
				c0,0,0.1,0.1,0.1,0.1c0,0,0.1-0.1,0.1-0.1c-0.1-0.4-0.4-0.6-0.8-0.6C134.7,33.9,134.4,34.1,134.4,34.6
				C134.3,34.5,134.4,34.6,134.4,34.6L134.4,34.6z"/>
			<path class="st72" d="M148.1,26.9c0-0.8-0.6-1.4-1.4-1.5c0.3-0.1,0.6-0.3,0.8-0.5c0.6-0.7,0.4-1.7-0.3-2.2
				c-0.5-0.3-1.1-0.4-1.6-0.2c0-0.1,0-0.2,0-0.3c0-0.5-0.3-1-0.8-1.2c0.2-0.3,0.2-0.6,0.2-1c-0.1-1.2-1.4-2.2-2.9-2.1
				c-1,0.1-1.9,0.5-2.3,1.2c-0.5-0.3-1.1-0.5-1.8-0.5c-0.8,0-1.5,0.4-2,0.9c-0.3-0.6-0.8-1-1.4-1.3c-1.8-0.8-4.1,0.1-5.1,2
				c-0.2,0.3-0.3,0.6-0.4,0.9c-0.2-0.1-0.4-0.1-0.7-0.1c-0.7,0-1.3,0.6-1.2,1.2c0,0.3,0.1,0.5,0.3,0.7c-0.7,0.2-1.3,0.7-1.7,1.5
				c-0.7,1.4-0.3,3,1,3.6c0.2,0.1,0.3,0.1,0.5,0.2c0,0.2,0.1,0.4,0.2,0.6c-0.2-0.1-0.3-0.1-0.5-0.1c-0.7,0-1.3,0.6-1.2,1.4
				c0,0.7,0.7,1.3,1.4,1.2c0.2,0,0.4-0.1,0.5-0.1c0,0.1,0.1,0.2,0.2,0.3c0.4,0.4,1.3,0.4,1.9-0.2c0.4-0.4,0.6-0.9,0.6-1.3
				c0.9-0.4,1.5-1.4,1.4-2.6c0,0,0-0.1,0-0.1c0.2,0.2,0.6,0.3,1,0.3c0.7,0,1.2-0.5,1.2-1.1c0.1,0,0.1,0.1,0.2,0.1
				c1.3,0.6,2.9,0,3.6-1.4c0.1-0.2,0.2-0.4,0.2-0.5c0.1,0.6,0.4,1.1,1,1.4c0.9,0.5,2.2,0,2.7-1c0.1-0.3,0.2-0.5,0.3-0.8
				c0.3,0,0.6-0.1,0.9-0.2c-0.2,0.5-0.3,1.1,0,1.7c0.3,0.7,1,1.2,1.8,1.3c0,0.1,0,0.1,0,0.2c0,0.4,0.2,0.8,0.6,1.1
				c-0.4,0-0.7,0.2-0.9,0.4c-0.3,0.5-0.1,1.1,0.5,1.5c0.6,0.3,1.3,0.2,1.6-0.2c0.2-0.4,0.1-0.9-0.2-1.2c0.1,0,0.2,0,0.2,0
				C147.4,28.5,148.2,27.8,148.1,26.9z"/>
			<g>
				<path class="st36" d="M133.4,36.7c0.2,1.2,1.5,1.9,2.9,1.6c1.3-0.3,2.1-2.1,2-2.8c-0.2-1.4-1.3-0.5-2.7-0.2
					C134.2,35.5,133.2,35.5,133.4,36.7z"/>
				<path class="st0" d="M135.6,35.1c0.7-0.1,1.3-0.4,1.8-0.5c-0.1,0.5-0.8,1.1-1.6,1.3c-0.8,0.2-1.6,0-1.9-0.4
					C134.3,35.3,134.9,35.3,135.6,35.1z"/>
				<path class="st75" d="M135.6,37.1c0.8-0.2,1.6-0.2,2.1,0.2c-0.3,0.4-0.8,0.8-1.4,1c-0.8,0.2-1.5,0.1-2.1-0.3
					C134.5,37.6,135,37.3,135.6,37.1z"/>
			</g>
			<path class="st76" d="M130.6,29.1c0,0-0.1,0-0.1,0c-0.1-0.1-0.2-0.2-0.2-0.4c0.2-0.5,0.6-0.9,1.2-1c0.6-0.1,1.2,0,1.6,0.4
				c0.1,0.1,0.1,0.3,0,0.4c-0.1,0.1-0.3,0.1-0.4,0c-0.3-0.3-0.7-0.4-1.1-0.3c-0.4,0.1-0.7,0.3-0.8,0.6
				C130.8,29,130.7,29.1,130.6,29.1z"/>
			<path class="st76" d="M139.7,28.3c-0.1,0-0.2,0-0.3-0.1c-0.2-0.3-0.5-0.5-0.9-0.5c-0.4,0-0.8,0.1-1.1,0.4
				c-0.1,0.1-0.3,0.1-0.4,0.1c-0.1-0.1-0.1-0.3-0.1-0.4c0.4-0.5,0.9-0.7,1.5-0.7c0.6,0,1.1,0.3,1.4,0.8c0.1,0.1,0,0.3-0.1,0.4
				C139.8,28.3,139.8,28.3,139.7,28.3z"/>
		</g>
	</g>
</g>
<rect x="6.5" y="74.9" class="st28" width="31" height="118"/>
<line class="st77" x1="-156.5" y1="-47.1" x2="-85.8" y2="-117.8"/>
<rect x="45.5" y="65.9" class="st38" width="31" height="127"/>
<rect x="84.5" y="57.9" class="st37" width="31" height="135"/>
<rect x="123.5" y="68.9" class="st55" width="31" height="124"/>
<rect x="162.5" y="77.9" class="st78" width="31" height="115"/>
</svg>
