<?xml version="1.0" encoding="utf-8"?>
<!-- Generator: Adobe Illustrator 21.0.2, SVG Export Plug-In . SVG Version: 6.00 Build 0)  -->
<svg version="1.1" id="Layer_1" xmlns="http://www.w3.org/2000/svg" xmlns:xlink="http://www.w3.org/1999/xlink" x="0px" y="0px"
	 viewBox="0 0 1000 1000" style="enable-background:new 0 0 1000 1000;" xml:space="preserve">
<style type="text/css">
	.st0{fill:#FFFFFF;}
	.st1{fill:#FFD5C7;}
	.st2{fill:#F9F9F9;}
	.st3{fill:#7AA1C1;}
	.st4{fill:#5C8CAD;}
	.st5{fill:#E4E9F2;}
	.st6{fill:#895C5C;}
	.st7{fill:#5B87A5;}
	.st8{opacity:0.26;enable-background:new    ;}
	.st9{fill:#DD4A4A;}
	.st10{fill:#6996B5;}
	.st11{fill:#E4A78E;}
	.st12{fill:#775640;}
	.st13{fill:#FCC8B4;}
	.st14{fill:#C68C75;}
	.st15{fill:#F9BCB7;}
	.st16{fill:#701608;}
	.st17{fill:#DD7868;}
	.st18{fill:#604130;}
	.st19{fill:#461D14;}
	.st20{fill:#FEFFFE;}
	.st21{fill:#932014;}
	.st22{fill:#DD4343;}
	.st23{fill:#721212;}
	.st24{fill:#6684A3;}
	.st25{fill:#456C89;}
	.st26{opacity:0.14;enable-background:new    ;}
	.st27{fill:#507393;}
	.st28{fill:#4BC4B8;}
	.st29{fill:#FAC7B3;}
	.st30{fill:#E4A68D;}
	.st31{fill:#8F6455;}
	.st32{fill:#FBD3C7;}
	.st33{fill:#FFC0C0;}
	.st34{fill:#F9FEFF;}
	.st35{fill:#602220;}
	.st36{fill:#5B0000;}
	.st37{fill:#F9D564;}
	.st38{fill:#E84669;}
	.st39{fill:#AF5315;}
	.st40{fill:#CC6A1F;}
	.st41{fill:#994710;}
	.st42{fill:#CC5121;}
	.st43{fill:#662F0A;}
	.st44{fill:#EF8F6F;}
	.st45{fill:#E05858;}
	.st46{opacity:0.25;enable-background:new    ;}
	.st47{opacity:0.2;}
	.st48{fill:#81ACC9;}
	.st49{fill:#F47586;}
	.st50{fill:#6691AD;}
	.st51{fill:#F0F6FF;}
	.st52{fill:#BF4559;}
	.st53{fill:#6B697F;}
	.st54{fill:#FFF3FA;}
	.st55{fill:#7C7ACC;}
	.st56{fill:#4A4A99;}
	.st57{fill:#E2E6ED;}
	.st58{fill:#D89882;}
	.st59{fill:#906454;}
	.st60{fill:#FFC6C5;}
	.st61{fill:#3B2C6D;}
	.st62{fill:#CC3B23;}
	.st63{fill:#A3442E;}
	.st64{fill:#F9BB3D;}
	.st65{fill:#872C1A;}
	.st66{fill:#C14B21;}
	.st67{fill:#466E7C;}
	.st68{fill:#E2511E;}
	.st69{fill:#892910;}
	.st70{fill:#44C1A3;}
	.st71{fill:#7A7A7A;}
	.st72{fill:#E25A24;}
	.st73{fill:#1F7EB2;}
	.st74{fill:#7F5447;}
	.st75{fill:#D36553;}
	.st76{fill:#AD3E17;}
	.st77{fill:none;}
	.st78{fill:#F99048;}
</style>
<g>
	<rect x="3.3" y="15.7" class="st0" width="996.7" height="393.7"/>
	<g>
		<path class="st1" d="M502.1,269.4c-1,1-8-7-7-8c7.5-7.5,15.9-15,16.9-17.4c0.5-2-5.5-13-12-21.4l17.4-11c5,10,13,29.4,12.5,32.9
			C529,249.9,503.6,268.9,502.1,269.4z"/>
		<path class="st2" d="M495.1,259.4c1-1,7-5.5,7.5-6l9.5,12c0,0-8,4-8.5,4.5C500.6,270.4,494.7,261.9,495.1,259.4z"/>
		<g>
			<path class="st3" d="M508.1,270.4c0.5-0.5,1-1.5,1.5-2c0.5-0.5-3-6-4-5c-0.5,0-0.5,0.5-1,0.5c-0.5-1-1-2-1.5-3
				c-1.5-2.5-2.5-4.5-3-6c-2,1-5.5,3.5-7.5,4.5c0,0,10,26.9,15.4,28.9C509.6,288.3,510.1,279.8,508.1,270.4z"/>
			<path class="st4" d="M493.7,258.4c-0.5,0.5-1,0.5-1.5,1c0,0,10,26.9,15.4,28.9c0,0,0.5,0,0.5-0.5
				C503.1,281.3,496.1,264.9,493.7,258.4z"/>
			<path class="st4" d="M509.1,279.3L509.1,279.3c-2.5-3-6-3-8-1l0,0c2.5,4.5,5,8.5,7,9.5C509.1,288.3,509.6,284.8,509.1,279.3z"/>
			<path class="st5" d="M505.1,271.9L505.1,271.9c0-0.5,0-0.5,0.5-0.5c1.5,0.5,3,1.5,4,3v0.5h-0.5
				C508.1,273.9,507.6,272.9,505.1,271.9L505.1,271.9z"/>
			<path class="st5" d="M505.6,274.4C505.1,274.4,505.1,273.9,505.6,274.4c0-0.5,0-0.5,0.5-0.5c1.5,0.5,3.5,2,4,3.5v0.5h-0.5
				C508.6,275.8,507.1,274.9,505.6,274.4L505.6,274.4z"/>
		</g>
		<path class="st1" d="M440.3,225.5c-1-1,6-8.5,7-7.5c8.5,6.5,16.9,14,19.4,14.5c2,0.5,6-13.5,11-21.9l14,13
			c-6,10-17.4,27.4-21.4,27.4C465.2,250.4,441.8,226.5,440.3,225.5z"/>
		<path class="st2" d="M450.8,218.5c1,1,6.5,6,7,6.5l-11,11c0,0-5-7.5-6-8C440.3,225.5,448.3,218,450.8,218.5z"/>
		<path class="st1" d="M428.4,158.7c-1-1,0-7.5,1-7c16.4,6,46.3,12.5,55.3,12l-4.5,15.9C473.2,179.2,438.8,168.2,428.4,158.7z"/>
		<path class="st1" d="M419.4,156.2c-0.5,0.5-1.5,0.5-3,1c-1.5,0.5-3.5,0.5-4.5,1.5c-1,1,0,1.5,2,1.5c3,0.5,9.5,1,13,1
			c5.5,0.5,11-3,11-8c0.5-7,0-9.5,0-14c0-1-2.5,0-3,1c-1.5,3-1,4-1.5,5.5c-1,1.5-2,1-3.5,0c-5-6-7.5-10-10-9.5c-2,0.5,1,5,4.5,10
			c-6-4-11-6.5-12-5c-1,2,3,5.5,8,8.5c-5.5,0-11-1.5-11.5,0.5C408.4,153.3,420.4,154.7,419.4,156.2z"/>
		<path class="st6" d="M464.3,160.2c-1.5,7,4.5,21.9,6,22.4c0,0,5.5-0.5,8.5-3.5c5-6,4.5-15.4,4.5-16.4
			C476.2,161.7,464.3,160.2,464.3,160.2z"/>
		<path class="st1" d="M565.4,158.7c1-1,0-7.5-1-7c-16.4,6-46.3,12.5-55.3,12l4.5,15.9C520.6,178.7,555,168.2,565.4,158.7z"/>
		<path class="st1" d="M574.4,156.2c0.5,0.5,1.5,0.5,3,1c1.5,0.5,3.5,0.5,4.5,1.5c1,1,0,1.5-2,1.5c-3,0.5-9.5,1-13,1
			c-5.5,0.5-11-3-11-8c-0.5-7,0-9.5,0-14c0-1,2.5,0,3,1c1.5,3,1,4,1.5,5.5c1,1.5,2,1,3.5,0c5-6,7.5-10,10-9.5c2,0.5-1,5-4.5,10
			c6-4,11-6.5,12-5c1,2-3,5.5-8,8.5c5.5,0,11-1.5,11.5,0.5C585.4,152.8,573.4,154.7,574.4,156.2z"/>
		<path class="st6" d="M529.5,160.2c1.5,7-4.5,21.9-6,22.4c0,0-5.5-0.5-8.5-3.5c-5-6-4.5-15.4-4.5-16.4
			C517.6,161.7,529.5,160.2,529.5,160.2z"/>
		<path class="st3" d="M474.2,200.1c0,0-8.5,17.9-12.5,26.4c5.5,3.5,21.4,10.5,28.4,12.5c4-13,5.5-14.5,7.5-14c2,0.5,2.5,1.5,3,15.4
			c7,0.5,24.4-1,30.4-2.5c-1-8.5-5.5-28.4-6.5-33.4c0,0-7,3-26.9,0C486.2,203.1,474.2,200.1,474.2,200.1z"/>
		<path class="st7" d="M528.5,221.5c-3.5,0.5-7.5-2.5-9-7.5c-1-3.5-0.5-7,0.5-9.5c3,0.5,5,0.5,5,0.5S526.5,213.1,528.5,221.5z"/>
		<path class="st7" d="M467.2,215c3.5,2,8,0,10.5-4.5c2-3,2.5-6.5,1.5-9.5c-3-0.5-5-1-5-1S470.7,207.1,467.2,215z"/>
		<path class="st8" d="M526,209.1c-5,3-10.5,8-27.9,8s-25.9-4.5-29.4-6.5c0,0,8.5-36.4,11-45.4c8,0.5,25.4,0.5,32.9,0
			C516.6,172.7,525.6,209.1,526,209.1z"/>
		<path class="st9" d="M526,205.6c-5,3-10.5,8-27.9,8s-25.9-4.5-29.4-6.5c0,0,8.5-36.4,11-45.4c8,0.5,25.4,0.5,32.9,0
			C516.6,169.2,525.6,205.6,526,205.6z"/>
		<path class="st10" d="M490.7,239.5c0.5-1,2-5.5,2.5-6.5l-30.4-12.5c0,0-2.5,5.5-2.5,6.5C463.8,230.5,486.2,240,490.7,239.5z"/>
		<path class="st10" d="M531.5,239c0-1,0-6,0-7l-31.9,2c0,0-0.5,6,0,7C503.6,243,528,241,531.5,239z"/>
		<path class="st6" d="M507.1,164.2c0-0.5,0-1.5-0.5-2c-6.5,0-14.5,0.5-20.9,0c0,0.5-0.5,1.5-0.5,2c0,4.5,5,8,11,8
			S507.1,168.7,507.1,164.2z"/>
		<path class="st11" d="M487.7,152.3v12.5c0,2.5,3.5,5,8.5,5c4.5,0,8.5-2,8.5-5v-12.5H487.7z"/>
		<g>
			<path class="st12" d="M546.5,98.4c0,29.9-21.9,43.9-52.3,43.9s-52.8-13.5-52.8-43.9c0-29.9,22.4-36.9,52.8-36.9
				C525.1,61.6,546.5,68.5,546.5,98.4z"/>
			<path class="st13" d="M436.8,125.8c3,10.5,13.5,17.4,20.9,16.4c8-1,9.5-10,8-19.9c-1.5-10.5-9-17.9-16.9-16.4
				C438.3,106.4,434.3,115.9,436.8,125.8z"/>
			
				<ellipse transform="matrix(0.9904 -0.1382 0.1382 0.9904 -13.1682 63.9286)" class="st14" cx="453.8" cy="126.8" rx="7.5" ry="8.5"/>
			<path class="st13" d="M555,125.8c-3,10.5-13.5,17.4-20.9,16.4c-8-1-9.5-10-8-19.9c1.5-10.5,9-17.9,16.9-16.4
				C553.5,106.4,557.4,115.9,555,125.8z"/>
			
				<ellipse transform="matrix(0.1382 -0.9904 0.9904 0.1382 337.988 641.7904)" class="st14" cx="537.8" cy="126.7" rx="8.5" ry="7.5"/>
			<path class="st1" d="M537,77.5c2.5,6,1,59.8-5,67.3c-6.5,8-23.9,15.4-35.9,15.4c-15.9,0-32.9-7-37.9-15.4
				c-6-10.5-8.5-57.8-6.5-63.8c6.5-18.9,22.4-19.9,43.4-19.9C515.1,61.6,530,62,537,77.5z"/>
			<ellipse class="st15" cx="467.2" cy="136.3" rx="9" ry="9.5"/>
			<path class="st12" d="M518.6,50.1c-23.4-6.5-31.4-8.5-56.8,10.5c-1.5,1,2.5,8.5-4,7c-4.5-0.5-13,5.5-15.4,14.5s-2,21.4,2,23.4
				c4,2,11.5-3.5,15.9-12.5c2.5-4.5,3.5-9.5,3.5-13c3,4,8,8.5,13.5,12c13,8.5,25.9,11,28.9,6c1-1,1-3,0.5-4.5c0.5,0,1.5,0.5,2,0.5
				c23.9,5.5,45.9,0,48.3-12C560.4,69.5,537.5,55.1,518.6,50.1z"/>
			<g>
				<path class="st16" d="M510.6,136.3c0,6.5-7.5,12-15.9,12s-15.9-5.5-15.9-12s7.5-5.5,16.4-6C504.1,129.8,510.6,129.8,510.6,136.3
					z"/>
				<path class="st17" d="M495.6,141.8c-5,0-9,1.5-11.5,3.5c3,2,6.5,3,10.5,3c4.5,0,8.5-1.5,11.5-3.5
					C503.6,143.3,500.1,141.8,495.6,141.8z"/>
				<path class="st0" d="M506.1,130.8c-3-0.5-7-0.5-11.5,0c-5,0-9.5,0-13,1c1.5,2.5,6,4.5,12,4.5
					C500.6,135.8,505.6,133.3,506.1,130.8z"/>
			</g>
			<ellipse class="st15" cx="524.1" cy="135.8" rx="9" ry="9.5"/>
			<path class="st18" d="M470.2,97.4h-0.5c-0.5-0.5-1-1-0.5-2c1-2.5,3.5-4.5,7-5c3-0.5,6.5,0.5,8.5,3c0.5,0.5,0.5,1.5,0,2
				s-1.5,0.5-2,0c-1.5-1.5-3.5-2.5-6-2c-2,0.5-4,1.5-4.5,3C471.2,96.9,470.7,97.4,470.2,97.4z"/>
			<path class="st18" d="M518.6,96.4c-0.5,0-1-0.5-1.5-1c-0.5-1.5-2.5-3-4.5-3c-2.5-0.5-4.5,0.5-6,2c-0.5,0.5-1.5,0.5-2,0
				c-0.5-0.5-0.5-1.5,0-2c2-2.5,5-3.5,8.5-3c3,0.5,5.5,2.5,7,5c0.5,0.5,0,1.5-0.5,2C518.6,96.4,518.6,96.4,518.6,96.4z"/>
			<path class="st14" d="M498.6,128.3C498.1,128.3,498.1,128.3,498.6,128.3c-0.5-2-2-3-3.5-3s-3,1-3,2.5l-0.5,0.5l-0.5-0.5
				c0.5-2,2-3,4-3s3.5,1.5,4,3C499.1,128.3,498.6,128.3,498.6,128.3L498.6,128.3z"/>
			<path class="st0" d="M484.2,124.3c0,0-10,3.5-15.9,0.5c-2.5-1-4.5-3.5-5-7.5c-0.5-6,5.5-10,9.5-9.5c4.5,0,8.5,4,10.5,9
				C484.2,119.4,484.7,121.9,484.2,124.3z"/>
			<path d="M468.2,124.8c-2.5-1.5-4-3-4.5-7c-0.5-4,2.5-10.5,9.5-9.5c4.5,0.5,8,3,11,9.5c-1-3-3.5-8.5-8-10c-8.5-3-14.5,3.5-13,9.5
				C463.3,122.8,466.7,124.8,468.2,124.8z"/>
			<path class="st0" d="M505.6,124.3c0,0,10,3.5,15.9,0.5c2.5-1,4.5-3.5,5-7.5c0.5-6-5.5-10-9.5-9.5c-4.5,0-8.5,4-10.5,9
				C505.6,119.4,505.1,121.9,505.6,124.3z"/>
			<path d="M521.6,124.8c2.5-1.5,4-3,4.5-7c0.5-4-2.5-10.5-9.5-9.5c-4.5,0.5-8,3-11,9.5c1-3,3.5-8.5,8-10c8.5-3,14.5,3.5,13,9.5
				C526,122.8,522.6,124.8,521.6,124.8z"/>
			<g>
				
					<ellipse transform="matrix(0.9291 -0.3698 0.3698 0.9291 -10.057 183.3434)" class="st19" cx="473.2" cy="117.9" rx="6" ry="6"/>
				
					<ellipse transform="matrix(0.9291 -0.3697 0.3697 0.9291 -8.8987 184.4263)" class="st20" cx="476.7" cy="115.4" rx="1.5" ry="1.5"/>
				
					<ellipse transform="matrix(0.9291 -0.3698 0.3698 0.9291 -7.0439 199.0047)" class="st19" cx="515.5" cy="117.9" rx="6" ry="6"/>
				
					<ellipse transform="matrix(0.9291 -0.3697 0.3697 0.9291 -5.8894 200.0842)" class="st20" cx="519.1" cy="115.4" rx="1.5" ry="1.5"/>
			</g>
			<g>
				<path class="st21" d="M520.6,133.8c-11.5,0-20.9-9.5-20.9-20.9S509.1,92,520.6,92c11.5,0,20.9,9.5,20.9,20.9
					C542,124.3,532.5,133.8,520.6,133.8z M520.6,93.4c-10.5,0-19.4,8.5-19.4,19.4c0,10.5,8.5,19.4,19.4,19.4
					c10.5,0,19.4-8.5,19.4-19.4C540,102.4,531.5,93.4,520.6,93.4z"/>
				<path class="st21" d="M488.7,120.4C488.2,120.4,488.2,120.4,488.7,120.4c-1,0-1-0.5-1-1c0.5-2,3.5-3.5,6.5-4c3,0,6.5,0.5,8,4
					c0,0.5,0,1-0.5,1c-0.5,0-1,0-1-0.5c-1.5-2.5-4-3-6.5-3s-4.5,1.5-5,2.5C489.2,120.4,488.7,120.4,488.7,120.4z"/>
				<path class="st21" d="M469.2,133.8c-11.5,0-20.9-9.5-20.9-20.9S457.8,92,469.2,92c11.5,0,20.9,9.5,20.9,20.9
					C490.7,124.3,480.7,133.8,469.2,133.8z M469.2,93.4c-10.5,0-19.4,8.5-19.4,19.4c0,10.5,8.5,19.4,19.4,19.4
					c10.5,0,19.4-8.5,19.4-19.4C488.7,102.4,479.7,93.4,469.2,93.4z"/>
			</g>
		</g>
		<g>
			<path class="st3" d="M441.3,232.5c0.5,0.5,1.5,1,2,1.5s5.5-3.5,4.5-5c0-0.5-0.5-0.5-0.5-1c1-0.5,2-1.5,3-2c2-1.5,4.5-3,6-3.5
				c-1.5-2-4-5-5.5-7c0,0-25.4,13.5-26.4,18.9C423.9,236,432.4,235.5,441.3,232.5z"/>
			<path class="st4" d="M451.8,217c-0.5-0.5-0.5-1-1-1.5c0,0-25.4,13.5-26.4,18.9c0,0,0,0.5,0.5,0.5C429.4,229,445.3,220,451.8,217z
				"/>
			<path class="st4" d="M432.4,235C432.4,234.5,432.9,234.5,432.4,235c2.5-3,2.5-6.5,0-8l0,0c-4.5,3-8,6-8.5,8
				C423.9,235.5,427.4,236,432.4,235z"/>
			<path class="st5" d="M439.3,230L439.3,230c0.5,0,0.5,0,0.5,0.5c0,1.5-1,3-2.5,4h-0.5V234C437.8,233,438.8,232,439.3,230
				L439.3,230z"/>
			<path class="st5" d="M437.3,230.5C437.3,230.5,437.3,230,437.3,230.5c0.5,0,0.5,0,0.5,0.5c-0.5,2-1.5,3.5-3,4.5h-0.5V235
				C435.8,233.5,436.8,232,437.3,230.5C436.8,230.5,436.8,230.5,437.3,230.5z"/>
		</g>
	</g>
	<g>
		<path class="st1" d="M285.8,303.3c0.5,1.5,10.5-2,10-3.5c-3-10.5-6.5-21.9-6-23.9c0.5-2,8-11,16.9-19.9l-12.5-14
			c-9.5,10.5-18.9,23.9-20.4,27.4C272.9,274.4,285.3,301.8,285.8,303.3z"/>
		<path class="st2" d="M297.3,298.3c-0.5-1-3-7-3-8l-15,6c0,0,4.5,6.5,5,7.5C286.3,304.8,296.8,300.3,297.3,298.3z"/>
		<g>
			<path class="st22" d="M280.4,301.3c0-0.5,0-2-0.5-2.5c0-0.5,5.5-4,6.5-2.5c0,0.5,0.5,0.5,0.5,1c1-0.5,2-1,3-2c2.5-1.5,4.5-3,6-4
				c1,2,3,5.5,4.5,8c0,0-22.9,18.9-28.9,17.4C269.4,316.2,273.4,308.2,280.4,301.3z"/>
			<path class="st23" d="M299.3,297.8c0.5,0.5,0.5,1,1,1.5c0,0-22.9,18.9-28.9,17.4c0,0-0.5,0-0.5-0.5
				C278.9,313.7,293.3,302.3,299.3,297.8z"/>
			<path class="st5" d="M281.8,303.8C281.8,303.8,282.3,303.8,281.8,303.8c0.5-0.5,0-0.5,0-0.5c-1.5-0.5-3.5,0-5,1v0.5h0.5
				C277.9,304.3,279.4,303.3,281.8,303.8C281.8,304.3,281.8,304.3,281.8,303.8z"/>
			<path class="st5" d="M280.4,305.8C280.8,305.8,280.8,305.8,280.4,305.8c0.5-0.5,0-0.5,0-0.5c-2-0.5-4,0-5,1v0.5h0.5
				C276.9,305.8,278.9,305.8,280.4,305.8C280.4,306.3,280.4,305.8,280.4,305.8z"/>
		</g>
		<path class="st1" d="M312.7,311.2c-1,1-9-6-8-7.5c7-8.5,15-16.9,15.4-19.4c0.5-2-3-13.5-7-24.9l16.9-7.5c4.5,13.5,7,29.9,7,33.4
			C337.2,290.3,314.2,310.2,312.7,311.2z"/>
		<path class="st24" d="M331.7,246.9l-35.9-9.5c-11,10.5-25.4,29.4-26.9,32.9c-1,3,4.5,14.5,8.5,22.9c4-1.5,12-5.5,15.9-7.5
			c-1-3.5-3.5-8.5-3-10c0.5-2,10.5-11.5,18.9-8.5c9,3.5,12,15,11.5,16.9c-0.5,1.5-4.5,5-7,7.5c3,3.5,8.5,10.5,11.5,13.5
			c7-6,16.9-14,17.4-17.4C342.6,284.3,337.2,260.9,331.7,246.9z"/>
		<path class="st25" d="M274.9,261.4c2,0.5,4,1,6.5,1c8.5-1,14.5-9,14-18.4c0-1.5-0.5-3-1-4.5C287.3,245.9,280.4,254.4,274.9,261.4z
			"/>
		<path class="st25" d="M331.7,246.9l-11-3c-0.5,2-1,4-1,6.5c0.5,7.5,7,13.5,13.5,13c1,0,2-0.5,3-1
			C335.2,256.9,333.7,251.4,331.7,246.9z"/>
		<path class="st26" d="M304.3,263.9c11.5,0,23.4-1.5,31.4-5c-0.5-2.5-3.5-11.5-4.5-13c-1,0.5-46.3,3.5-46.3,3.5s-2.5,2.5-4.5,5
			C286.3,259.4,293.8,263.9,304.3,263.9z"/>
		<path class="st27" d="M276.9,293.8c-0.5-1-1.5-4-2-4.5l17.9-6.5c0,0,2,4,2,4.5C293.3,289.8,279.9,294.8,276.9,293.8z"/>
		<path class="st2" d="M304.8,301.3c0.5-1,5.5-5.5,6-6l11,11.5c0,0-7,4-7.5,4.5C311.7,312.2,304.3,303.8,304.8,301.3z"/>
		<g>
			<path class="st22" d="M319.2,311.2c0.5-0.5,1-1.5,1.5-2.5c0.5-0.5-3.5-6-5-5c-0.5,0-0.5,0.5-1,0.5c-0.5-1-1.5-2-2-3
				c-1.5-2.5-3-4.5-3.5-6c-2,1.5-5,4-7.5,5.5c0,0,13,26.9,18.9,27.9C322.2,329.7,322.2,320.7,319.2,311.2z"/>
			<path class="st23" d="M303.3,300.3c-0.5,0.5-1,0.5-1.5,1c0,0,13,26.9,18.9,27.9c0,0,0.5,0,0.5-0.5
				C315.2,323.2,306.8,306.7,303.3,300.3z"/>
			<path class="st5" d="M316.2,313.2L316.2,313.2c0-0.5,0-0.5,0.5-0.5c2,0.5,3.5,1.5,4,3v0.5h-0.5
				C319.7,315.2,318.7,313.7,316.2,313.2L316.2,313.2z"/>
			<path class="st5" d="M316.7,315.7C316.7,315.7,316.7,315.2,316.7,315.7c0-0.5,0-0.5,0.5-0.5c2,0.5,3.5,1.5,4.5,3v0.5h-0.5
				C320.2,317.2,318.7,316.2,316.7,315.7L316.7,315.7z"/>
		</g>
		<path class="st1" d="M235.5,204.6c-1-0.5-1-8,0-7.5c17.4,3.5,48.3,6,57.8,6.5l-2,14C284.3,218.5,247.5,213.1,235.5,204.6z"/>
		<path class="st1" d="M226,206.1c0,0.5-1,1-3,2c-1.5,0.5-3.5,1.5-4,2.5c-0.5,1,0.5,1.5,2.5,1c3-0.5,9.5-2,13-2.5c5.5-1,10-6.5,9-11
			c-1.5-7-2.5-9.5-3.5-14c-0.5-1-2.5,0.5-3,2c-0.5,3,0.5,4,0,5.5s-2,1.5-3.5,1c-7-4.5-10-8-12.5-7c-2,1,2.5,5,7,9
			c-7-2-12.5-3.5-13-1.5c-0.5,2,4.5,5,10.5,6c-5.5,1.5-11,1.5-11,4C214.1,205.6,226.5,204.1,226,206.1z"/>
		<path class="st28" d="M272.4,199.6c-0.5,7,0.5,21.4,2,21.9c0,0,12,1,15-2.5c5-6.5,4-15.4,4-16.4
			C286.3,202.6,272.4,199.6,272.4,199.6z"/>
		<path class="st1" d="M370.6,173.7c0.5-1-3.5-7-4.5-6c-12,13.5-36.4,33.9-44.9,37.4l12,12C339.7,214.1,366.1,187.1,370.6,173.7z"/>
		<path class="st1" d="M379.5,174.2c0.5,0.5,1.5,1,3,1.5c1.5,0.5,4,1,4.5,2c1,1-0.5,1.5-2,1.5c-3,0-10,0-13.5-0.5c-6,0-11-4.5-11-9
			c0.5-7,1-10,1.5-14.5c0-1,2.5,0,3,1.5c1,3,0.5,4,1,5.5c0.5,1.5,2,1.5,3.5,0.5c6-5.5,8.5-9.5,11-9c2,1-1.5,5.5-5.5,10
			c6.5-3.5,12-5.5,12.5-4c1,2-3.5,5.5-9.5,8c6,0.5,11-0.5,11.5,2C391,171.7,378.5,172.7,379.5,174.2z"/>
		<path class="st28" d="M338.7,192.1c5,5.5,6.5,21.9,5.5,23.4c0,0-14.5,4.5-16.4,4c-8-1-10.5-15.4-11.5-16.4
			C327.7,202.1,338.7,192.1,338.7,192.1z"/>
		<path class="st28" d="M340.7,249.9c-5,3.5-12.5,10-30.9,10c-18.4,0-26.9-4.5-30.4-7c0,0,6.5-16.4,11-50.8c8.5,0.5,26.4,0,34.4-0.5
			C328.2,210.1,340.2,249.9,340.7,249.9z"/>
		<path class="st11" d="M298.3,192.6l0.5,13c0,3,4,5,9,4.5c5,0,8.5-2.5,8.5-5.5l-0.5-13L298.3,192.6z"/>
		<path class="st27" d="M325.2,306.3c0.5-0.5,3-3,3.5-3.5l-13.5-13.5c0,0-3.5,3-4,3.5C312.2,295.8,322.2,305.8,325.2,306.3z"/>
		<g>
			<path class="st29" d="M242.5,175.7c3.5,10,14.5,15.4,21.4,13.5c7.5-1.5,8-10.5,5.5-19.9c-2.5-10-10-16.4-17.4-14.5
				C242.5,157.7,239,166.7,242.5,175.7z"/>
			<ellipse transform="matrix(0.9735 -0.2287 0.2287 0.9735 -33.3378 63.7632)" class="st30" cx="258.4" cy="175.7" rx="7" ry="8"/>
			<path class="st29" d="M369.6,164.2c-2,10.5-11,17.9-18.9,17.4c-7.5-0.5-10-8.5-9.5-18.4c0.5-10,7-17.9,14.5-17.4
				C366.1,145.8,371.1,154.2,369.6,164.2z"/>
			
				<ellipse transform="matrix(4.618835e-02 -0.9989 0.9989 4.618835e-02 169.9977 511.6837)" class="st30" cx="352.9" cy="166.8" rx="8" ry="7"/>
			<path class="st31" d="M355.6,131.8c3,31.9-17.9,48.8-48.8,51.3c-30.9,3-55.3-9.5-58.3-41.4s18.9-41.9,50.3-44.4
				C329.7,93.9,352.6,99.4,355.6,131.8z"/>
			<path class="st32" d="M353.1,143.3c3.5,37.4-15.4,56.3-43.9,59.3c-28.4,2.5-50.8-12.5-54.3-49.8c-3.5-37.4,17.4-40.4,45.9-43.4
				C329.2,106.4,349.6,105.4,353.1,143.3z"/>
			
				<ellipse transform="matrix(0.9957 -9.215906e-02 9.215906e-02 0.9957 -9.3045 29.2195)" class="st31" cx="311.7" cy="115.4" rx="33.9" ry="12.5"/>
			
				<ellipse transform="matrix(0.9957 -9.217140e-02 9.217140e-02 0.9957 -14.7609 31.6871)" class="st33" cx="335.7" cy="175.6" rx="9" ry="9"/>
			
				<ellipse transform="matrix(0.9957 -9.214482e-02 9.214482e-02 0.9957 -15.4609 26.4155)" class="st33" cx="278.3" cy="180.6" rx="9" ry="9"/>
			<g>
				<path class="st34" d="M316.2,150.8c-3,5.5-2,11,1.5,13c5,2.5,15.9,2.5,19.4-2.5c3.5-5,1-13-6-15.4
					C325.2,143.3,319.2,145.8,316.2,150.8z"/>
				<path class="st35" d="M336.2,147.8c-6-7.5-17.4-3.5-19.9,3.5c3-5.5,9-7.5,14.5-5.5c3.5,1.5,6,4.5,7,8c1,2.5,0.5,6-1,8
					C338.2,160.2,340.7,152.8,336.2,147.8z"/>
				
					<ellipse transform="matrix(0.2826 -0.9592 0.9592 0.2826 82.7174 423.3819)" class="st19" cx="324.4" cy="156.4" rx="7" ry="7"/>
				
					<ellipse transform="matrix(0.2826 -0.9592 0.9592 0.2826 81.9727 417.7565)" class="st20" cx="320.3" cy="154.1" rx="2" ry="2"/>
			</g>
			<g>
				<path class="st34" d="M291.8,153.3c4,5,4,10.5,1,13c-4.5,3.5-15,5.5-19.4,1c-4.5-4-3-12.5,3-16.4
					C281.3,147.3,287.8,148.8,291.8,153.3z"/>
				<path class="st35" d="M271.4,153.7c4.5-8.5,16.4-6.5,20.4,0c-4-5-10.5-6-15.4-2.5c-3,2-5,5.5-5.5,9c-0.5,3,0.5,6,2.5,7.5
					C271.4,166.2,268.4,159.7,271.4,153.7z"/>
				<ellipse transform="matrix(0.2826 -0.9592 0.9592 0.2826 50.4878 387.5824)" class="st19" cx="284.4" cy="160" rx="7" ry="7"/>
				
					<ellipse transform="matrix(0.2827 -0.9592 0.9592 0.2827 49.7281 381.9736)" class="st20" cx="280.3" cy="157.7" rx="2" ry="2"/>
			</g>
			<path class="st31" d="M335.7,137.8c-0.5,0-0.5,0-1-0.5c-3.5-2.5-10-3-15-0.5c-0.5,0.5-1.5,0-2-0.5c-0.5-0.5,0-1.5,0.5-2
				c6-3,13.5-2.5,17.4,1c0.5,0.5,0.5,1.5,0.5,2C336.2,137.8,336.2,137.8,335.7,137.8z"/>
			<path class="st31" d="M270.4,143.8c-0.5,0-1,0-1-0.5c-0.5-0.5-0.5-1.5,0-2c4-4,11-6,17.4-4c0.5,0,1,1,1,1.5c0,0.5-1,1-1.5,1
				c-5-1.5-11.5,0-14.5,3.5C270.9,143.8,270.4,143.8,270.4,143.8z"/>
			<path class="st14" d="M309.3,168.7c0,0-0.5,0-0.5-0.5c-0.5-1.5-2-2.5-3.5-2.5c-2,0-3,1.5-3,3c0,0.5,0,0.5-0.5,0.5
				c-0.5,0-0.5,0-0.5-0.5c0-2,2-4,4-4c2,0,4,1,4.5,3C309.8,168.2,309.8,168.7,309.3,168.7L309.3,168.7z"/>
			<g>
				<path class="st36" d="M324.2,177.7c0.5,8-8,14.5-18.4,14.5c-10.5,0.5-18.9-8.5-19.4-13.5c-1-9,9-5.5,19.4-6.5
					C316.2,171.7,323.7,170.2,324.2,177.7z"/>
				<path class="st0" d="M305.8,172.7c-5.5,0.5-10.5,0-14.5,0.5c2,3,7.5,5,14,5s12-2.5,13.5-6C315.7,171.2,310.8,172.2,305.8,172.7z
					"/>
				<path class="st17" d="M308.8,184.1c-6.5,0-12,2-15,5c3.5,2,7.5,3.5,11.5,3.5c6,0,11.5-2.5,14.5-5.5
					C317.7,185.1,313.2,184.1,308.8,184.1z"/>
			</g>
		</g>
		<polygon class="st37" points="308.3,216.5 312.2,223 319.7,224 314.7,229.5 316.7,237 309.8,233.5 303.3,237.5 303.8,230 
			298.3,225 305.8,223.5 		"/>
	</g>
	<g>
		<path class="st38" d="M147.8,293.3c-35.9,14-49.8,1-52.8-3.5c4.5-7.5,9.5-25.4,11.5-35.9c8,0.5,15-1,27.4-2
			C139.8,259.4,146.3,288.3,147.8,293.3z"/>
		<path class="st39" d="M115.9,241v12.5c0,2.5,3.5,5,8,5c4.5,0,8-2,8-5V241H115.9z"/>
		<g>
			<g>
				<path class="st40" d="M169.2,206.6c0.5,10.5-3.5,18.4-8,19.4c-4.5,0.5-7.5-7-8.5-16.9c-1.5-9.5,1-17.9,5.5-18.9
					C164.2,189.1,168.7,196.6,169.2,206.6z"/>
				<path class="st39" d="M164.2,212.6c-0.5,4-3,7-5.5,6c-2.5-1-4-5-3-9c0.5-4,3-7,5.5-6C163.7,204.1,164.7,208.1,164.2,212.6z"/>
				<path d="M155.8,183.7c5,31.9-13,49.3-40.9,53.3c-27.9,4.5-50.3-7-55.3-38.9s16.9-44.9,44.9-48.8
					C132.8,145.3,150.8,152.3,155.8,183.7z"/>
				<path class="st40" d="M150.3,169.2c1,1,2,2,2,5.5c1.5,24.4,7,26.4,9.5,41.4c2.5,15-5.5,25.4-17.4,29.9
					c-11.5,4.5-41.9,10.5-62.8-16.9c-9-11.5-12.5-38.4-11.5-43.9c4-18.4,13.5-17.9,36.4-21.4C127.4,160.2,136.8,159.7,150.3,169.2z"
					/>
				<path d="M87.5,202.1c3,9.5,7,20.4-5,22.9c-11,2.5-13.5-12.5-15-27.9s-1-30.4,30.4-30.4C109.4,167.2,79.5,176.7,87.5,202.1z"/>
				<path class="st40" d="M61.1,228.5c5,9.5,16.4,13.5,23.9,11c7-3,6.5-11.5,3-20.9c-3.5-9.5-12.5-15-19.4-12
					C58.1,210.1,56.1,219.5,61.1,228.5z"/>
				<path class="st41" d="M73.5,229c2.5,4,8,5,10,3.5c2-2,1.5-4.5,0-9c-2-5-5-7.5-8.5-5.5C71.5,220,70.5,224.5,73.5,229z"/>
				
					<ellipse transform="matrix(0.9885 -0.1511 0.1511 0.9885 -34.1457 18.5416)" class="st42" cx="104.9" cy="234" rx="10" ry="10"/>
				
					<ellipse transform="matrix(0.9885 -0.1511 0.1511 0.9885 -32.2694 25.4404)" class="st42" cx="151.3" cy="225.1" rx="7" ry="8.5"/>
				<g>
					<path class="st34" d="M139.3,216.5c0,0,11.5,2.5,14.5-5c3.5-9-5-14-9.5-12C139.8,201.6,136.3,207.1,139.3,216.5z"/>
					<path d="M152.8,201.6c-2.5-2.5-5-3-8-2.5c-3,1-5.5,3.5-6,6.5c1-3,3.5-4.5,5.5-5.5c2.5-1,6.5,0,8.5,2.5c2,2.5,2.5,6.5,1,9.5
						C155.3,209.6,155.3,204.1,152.8,201.6z"/>
					<path class="st19" d="M138.8,208.1c-0.5,3,1,6,4,7c2.5,1,5-1,5.5-4c0.5-3-1-6-4-7C142.3,203.1,139.3,205.1,138.8,208.1z"/>
					<path class="st20" d="M139.3,207.1c0,1,0.5,1.5,1,2c0.5,0,1.5-0.5,1.5-1c0-1-0.5-1.5-1-2S139.3,206.1,139.3,207.1z"/>
				</g>
				<g>
					<path class="st34" d="M118.4,220c0,0-12,6-17.9,0c-7-7,1-15,7-14.5C113.4,205.6,118.9,209.6,118.4,220z"/>
					<path d="M97.9,209.6c2-3.5,5-4.5,8.5-5c3.5,0,7.5,2,9,4c-2.5-2.5-5.5-3-8-3.5c-3.5,0-7.5,2-9,5s-0.5,6.5,2,9.5
						C97.9,218.5,96.5,213.1,97.9,209.6z"/>
					
						<ellipse transform="matrix(0.2252 -0.9743 0.9743 0.2252 -124.8926 272.1312)" class="st19" cx="108.7" cy="214.6" rx="5.5" ry="5.5"/>
					
						<ellipse transform="matrix(0.2253 -0.9743 0.9743 0.2253 -126.0087 267.6289)" class="st20" cx="105.3" cy="213.1" rx="1.5" ry="1.5"/>
				</g>
				<path class="st43" d="M135.8,220.5C135.3,220.5,135.3,220,135.8,220.5c-1-1.5-2-2.5-3.5-2c-1.5,0-2.5,1.5-2.5,2.5
					c0,0,0,0.5-0.5,0.5c0,0-0.5,0-0.5-0.5c0-2,1.5-3,3-3.5c2-0.5,3.5,0.5,4,2.5C136.3,220,135.8,220,135.8,220.5L135.8,220.5z"/>
				<g>
					<path class="st36" d="M141.8,228.5c0,5-6,9.5-13,9.5c-7,0-13-4-13-9.5c0-5,6-4,13-4.5C136.3,223.5,141.8,223.5,141.8,228.5z"/>
					<path class="st0" d="M137.8,224c-2.5-0.5-5,0-8.5,0c-3.5,0-7,0-9.5,0.5c2,3,5.5,5,9,5C132.3,229,135.3,227,137.8,224z"/>
					<path class="st44" d="M132.3,234c-5-1-10-0.5-13,1.5c2.5,1.5,5.5,3,9.5,3c3.5,0,6.5-1,8.5-2.5C135.8,235,134.3,234.5,132.3,234
						z"/>
				</g>
				<path d="M154.3,182.2c0-0.5-0.5-1-1-1.5c-4.5-2.5-11-2-15.9,1c-0.5,0.5-1,1-1,1.5s0,1,0.5,1.5c0.5,0.5,1,1,2,1c0.5,0,1,0,1-0.5
					c3.5-2,8.5-2.5,11.5-1c0.5,0.5,1,0.5,1.5,0c0.5,0,1-0.5,1.5-1C154.3,183.7,154.3,182.7,154.3,182.2z"/>
				<path d="M110.4,187.6c-0.5-0.5-0.5-1-1.5-1c-5.5-1.5-12,0-15.4,3.5c-0.5,0.5-0.5,1-0.5,1.5s0.5,1,0.5,1.5c0.5,0.5,1,0.5,1.5,0.5
					l0,0c0.5,0,1-0.5,1.5-0.5c2.5-2.5,7-3.5,11-2.5c1,0.5,2.5-0.5,2.5-1.5C110.4,188.6,110.4,188.1,110.4,187.6z"/>
			</g>
			<path d="M45.6,175.2c0.5-1.5,1.5-2.5,2.5-3.5c-3.5-3-8-5-9-11.5c-1-5,3.5-7,3.5-9c-5-2.5-7.5-8.5-6-13.5c1.5-5,7.5-8,13-6
				c0.5-2,1.5-4,2.5-5c2.5-2,5,0,6.5,4c1.5-2.5,3.5-4.5,5.5-5.5c4.5-2.5,8.5,0.5,10,7c3.5-3,8-4.5,11.5-3.5c2,0.5,10.5,9.5,1,24.4
				c-1,1.5,3.5,3,8,5c0,0.5-0.5,1-0.5,1.5c-2,0,1.5,15-0.5,15.9c-6,3.5-13.5-2.5-10,3.5c0.5,1,1,1.5,2,2c-1.5,2-2.5,4-3.5,6
				c-4.5,1-8.5-10.5-10.5-12.5c-2.5,4.5-16.4,11.5-20.4,10C47.1,182.7,43.6,181.2,45.6,175.2z"/>
			<path class="st45" d="M92.5,143.8c-12,7.5-25.9,21.4-32.4,38.9C54.1,164.2,77,141.8,92.5,143.8z"/>
			<path d="M74,182.2c-1,1.5-1,3.5-0.5,5.5c1,3.5,5,5.5,8.5,4.5c3.5-1,5-5,4-8.5c-0.5-2-2-3.5-4-4c0.5-0.5,1-1.5,1.5-2.5
				c1.5-0.5,3-1,4-2.5c1-2,1-4-0.5-6.5h0.5c1-0.5,1.5-1,2-1.5c2,6,8.5,9,14,7c2-0.5,3.5-2,5-3.5c3,1.5,6.5,1.5,9.5,0.5
				c2-0.5,3.5-1.5,4.5-3c1,2,3,3,5,3c0,0.5,0,1.5,0.5,2c1.5,4.5,7,7,11.5,5.5c1.5-0.5,2.5-1,3.5-2c1,3,4.5,4.5,7.5,3.5
				c3-1,4.5-4.5,3.5-7.5c0,0,0-0.5-0.5-0.5l0,0c6-2,8.5-8.5,6.5-14.5c-1.5-5-6-8-11-8c1-3,1-7-0.5-10.5c-3-6.5-10.5-9-16.4-6
				c-1.5,0.5-2.5,1.5-3.5,2.5c-3-2-6.5-2.5-10-1.5c-1,0.5-1.5,0.5-2.5,1c0-0.5,0-1-0.5-2c-1-3-4.5-4.5-7.5-3.5c-1.5,0.5-3,2-3.5,3.5
				c-7-3.5-15.9-1-19.9,6c-3,5.5-2.5,12,0.5,16.9c-1,0-2,0-3,0c-0.5,0-0.5,0.5-1,0.5c0-1-0.5-2-1-2.5c-1.5-2.5-5.5-3.5-8-1.5
				c-2,1.5-3,4-2.5,6.5c-2,0.5-3.5,1-4.5,2.5c-2,3,0.5,8,5,11.5c-2.5,1.5-3.5,3.5-3,5.5C69.5,180.7,71.5,181.7,74,182.2z"/>
		</g>
		<path class="st46" d="M54.6,235.5c-0.5,0.5-1.5,0.5-3.5,0.5c-1.5,0-4,0-5,1s0,1.5,2,2c3,1,10,2.5,14,3c6,1.5,12.5-2,13.5-7
			c1.5-7.5,1.5-10.5,2.5-15c0-1-2.5-0.5-3.5,1c-2,3-1.5,4-2.5,5.5c-1,1.5-2.5,1-4-0.5c-4.5-7.5-6.5-12-9.5-12c-2.5,0.5,0,6,3.5,12
			c-6-5-11-8.5-12-7c-1.5,2,2.5,6.5,7.5,10.5c-6-1-11.5-3-12.5-1C43.1,230.5,56.1,234,54.6,235.5z"/>
		<path class="st40" d="M53.6,240.5c-0.5,0.5-1.5,0.5-3.5,0.5c-1.5,0-4,0-5,1s0,1.5,2,2c3,1,10,2.5,14,3c6,1.5,12.5-2,13.5-7
			c1.5-7.5,1.5-10.5,2.5-15c0-1-2.5-0.5-3.5,1c-2,3-1.5,4-2.5,5.5c-1,1.5-2.5,1-4-0.5c-4.5-7.5-6.5-12-9.5-12c-2.5,0.5,0,6,3.5,12
			c-6-5-11-8.5-12-7c-1.5,2,2.5,6.5,7.5,10.5c-6-1-11.5-3-12.5-1C42.1,235,54.6,238.5,53.6,240.5z"/>
		<path class="st40" d="M67,236.5c-1.5,2.5-3.5,5-5.5,7c14.5,11,28.4,21.4,45.4,27.4c1.5-5.5,2.5-11,4-15.9
			C95.5,250.9,81.5,244.5,67,236.5z"/>
		<path class="st38" d="M76,240.5c-1.5,2.5-5,8-6.5,10.5c12,10,26.4,17.4,39.9,21.9c1.5-5.5,0.5-13.5,2.5-18.9
			C99.4,250.9,86.5,245.9,76,240.5z"/>
		<path class="st40" d="M193.1,248.4c0.5,0.5,1.5,1,3.5,1.5c1.5,0.5,4,1.5,4.5,2.5c1,1-0.5,1.5-2.5,1.5c-3,0-10.5-0.5-14-1.5
			c-6,0-11.5-5-11-10c0.5-7.5,1.5-10.5,2-15c0-1,2.5,0.5,3,2c1,3.5,0,4.5,1,6c0.5,1.5,2,1.5,4,0.5c6.5-5.5,9.5-9.5,12.5-8.5
			c2,1-2,5.5-6.5,10.5c7-3,13-5,13.5-3.5c1,2-4.5,5.5-10.5,8c6,0.5,12,0.5,12.5,2.5C205.6,246.9,192.1,246.9,193.1,248.4z"/>
		<path class="st40" d="M178.7,239.5c1.5,2.5,3,5,4.5,7.5c-15.4,9.5-30.4,17.9-48.3,22.4c-0.5-5.5-1-11-2-16.4
			C149.3,250.4,163.7,245.4,178.7,239.5z"/>
		<path class="st38" d="M169.7,242.5c1.5,3,4,8.5,5,11.5c-13,8.5-27.9,14.5-41.9,17.4c-1-6,1-13.5-0.5-18.9
			C145.3,249.9,158.7,246.9,169.7,242.5z"/>
		<path class="st40" d="M128.3,353.6c-1.5,0.5-7-7.5-5.5-8.5c8.5-6,17.4-12.5,18.4-14.5c1-1.5-8-12-14-20.4l16.9-9.5
			c5.5,8.5,15,29.4,14,32.9C156.8,338.1,129.8,353.1,128.3,353.6z"/>
		<path class="st2" d="M122.9,343.1c1-0.5,7-4.5,8-5l7.5,13c0,0-8,3-9,3.5C126.9,354.6,121.9,345.1,122.9,343.1z"/>
		<path class="st40" d="M65.6,330.2c-1.5-0.5,2-10,3.5-9.5c10,3,20.4,6.5,22.4,6c2-0.5,5-13.5,8-23.4l17.9,7.5
			c-3.5,9-14.5,29.4-17.9,30.9C95,343.6,66.6,330.7,65.6,330.2z"/>
		<path class="st2" d="M72,320.2c1,0.5,8,3,9,3.5l-6,13.5c0,0-7-5-8-5C65.1,330.2,69.5,320.7,72,320.2z"/>
		<path class="st3" d="M92,291.3c0,0-8,17.9-11.5,26.9c6,3,24.4,8.5,32.4,9.5c3.5-13,5-14.5,7-14.5c2.5,0,2.5,1,4.5,15
			c8,0,26.9-3,33.4-5c-1.5-8-8-26.9-9.5-31.4c0,0-7.5,3.5-29.4,2.5C105.9,293.3,92,291.3,92,291.3z"/>
		<path class="st7" d="M153.8,309.2c-4,1-8.5-1.5-10.5-6.5c-1.5-3.5-1.5-7,0-9.5c3.5,0,5.5,0,5.5,0S151.3,301.3,153.8,309.2z"/>
		<path class="st7" d="M85.5,306.3c4,1.5,8.5-0.5,11-5c2-3,2-6.5,1-9.5c-3.5-0.5-5.5-0.5-5.5-0.5S89,298.8,85.5,306.3z"/>
		<path class="st26" d="M112.9,301.3c10.5,1,29.9-2,37.4-5c-0.5-2.5-1.5-3-1.5-4.5c0,0-7.5,1-29.4,0.5c-13.5-0.5-25.9-2.5-25.9-2.5
			s-2,4-3,6.5C97.4,298.8,102.9,300.3,112.9,301.3z"/>
		<path class="st26" d="M117.9,314.2c-0.5-2.5-0.5-6.5-0.5-10c0-2,0-4,0-5h1c0,1.5,0,3.5,0,5.5c0,3.5-0.5,7,0.5,9.5H117.9
			L117.9,314.2z"/>
		<path class="st3" d="M120.4,300.3c10.5,0,21.4-1.5,29.9-3.5c0-1.5-1.5-5.5-1.5-7c0,0-7.5,3.5-29.4,2.5
			c-13.5-0.5-26.9-2.5-26.9-2.5s-1,3-2,6.5C98.4,298.8,109.4,300.3,120.4,300.3z"/>
		<path class="st10" d="M113.4,328.2c0.5-1,2-5.5,2.5-6.5l-34.4-9.5c0,0-2,5.5-2.5,6.5C83,322.2,108.9,329.2,113.4,328.2z"/>
		<path class="st10" d="M158.3,323.7c0-1-0.5-6-0.5-7l-34.9,5c0,0,0,6,0.5,7C127.8,330.2,154.3,326.7,158.3,323.7z"/>
		<g class="st47">
			<path d="M100.4,299.8l-1.5-0.5c0-1-0.5-2.5,0-4.5c0.5-3,1.5-4,2-4.5h2c0,0-1,1.5-1.5,5C100.4,296.8,100.4,298.8,100.4,299.8z"/>
		</g>
		<path class="st48" d="M99.9,299.8l-2-0.5c0-1-0.5-2.5,0-4.5c0.5-3,1.5-4,2-4.5h2c0,0-1.5,1.5-2,5
			C99.4,296.3,99.4,298.8,99.9,299.8z"/>
		<g class="st47">
			<path d="M139.8,300.3l1.5-0.5c0-1,0.5-2.5,0-4.5c-0.5-2.5-1.5-4-2-4h-2c0,0,1.5,1.5,2,4.5C139.8,297.3,139.8,299.8,139.8,300.3z"
				/>
		</g>
		<path class="st48" d="M140.8,300.3l1.5-0.5c0-1,0.5-2.5,0-4.5c-0.5-2.5-1.5-4-2-4h-2c0,0,1.5,1.5,2,4.5
			C140.8,297.3,140.8,299.3,140.8,300.3z"/>
		<g>
			<path class="st49" d="M131.8,354.6c-1-1-2.5-4-4-7.5c-1-2.5-2-4.5-2.5-6.5c-3,1-7.5,3.5-10.5,5c6,15.9,11.5,25.9,12,25.4
				C128.8,370.5,134.3,367.6,131.8,354.6z"/>
			<path class="st50" d="M133.3,355.1c-1,1.5-1.5,2-2,2c-2,0.5-3-2-3.5-3.5c-0.5-1.5-0.5-4.5,1.5-5
				C132.3,348.6,134.8,353.6,133.3,355.1z"/>
			<path class="st49" d="M133.8,355.6c-1,1.5-1.5,2-2,2c-2,0.5-3-2-3.5-3.5c-0.5-1.5-0.5-4.5,1.5-5
				C132.3,349.1,134.8,353.6,133.8,355.6z"/>
			<path class="st51" d="M128.8,356.1L128.8,356.1c0-0.5,0.5-1,0.5-0.5c1.5,0.5,3,2,3.5,3.5c0,0.5,0,0.5,0,0.5s-0.5,0-0.5-0.5
				C131.8,358.1,130.3,357.1,128.8,356.1C129.3,356.6,128.8,356.1,128.8,356.1z"/>
			<path class="st52" d="M115.9,345.6c-0.5,0-0.5,0.5-1,0.5c6,15.9,11.5,25.9,12,25.4c0,0,0.5,0,1-0.5
				C124.9,366.1,120.4,357.6,115.9,345.6z"/>
			<path class="st51" d="M128.8,359.1C128.8,358.6,128.8,358.6,128.8,359.1c0-0.5,0.5-1,0.5-0.5c1.5,0.5,3,1.5,3.5,3.5
				c0,0.5,0,0.5,0,0.5s-0.5,0-0.5-0.5C131.3,360.1,130.3,359.6,128.8,359.1L128.8,359.1z"/>
		</g>
		<g>
			<path class="st49" d="M73,330.7c0-1.5,1-4.5,3-8c1-2.5,2-4.5,3-6c-3-1.5-7.5-3.5-11-4.5c-8,15.4-11.5,25.9-11,25.9
				C59.1,338.6,65.1,340.6,73,330.7z"/>
			<path class="st50" d="M74,332.2c-1.5,0.5-2.5,0.5-3,0c-1.5-1-0.5-3.5,0-5c0.5-1.5,3-3.5,4.5-2C78,326.7,76,331.7,74,332.2z"/>
			<path class="st49" d="M74,332.7c-1.5,0.5-2.5,0.5-3,0c-1.5-1-0.5-3.5,0-5c0.5-1.5,3-3.5,5-2C78,327.2,76,332.2,74,332.7z"/>
			<path class="st51" d="M70,329.2C70,329.2,70.5,329.2,70,329.2c0.5-0.5,1-0.5,1,0c0.5,1.5,0.5,3.5,0,5c0,0.5-0.5,0.5-0.5,0.5
				s-0.5-0.5,0-0.5C70.5,332.7,70.5,331.2,70,329.2C70,329.7,70,329.2,70,329.2z"/>
			<path class="st52" d="M69,312.2c-0.5,0-0.5,0-1-0.5c-8,15.4-11.5,25.9-11,25.9c0,0,0.5,0,1,0.5C60.1,332.7,63.6,323.7,69,312.2z"
				/>
			<path class="st51" d="M68,331.2C68,330.7,68,330.7,68,331.2c0.5-0.5,1-0.5,1,0c0.5,1.5,0.5,3,0,5c0,0.5-0.5,0.5-0.5,0.5
				s-0.5-0.5,0-1C68.5,333.7,68.5,332.2,68,331.2L68,331.2z"/>
		</g>
	</g>
	<g>
		<path class="st1" d="M918.3,355.6c0,2.5-8,4.5-10,3c-11.5-25.4-21.4-30.9-5-66.8c6,2,14,4.5,19.9,7
			C900.8,326.2,916.8,339.6,918.3,355.6z"/>
		<path class="st1" d="M837,322.7c-2,1.5-7-3.5-6.5-6c21.9-24.9,23.9-25.9,57.3-32.9c1,6,2,12,2.5,18.4
			C855,302.8,855.5,310.7,837,322.7z"/>
		<path class="st53" d="M917.3,346.6c-2,1-11.5,2.5-15,3c-9-17.9-14.5-26.4-0.5-56.8c6,2,15,4.5,20.9,7
			C904.8,321.7,913.3,333.7,917.3,346.6z"/>
		<path class="st54" d="M919.8,356.6c0,0.5-10.5,4.5-11,4.5c-2-2.5-6.5-7.5-7-8l15.4-4.5C917.8,348.1,920.8,355.1,919.8,356.6z"/>
		<g>
			<path class="st55" d="M905.3,361.1c0-0.5-0.5-1.5-0.5-2.5c0-0.5,5-4,6-2.5c0,0.5,0.5,0.5,0.5,1c1-0.5,2-1,3-2c2-1.5,4-3,5.5-4
				c1.5,2,3,5,4.5,7.5c0,0-20.9,18.9-26.4,17.9C895.8,376,899.3,368,905.3,361.1z"/>
			<path class="st56" d="M923.3,356.6c0.5,0.5,0.5,1,1,1.5c0,0-20.9,18.9-26.4,17.9c0,0-0.5,0-0.5-0.5
				C904.3,373,917.8,361.6,923.3,356.6z"/>
			<path class="st56" d="M900.3,368.5C900.3,368,900.3,368,900.3,368.5c3.5-1,7,0,7.5,2.5c0,0,0,0,0,0.5c-4.5,3-8.5,5-10.5,5
				C896.3,376,897.3,372.5,900.3,368.5z"/>
			<path class="st57" d="M907.8,362.1C908.3,362.1,908.3,362.1,907.8,362.1C908.3,361.6,908.3,361.6,907.8,362.1
				c0.5-0.5,0.5-0.5,0.5-0.5c-1.5-0.5-3.5,0-5,1v0.5h0.5C904.8,361.6,906.8,361.6,907.8,362.1z M906.8,363.6L906.8,363.6
				C907.3,363.6,907.3,363.6,906.8,363.6c0.5-0.5,0.5-0.5,0-0.5c-1.5-0.5-3.5,0-5,1v0.5h0.5C903.3,364.1,904.8,363.1,906.8,363.6z
				 M900.8,366.6h0.5c1-1,2.5-1.5,4-1c0,0,0,0,0.5,0l0,0c0,0,0-0.5-0.5-0.5c-1.5-0.5-3.5,0-5,1C900.8,366.1,900.8,366.6,900.8,366.6
				z"/>
		</g>
		<path class="st53" d="M837,307.7c15.4-16.9,20.4-18.4,49.8-24.4c1,6,2.5,13,3,18.9c-28.9,0.5-32.4,7-44.4,15.4
			C843,315.2,839.5,311.2,837,307.7z"/>
		<path class="st54" d="M836,326.7c-0.5,0.5-7-6-6.5-6.5c2-5,3.5-9.5,4-11l10.5,10C844,319.2,838,324.7,836,326.7z"/>
		<g>
			<path class="st55" d="M827.6,312.7c0.5-0.5,1.5-1,2-1c0.5-0.5,5.5,3.5,4.5,5c0,0.5-0.5,0.5-0.5,0.5c1,0.5,1.5,1.5,2.5,2
				c2,1.5,4,3,5.5,4c-1.5,2-4,4.5-5.5,6.5c0,0-24.4-14-25.4-19.4C810.6,308.7,819.1,309.7,827.6,312.7z"/>
			<path class="st56" d="M837.5,328.7c-0.5,0.5-0.5,1-1,1c0,0-24.4-14-25.4-19.4c0,0,0-0.5,0.5-0.5
				C816.1,315.7,831.6,325.2,837.5,328.7z"/>
			<path class="st56" d="M819.1,310.2C819.1,310.2,819.1,310.7,819.1,310.2c2.5,3,2,6.5,0,8l0,0c-4-3-7.5-6-8-8
				C810.6,309.2,814.1,309.2,819.1,310.2z"/>
			<path class="st57" d="M827.6,315.7L827.6,315.7C828.1,316.2,828.1,316.2,827.6,315.7c0.5,0.5,1,0.5,1,0c0-1.5-1-3.5-2.5-4h-0.5
				v0.5C827.1,312.7,827.6,314.2,827.6,315.7z M825.6,315.2L825.6,315.2C826.1,315.2,826.1,315.2,825.6,315.2c0.5,0.5,1,0,1,0
				c0-1.5-1-3-2.5-4h-0.5v0.5C824.1,312.2,825.6,313.2,825.6,315.2z M821.1,310.2v0.5c1,0.5,2,2,2.5,3.5c0,0,0,0,0,0.5
				c0,0,0,0,0.5,0c0,0,0.5,0,0.5-0.5c-0.5-1.5-1.5-3.5-2.5-4.5C821.1,310.2,821.1,310.2,821.1,310.2z"/>
		</g>
		<path class="st53" d="M889.4,287.8c0,0-14.5,3-19.4,5c0.5,2,11,6.5,8.5,9c9.5-0.5,17.4,4,16.9,8.5c0,2,3,0.5,2,4.5
			c6.5-1.5,15-7.5,20.4-9.5c4-6,9-9.5,5.5-19.9C918.3,287.8,889.4,287.8,889.4,287.8z"/>
		<path class="st1" d="M829.6,248.4c0,3-0.5,5.5-1,8.5c12,5,33.4,15.9,55.8,4.5c-1.5-5-2-9-3-14C862.4,256.4,847,252.9,829.6,248.4z
			"/>
		<path class="st26" d="M924.2,296.3c-2.5,6-12.5,9.5-29.4,8.5c-12-0.5-17.4-15-22.4-17.9c11.5-6.5,7.5-24.9,9.5-34.4
			c1.5-1.5,24.9-1,30.9-1C920.8,273.9,924.2,292.8,924.2,296.3z"/>
		<path class="st55" d="M925.7,295.3c-5,3-14,7-30.9,6c-12-0.5-12.5-10.5-22.9-15c11.5-6.5,8-30.9,10.5-40.4c1.5-1.5,24.9-1,30.9-1
			C920.8,267.4,925.2,291.8,925.7,295.3z"/>
		<path class="st55" d="M879.9,266.9c7-3.5,6-21.4,4-21.4c0,0-12,4.5-20.4,5.5C864.9,267.4,879.9,266.9,879.9,266.9z"/>
		<path class="st11" d="M904.3,236v11c0,2.5-3.5,4.5-8.5,4.5c-4.5,0-8.5-1.5-8.5-4v-11L904.3,236z"/>
		<path class="st1" d="M950.7,290.8c2-2,4-3.5,6.5-5.5c-5-12-15.4-32.4-39.9-38.9c-2.5,5-5,8-7.5,12.5
			C930.2,264.9,940.7,275.8,950.7,290.8z"/>
		<path class="st55" d="M918.3,268.9c8.5,1,17.4-16.9,15.4-17.9c0,0-14.5-8-23.4-6C902.3,261.4,918.3,268.9,918.3,268.9z"/>
		<g>
			<path class="st58" d="M810.1,246.9c3,1,7.5,2,15.9,4.5c1,0.5,1.5,5,0.5,4.5C821.1,253.4,809.6,251.9,810.1,246.9z"/>
			<path class="st58" d="M809.1,242.5c3,1,10.5,1.5,17.9,6.5c1,0.5,0.5,5,0,4.5C821.6,250.9,809.1,245.9,809.1,242.5z"/>
			<path class="st1" d="M810.6,237c3,1,18.4,8.5,25.9,13.5c1,0.5-2.5,7.5-4,7.5c-3,2.5-9-0.5-16.9,1.5c-1.5,0.5-1-2-0.5-2.5
				c1-1.5,1.5-1.5,5.5-3.5c2-1.5,1.5-4.5,0.5-6C815.1,242.5,810.1,240,810.6,237z"/>
		</g>
		<g>
			<path class="st58" d="M962.6,306.3c-1.5-3-3-7-7.5-15c-0.5-1-5-0.5-4.5,0.5C954.6,296.3,958.6,307.7,962.6,306.3z"/>
			<path class="st58" d="M967.6,306.3c-1.5-3-3.5-10-10-16.4c-1-1-5,0-4.5,1C957.1,295.8,964.1,307.2,967.6,306.3z"/>
			<path class="st1" d="M972.6,303.8c-1.5-3-12-16.9-17.9-22.9c-1-1-7,4-7,5.5c-2,3.5,2,9,2,16.9c0,1.5,2,0.5,2.5,0c1-1.5,1-2,2.5-6
				c1-2.5,4-2,5.5-1.5C966.6,300.3,969.6,304.8,972.6,303.8z"/>
		</g>
		<g>
			<g>
				<path class="st13" d="M835.5,215.5c2,11.5,10.5,18.9,16.9,18.4c6.5-0.5,8-9.5,7-20.4c-1-11-7-19.4-13-18.9
					C837.5,196.1,834,205.1,835.5,215.5z"/>
				
					<ellipse transform="matrix(0.8962 -0.4436 0.4436 0.8962 -8.5523 399.6951)" class="st11" cx="850" cy="218.1" rx="6.5" ry="9"/>
				<path class="st59" d="M840,188.6c2.5,35.4,25.9,49.8,57.3,47.8c31.4-2.5,52.8-19.9,50.3-55.3c-2.5-35.4-25.9-42.4-57.3-39.9
					C859,142.8,837,152.8,840,188.6z"/>
				<path class="st1" d="M843.5,167.7c-3.5,3.5,0,11.5,1,17.4c3.5,22.4,2.5,30.9,2,40.4c-1.5,19.4,25.4,19.9,31.4,19.9
					c7,0,37.9-3,46.3-16.9c8.5-13.5,10.5-57.3,8-62.8c-8.5-18.4-18.4-15.9-42.9-14C866.9,153.7,856,155.2,843.5,167.7z"/>
				
					<ellipse transform="matrix(0.9945 -0.1046 0.1046 0.9945 -11.9126 93.335)" class="st59" cx="883.9" cy="160.2" rx="39.9" ry="15"/>
				<path class="st59" d="M922.8,188.1c-1,11-1,19.4,7,24.9c9,6.5,15.4-18.4,14.5-35.4c-1-16.9-14-28.4-35.4-25.4
					C897.3,154.2,925.7,159.2,922.8,188.1z"/>
				<path class="st1" d="M953.2,213.6c-3,11.5-14.5,18.9-22.9,17.4c-8.5-1.5-10-11-8.5-21.9c1.5-11,10-19.4,18.4-17.9
					C951.7,192.6,956.1,202.6,953.2,213.6z"/>
				<path class="st11" d="M939.7,217c-2,5-7.5,7.5-10,6c-3-1.5-3-4.5-2-9.5c1-6,3.5-9,7.5-8C939.7,207.1,942.2,211.1,939.7,217z"/>
				
					<ellipse transform="matrix(0.9974 -7.224603e-02 7.224603e-02 0.9974 -13.7683 66.4221)" class="st60" cx="911.3" cy="223.5" rx="8.5" ry="8.5"/>
				
					<ellipse transform="matrix(0.9974 -7.225076e-02 7.225076e-02 0.9974 -14.205 62.3319)" class="st60" cx="854.5" cy="227.5" rx="6" ry="7.5"/>
				<g>
					<path class="st34" d="M866.4,202.6c3,4.5,3,9.5,1,12c-3.5,3-12.5,4.5-15.9,0.5c-3.5-4-2.5-11.5,2.5-15
						C858,196.6,863.4,198.1,866.4,202.6z"/>
					<path class="st35" d="M850,202.6c3.5-7.5,13.5-5.5,16.4,0.5c-3-4.5-8.5-5.5-12.5-2.5c-2.5,2-4,5-4.5,8c0,2.5,0.5,5.5,2,7
						C850,214.1,847,208.1,850,202.6z"/>
					<path class="st61" d="M865.9,205.6c1.5,3,0,7-2.5,8.5c-3,1.5-6,0-7.5-3c-1.5-3,0-7,2.5-8.5
						C861.5,201.1,864.4,202.1,865.9,205.6z"/>
					<path class="st20" d="M865.4,205.1c0.5,1,0,2-0.5,2.5c-1,0.5-1.5,0-2-1c-0.5-1,0-2,0.5-2.5
						C864.4,203.6,864.9,204.1,865.4,205.1z"/>
				</g>
				<g>
					<path class="st34" d="M891.4,200.6c-3,5-2,10,1,12c4.5,2.5,14.5,2.5,17.9-2c3.5-4.5,1-12-5.5-14.5
						C899.3,193.6,893.8,196.1,891.4,200.6z"/>
					<path class="st35" d="M909.8,198.1c-5-7-15.9-3.5-18.9,3c3-5,8.5-7,13.5-4.5c3,1.5,5.5,4,6.5,7.5c0.5,2.5,0.5,5.5-1,7.5
						C911.3,209.6,913.3,203.1,909.8,198.1z"/>
					
						<ellipse transform="matrix(0.8999 -0.436 0.436 0.8999 0.5281 413.3051)" class="st61" cx="900.7" cy="205.5" rx="6.5" ry="6.5"/>
					<ellipse transform="matrix(0.9 -0.4359 0.4359 0.9 1.9153 414.4955)" class="st20" cx="904.3" cy="203.1" rx="2" ry="2"/>
				</g>
				<path class="st59" d="M848,185.6c0.5,0,0.5,0,1-0.5c3-3,8.5-4,13.5-3c0.5,0,1.5,0,1.5-1c0-0.5,0-1.5-1-1.5
					c-6-1.5-12.5,0-15.9,3.5c-0.5,0.5-0.5,1.5,0,2C847.5,185.1,848,185.6,848,185.6z"/>
				<path class="st59" d="M908.8,181.2c0.5,0,0.5,0,1-0.5c0.5-0.5,0.5-1.5,0-2c-4-3-11-3.5-16.4-1c-0.5,0.5-1,1-0.5,1.5
					c0.5,0.5,1,1,1.5,0.5c4.5-2,10.5-2,14,1C908.3,181.2,908.3,181.2,908.8,181.2z"/>
				<path class="st59" d="M881.4,228.5L881.4,228.5c3-0.5,5-2.5,5-5c0-0.5,0-0.5-0.5-0.5c-0.5,0-0.5,0-0.5,0.5c0,2-1.5,3.5-3.5,4
					c-2,0.5-4-1-4.5-3.5c0-0.5-0.5-0.5-1-0.5c-0.5,0-0.5,0.5-0.5,1C876.9,227.5,879.4,228.5,881.4,228.5z"/>
				<path class="st14" d="M874.9,217.5L874.9,217.5c0.5-2,1.5-3,3.5-3c1.5,0,3,1,3.5,2.5l0.5,0.5l0.5-0.5c-0.5-2-2-3-4.5-3
					C875.9,213.6,874.4,215,874.9,217.5C874.4,217.5,874.4,217.5,874.9,217.5L874.9,217.5z"/>
				<g>
					<path class="st16" d="M864.9,227.5c1.5,7.5,10.5,12.5,19.9,10.5c9.5-2,15.9-9.5,14.5-16.9s-9.5-4.5-18.9-3.5
						C870.9,219,863.4,220,864.9,227.5z"/>
					<path class="st17" d="M882.4,231.5c5-1,10,0,13,2c-2.5,2.5-6.5,4.5-10.5,5.5c-5,1-9.5,0-13-2C873.9,234,877.9,232,882.4,231.5z
						"/>
					<path class="st0" d="M868.9,220c3-1.5,7-2,12-2.5c5.5-0.5,10.5-2,14-1.5c-1,3.5-5.5,6.5-11.5,7.5
						C875.9,225,870.4,223.5,868.9,220z"/>
				</g>
			</g>
			<path class="st62" d="M940.2,147.3c4.5,12,8,25.9,8,25.9s-69.3,14.5-72.3,6.5c-4.5-13-15-42.4,7.5-43.9
				C932.7,133.3,940.2,147.3,940.2,147.3z"/>
			<path class="st63" d="M893.3,197.1c-7,4-70.8,7-72.8,3.5c-4.5-4,14-8.5,19.4-11.5c4,0,76.7-9.5,78.2-9.5
				C918.3,179.7,898.8,194.1,893.3,197.1z"/>
			<path class="st62" d="M891.4,195.1c-7,3.5-69.3,7-71.3,4c-1.5-2.5,14-7.5,18.9-10.5c4,0,70.3-6.5,71.8-6.5
				C910.3,182.2,896.3,192.6,891.4,195.1z"/>
			<path class="st64" d="M917.8,152.8c-4.5-10.5-16.9-18.4-35.4-16.9c-20.9,1.5-43.4,16.9-43.4,30.4c0,5,0,21.9,0,21.9
				c15,2,68.8-2.5,84.2-10.5C923.3,178.2,921.3,162.2,917.8,152.8z"/>
			<ellipse class="st65" cx="888.9" cy="133.8" rx="5.5" ry="2"/>
		</g>
	</g>
	<g>
		<path class="st66" d="M637.7,183.7c0.5,1,1,2,1.5,2.5c-2,1.5-5,2.5-6,6.5c-0.5,3,2,4.5,2,5.5c-3,1.5-5,5-4,8c1,3.5,4,5,7.5,4
			c0.5,1.5,1,2.5,1.5,3c1.5,1,3,0,4-2.5c1,1.5,2,3,3,3.5c2.5,1.5,5.5,0,6.5-4c2,2,4.5,3,7,2.5c1.5-0.5,6.5-5.5,1.5-15
			c-0.5-1,2-2,5-2.5c0-0.5,0-0.5-0.5-1c-1.5,0,1.5-9,0.5-10c-3.5-2.5-8.5,1-6-2.5c0.5-0.5,1-1,1-1.5c-1-1-1.5-2.5-2-4
			c-3-1-5.5,6.5-7,7.5c-1.5-3-10-8-12.5-7C639.2,179.7,636.7,180.2,637.7,183.7z"/>
		<g>
			<path class="st1" d="M725.4,295.8c2.5,1,0.5,9-1.5,10c-33.4,2.5-42.9-15.9-25.9-46.8c6,2,11.5,4,17.4,6
				C688.5,293.8,710.9,293.8,725.4,295.8z"/>
			<path class="st67" d="M718.9,292.8c-1,4.5-2.5,12-3.5,15c-12-2.5-24.4-7.5-27.4-15.4c-2.5-6.5,2-17.9,8.5-32.9
				c7.5,2,15.9-0.5,22.9,2c-5,10-13.5,21.4-13.5,23.9C706,288.3,710.9,291.3,718.9,292.8z"/>
		</g>
		<path class="st54" d="M729.9,295.3c0.5,0-0.5,7-1,7c-3,1.5-8.5,5-9.5,5.5l1-14.5C720.9,293.3,728.4,294.3,729.9,295.3z"/>
		<g>
			<path class="st68" d="M723.4,309.2c-0.5-0.5-1.5-1-2-1c-0.5-0.5,0.5-6,1.5-6c0.5,0,0.5,0,1,0c0-1,0.5-2,0.5-3.5
				c0-2.5,0.5-5,0.5-6.5c2,0,6,1,8,1c0,0,1.5,26.9-2.5,30.4C728.9,325.2,724.9,318.2,723.4,309.2z"/>
			<path class="st69" d="M730.9,293.3c0.5,0,1,0,1.5,0c0,0,1.5,26.9-2.5,30.4h-0.5C731.4,317.2,731.4,300.3,730.9,293.3z"/>
			<path class="st57" d="M725.4,307.7C725.9,307.7,725.9,307.7,725.4,307.7c0-0.5,0-0.5,0-0.5h-0.5c-1.5,1-2.5,2.5-2,4
				c0,0,0,0.5,0.5,0.5c0,0,0.5,0,0.5-0.5C723.9,309.7,724.4,308.2,725.4,307.7z M726.4,309.7L726.4,309.7c0-0.5,0-0.5,0-0.5h-0.5
				c-1.5,1-2,2.5-2,4c0,0,0,0.5,0.5,0.5s0.5,0,0.5-0.5C724.4,312.2,724.9,310.7,726.4,309.7z M724.9,315.7L724.9,315.7
				c0.5-1.5,1-3,2-4c0,0,0,0,0-0.5c0,0,0,0,0-0.5h-0.5C725.4,312.2,724.4,314.2,724.9,315.7C724.4,315.7,724.4,315.7,724.9,315.7z"
				/>
		</g>
		<path class="st1" d="M670.6,319.7c-0.5,2.5-9.5,1-10.5-0.5c-1.5-28.9-6-37.9,19.9-64.3c5,4,10,8,14.5,12.5
			C663.1,284.8,675.1,303.8,670.6,319.7z"/>
		<path class="st67" d="M674.1,310.2c-2.5,0-11.5,0.5-15.4,1c-2-21.4-5-33.9,19.9-57.8c5,4,14.5,9.5,18.9,14
			C670.1,279.8,674.6,300.3,674.1,310.2z"/>
		<path class="st54" d="M672.6,322.2c0,0.5-9.5,2-10,1.5c-2-2.5-4.5-8-5-8.5l14.5-2C672.1,312.7,673.1,320.7,672.6,322.2z"/>
		<g>
			<path class="st68" d="M658.6,324.7c0-0.5,0-1.5,0-2.5c0-0.5,5-3.5,6-2c0,0.5,0.5,0.5,0.5,1c1-0.5,2-1,3-1.5c2-1.5,4-2.5,5.5-3.5
				c1,2,2.5,5,4,7.5c0,0-21.4,16.4-26.4,15.4C648.6,338.1,652.6,330.7,658.6,324.7z"/>
			<path class="st69" d="M676.1,321.7c0,0.5,0.5,1,0.5,1.5c0,0-21.4,16.4-26.4,15.4c0,0-0.5,0-0.5-0.5
				C657.1,335.7,670.6,325.7,676.1,321.7z"/>
			<path class="st57" d="M661.1,325.2C661.1,325.7,661.6,325.7,661.1,325.2C661.6,325.2,661.6,325.2,661.1,325.2
				c0.5-0.5,0.5-0.5,0.5-0.5c-1.5-0.5-3.5-0.5-4.5,0.5v0.5h0.5C658.6,325.2,660.1,324.7,661.1,325.2z M660.1,327.2L660.1,327.2
				C660.1,327.2,660.6,326.7,660.1,327.2c0.5-0.5,0.5-0.5,0.5-0.5c-1.5-0.5-3.5,0-4.5,0.5v0.5h0.5
				C656.6,327.2,658.1,326.7,660.1,327.2z M654.1,329.7h0.5c1-1,2.5-1,4-0.5c0,0,0,0,0.5,0l0,0v-0.5
				C657.1,327.7,655.1,328.2,654.1,329.7C654.1,329.2,654.1,329.2,654.1,329.7z"/>
		</g>
		<path class="st1" d="M630.7,219.5c0,2.5-0.5,5-1,7.5c11,4.5,31.4,14.5,51.8,3c-1.5-4.5-2-8.5-3-13
			C661.1,226,646.7,223.5,630.7,219.5z"/>
		<path class="st70" d="M677.6,235.5c7-3.5,5.5-20.4,3.5-20.4c0,0-11.5,4.5-19.4,5.5C663.1,236,677.6,235.5,677.6,235.5z"/>
		<g>
			<path class="st71" d="M682,225c-5-1.5-6.5-4.5-9-7.5c0.5,0,0.5,0,1,0c2,3,3.5,5.5,8,7C682,224.5,682,224.5,682,225z"/>
			<path class="st71" d="M665.1,219.5c0.5,0,0.5,0,1,0c3,5.5,9,9.5,15,12c0,0,0,0.5-0.5,0.5C674.1,229.5,668.1,225.5,665.1,219.5z"
				/>
		</g>
		<path class="st1" d="M757.8,220.5c0,2.5,0.5,6,1,8.5c-11.5,4.5-30.9,10.5-51.3-1.5c1.5-4.5,1-8.5,2.5-13
			C727.4,224.5,740.8,224,757.8,220.5z"/>
		<path class="st70" d="M714.4,236.5c8,0.5,16.4-16.4,14.5-17.4c0,0-10.5-3.5-19.9-5.5C701.5,229.5,714.4,236.5,714.4,236.5z"/>
		<g>
			<path class="st71" d="M712.9,233.5c4-5,7.5-10.5,10-16.4c0.5,0,0.5,0,0.5,0c-2.5,6-6,11.5-10,16.9c-0.5,0.5-0.5,0.5-1,1l-0.5-0.5
				C712.4,234.5,712.4,234,712.9,233.5z"/>
			<path class="st71" d="M707.5,227.5c3-4,5.5-8,7-12.5c0.5,0,0.5,0,1,0c-2,4.5-4.5,9-7.5,13.5C707.5,228,707.5,228,707.5,227.5z"/>
		</g>
		<path class="st70" d="M721.9,261.4c-7.5,3.5-16.4,10.5-29.4,7c-11-3-12-4-22.4-8.5c13-9,7.5-36.4,9.5-45.4
			c1.5-1.5,23.4-1.5,29.4-1.5C716.4,235,721.4,258.4,721.9,261.4z"/>
		<path class="st11" d="M699,204.1l2.5,10c0.5,2-2.5,5-7,5.5c-4.5,0.5-8,0-8.5-2l-2.5-10L699,204.1z"/>
		<g>
			<path class="st58" d="M613.8,218.5c3,1,7,1.5,15,4c1,0.5,1.5,4.5,0.5,4C624.2,224.5,613.3,223,613.8,218.5z"/>
			<path class="st58" d="M613.3,214.6c3,1,10,1.5,16.4,6c1,0.5,1,4.5,0,4C624.7,222,612.8,218,613.3,214.6z"/>
			<path class="st1" d="M614.3,209.1c3,1,17.4,7.5,23.9,12c1,0.5-2,7-4,7c-3,2.5-8.5-0.5-15.9,1.5c-1.5,0.5-1-1.5-0.5-2
				c1-1.5,1.5-1.5,5-3.5c2-1.5,1.5-4,0-5.5C618.2,214.6,613.8,212.1,614.3,209.1z"/>
		</g>
		<g>
			<path class="st58" d="M775.7,220c-3,0.5-7.5,1.5-15.4,3.5c-1,0.5-1.5,4.5-0.5,4C765.3,225.5,776.2,224.5,775.7,220z"/>
			<path class="st58" d="M776.7,216c-3,0.5-10,1-16.9,5c-1,0.5-1,4.5,0,4C764.8,223,776.7,219.5,776.7,216z"/>
			<path class="st1" d="M775.7,210.6c-3,0.5-17.9,7-24.9,11.5c-1,0.5,2,7,3.5,7.5c3,2.5,8.5,0,15.9,2c1.5,0.5,1-1.5,0.5-2.5
				c-1-1.5-1.5-1.5-4.5-4c-2-1.5-1-4,0-5.5C771.2,215.5,775.7,213.6,775.7,210.6z"/>
		</g>
		<g>
			<path class="st71" d="M716.9,239.5v0.5c-6.5,2-13,3-19.9,3c-6.5,0-12.5-1-18.9-2.5c0-0.5,0-0.5,0-1
				C691,243.5,704.5,243,716.9,239.5z"/>
			<path class="st71" d="M679,248.9c-0.5,0-1.5-0.5-2-0.5v-0.5c0.5,0,1.5,0.5,2,0.5c13,4,26.9,4,39.9,0.5v0.5
				c-6,1.5-12.5,2.5-18.9,2.5C693,252.4,686,251.4,679,248.9z"/>
			<path class="st71" d="M714.4,231.5v0.5c-5.5,1-10.5,2-15.9,2c-6.5,0-13.5-1-19.9-3c0-0.5,0-0.5,0-1
				C690.5,234,703,234.5,714.4,231.5z"/>
			<path class="st71" d="M698.5,261.9c-7,0-14.5-1-20.9-3c-1.5-0.5-2.5-1-4-1.5l0.5-0.5c1.5,0.5,2.5,1,4,1.5c13.5,4,28.4,4,41.9,0
				c0.5,0,1-0.5,1.5-0.5c0,0.5,0,0.5,0,1c-0.5,0-1,0.5-1.5,0.5C712.4,260.9,705.5,261.9,698.5,261.9z"/>
			<path class="st71" d="M711.4,221.5v0.5c-6,1.5-12,2.5-18.4,2.5c-5,0-9.5-0.5-14.5-1.5c0-0.5,0-0.5,0-1
				C689.5,224.5,701,224.5,711.4,221.5z"/>
		</g>
		<g>
			<path class="st13" d="M639.2,185.1c1.5,10.5,9.5,17.9,15.4,17.4c6-0.5,7.5-9,7-18.9c-0.5-10-6-17.9-12-17.4
				C641.2,167.2,637.2,175.2,639.2,185.1z"/>
			
				<ellipse transform="matrix(0.9046 -0.4262 0.4262 0.9046 -17.8037 295.8247)" class="st11" cx="652.1" cy="187.7" rx="6" ry="8"/>
			<path class="st66" d="M756.3,179.2c0,1-0.5,2-1,2.5c2.5,1.5,5,2,6.5,6c1,3-1.5,4.5-1.5,6c3.5,1,5.5,4.5,5,7.5
				c-0.5,3.5-3.5,5.5-7,5c0,1.5-0.5,2.5-1,3c-1,1.5-3,0.5-4.5-2c-0.5,1.5-1.5,3-2.5,4c-2.5,2-5.5,0.5-7-3c-2,2.5-4.5,3.5-7,3.5
				c-1.5,0-7.5-4.5-3.5-14.5c0.5-1-2.5-1.5-5.5-2c0-0.5,0-0.5,0-1c1.5-0.5-2.5-9-1.5-10c3-3,8.5,0,6-3c-0.5-0.5-1-1-1.5-1
				c0.5-1.5,1-2.5,1.5-4c2.5-1,6.5,5.5,7.5,6.5c1-3,9-9,11.5-8.5C754.8,175.2,757.3,175.7,756.3,179.2z"/>
			<path class="st72" d="M643.2,160.2c2,32.9,23.4,46.8,52.3,45.4c28.9-1.5,49.3-17.4,47.8-50.8c-2-32.9-23.4-39.9-52.3-37.9
				C661.6,118.4,641.7,126.8,643.2,160.2z"/>
			<path class="st1" d="M647.2,141.8c-3,3.5,0,10.5,0.5,16.4c3,20.9,2,28.9,1,37.4c-2,17.9,22.9,18.9,28.9,18.9
				c6.5,0,35.4-2,43.4-15c8-12.5,11-52.8,8.5-57.8c-7.5-17.4-16.9-15-39.4-14C669.1,128.8,658.6,130.3,647.2,141.8z"/>
			<path class="st72" d="M720.4,161.2c-1,10-1.5,18.4,6,23.4c8.5,6,15-16.9,14-32.4c-1-15.9-12.5-26.9-32.4-24.4
				C697,129.3,723.4,134.8,720.4,161.2z"/>
			<ellipse transform="matrix(0.5 -0.866 0.866 0.5 231.2287 729.1643)" class="st73" cx="747.1" cy="164.3" rx="9" ry="4"/>
			
				<ellipse transform="matrix(0.9553 -0.2958 0.2958 0.9553 -17.0484 230.6442)" class="st73" cx="753.8" cy="171.7" rx="9.5" ry="4"/>
			<path class="st1" d="M747.8,185.6c-3,10.5-14,16.9-21.4,15.9c-8-1.5-9-10.5-7.5-20.4c1.5-10.5,9.5-17.4,17.4-16.4
				C747.3,166.2,750.8,175.2,747.8,185.6z"/>
			<path class="st11" d="M735.4,188.6c-2,5-7,6.5-9.5,5.5c-2.5-1.5-2.5-4-1.5-9c1-5.5,3.5-8.5,7.5-7.5
				C735.4,179.2,737.9,183.2,735.4,188.6z"/>
			
				<ellipse transform="matrix(0.9986 -5.296009e-02 5.296009e-02 0.9986 -9.3472 37.4771)" class="st60" cx="702.5" cy="195.1" rx="10" ry="10"/>
			
				<ellipse transform="matrix(0.9986 -5.296523e-02 5.296523e-02 0.9986 -9.4623 35.1589)" class="st60" cx="658.6" cy="196.1" rx="7.5" ry="9"/>
			<g>
				<path class="st0" d="M688.5,183.7c0,0,9.5,2.5,15.4-0.5c2.5-1.5,4.5-3.5,4.5-7.5c0-6-6-9-10-8.5c-4.5,0.5-8,4-9.5,9
					C688.5,178.7,688,181.2,688.5,183.7z"/>
				<path class="st74" d="M704,183.2c2-1.5,4-3,4-7c0.5-3.5-3-9.5-9.5-9c-4,0.5-7.5,3.5-10,10c0.5-3,3-8,7.5-10c8-3.5,14,2.5,13,8.5
					C708.5,181.2,705.5,183.2,704,183.2z"/>
				
					<ellipse transform="matrix(0.9082 -0.4185 0.4185 0.9082 -9.5402 308.8958)" class="st73" cx="699.4" cy="176.2" rx="6" ry="6"/>
				
					<ellipse transform="matrix(0.9082 -0.4185 0.4185 0.9082 -8.1289 310.146)" class="st20" cx="703" cy="173.6" rx="1.5" ry="1.5"/>
			</g>
			<g>
				<path class="st0" d="M669.1,184.6c0,0-8.5,3.5-14,1.5c-2.5-1-4-3-5-7c-1-5.5,4.5-9.5,8-9.5c4,0,7.5,3.5,9.5,8
					C668.6,179.7,669.1,182.2,669.1,184.6z"/>
				<path class="st74" d="M655.1,185.6c-2-1-3.5-2.5-4.5-6.5c-0.5-3.5,2-10,8-9.5c3.5,0,7,2.5,10,9c-1-3-3.5-7.5-7.5-9
					c-7.5-2.5-12.5,4-11,9.5C650.6,184.1,654.1,185.6,655.1,185.6z"/>
				<path class="st73" d="M665.6,176.2c1.5,3,0,6.5-2.5,8c-2.5,1.5-6,0-7-3c-1-3,0-6.5,2.5-8C661.6,171.7,664.6,173.2,665.6,176.2z"
					/>
				<path class="st20" d="M665.1,175.2c0.5,1,0,2-0.5,2c-0.5,0.5-1.5,0-2-1c-0.5-1,0-2,0.5-2C664.1,174.2,665.1,174.2,665.1,175.2z"
					/>
			</g>
			<path class="st14" d="M673.1,185.6C673.6,185.6,673.6,185.6,673.1,185.6c0.5-2,1.5-3,3-3s3,1,3,2l0.5,0.5l0.5-0.5c-0.5-2-2-3-4-3
				C674.6,182.2,673.1,183.2,673.1,185.6C672.6,185.1,673.1,185.6,673.1,185.6L673.1,185.6z"/>
			<path class="st72" d="M741.3,147.3c0-4-3-7-7-7.5c1.5-0.5,3-1.5,4-2.5c3-3.5,2-8.5-1.5-11c-2.5-1.5-5.5-2-8-1c0-0.5,0-1,0-1.5
				c0-2.5-1.5-5-4-6c1-1.5,1-3,1-5c-0.5-6-7-11-14.5-10.5c-5,0.5-9.5,2.5-11.5,6c-2.5-1.5-5.5-2.5-9-2.5c-4,0-7.5,2-10,4.5
				c-1.5-3-4-5-7-6.5c-9-4-20.4,0.5-25.4,10c-1,1.5-1.5,3-2,4.5c-1-0.5-2-0.5-3.5-0.5c-3.5,0-6.5,3-6,6c0,1.5,0.5,2.5,1.5,3.5
				c-3.5,1-6.5,3.5-8.5,7.5c-3.5,7-1.5,15,5,17.9c1,0.5,1.5,0.5,2.5,1c0,1,0.5,2,1,3c-1-0.5-1.5-0.5-2.5-0.5c-3.5,0-6.5,3-6,7
				c0,3.5,3.5,6.5,7,6c1,0,2-0.5,2.5-0.5c0,0.5,0.5,1,1,1.5c2,2,6.5,2,9.5-1c2-2,3-4.5,3-6.5c4.5-2,7.5-7,7-13v-0.5c1,1,3,1.5,5,1.5
				c3.5,0,6-2.5,6-5.5c0.5,0,0.5,0.5,1,0.5c6.5,3,14.5,0,17.9-7c0.5-1,1-2,1-2.5c0.5,3,2,5.5,5,7c4.5,2.5,11,0,13.5-5
				c0.5-1.5,1-2.5,1.5-4c1.5,0,3-0.5,4.5-1c-1,2.5-1.5,5.5,0,8.5c1.5,3.5,5,6,9,6.5c0,0.5,0,0.5,0,1c0,2,1,4,3,5.5c-2,0-3.5,1-4.5,2
				c-1.5,2.5-0.5,5.5,2.5,7.5c3,1.5,6.5,1,8-1c1-2,0.5-4.5-1-6c0.5,0,1,0,1,0C737.9,155.2,741.8,151.8,741.3,147.3z"/>
			<g>
				<path class="st36" d="M668.1,196.1c1,6,7.5,9.5,14.5,8c6.5-1.5,10.5-10.5,10-14c-1-7-6.5-2.5-13.5-1
					C672.1,190.1,667.1,190.1,668.1,196.1z"/>
				<path class="st0" d="M679,188.1c3.5-0.5,6.5-2,9-2.5c-0.5,2.5-4,5.5-8,6.5c-4,1-8,0-9.5-2C672.6,189.1,675.6,189.1,679,188.1z"
					/>
				<path class="st75" d="M679,198.1c4-1,8-1,10.5,1c-1.5,2-4,4-7,5c-4,1-7.5,0.5-10.5-1.5C673.6,200.6,676.1,199.1,679,198.1z"/>
			</g>
			<path class="st76" d="M654.1,158.2h-0.5c-0.5-0.5-1-1-1-2c1-2.5,3-4.5,6-5c3-0.5,6,0,8,2c0.5,0.5,0.5,1.5,0,2
				c-0.5,0.5-1.5,0.5-2,0c-1.5-1.5-3.5-2-5.5-1.5c-2,0.5-3.5,1.5-4,3C655.1,157.7,654.6,158.2,654.1,158.2z"/>
			<path class="st76" d="M699.5,154.2c-0.5,0-1,0-1.5-0.5c-1-1.5-2.5-2.5-4.5-2.5c-2,0-4,0.5-5.5,2c-0.5,0.5-1.5,0.5-2,0.5
				c-0.5-0.5-0.5-1.5-0.5-2c2-2.5,4.5-3.5,7.5-3.5c3,0,5.5,1.5,7,4C700.5,152.8,700,153.7,699.5,154.2
				C700,154.2,700,154.2,699.5,154.2z"/>
		</g>
	</g>
</g>
<rect x="35.7" y="386.5" class="st28" width="154.5" height="588.1"/>
<line class="st77" x1="243.5" y1="352.9" x2="314.2" y2="282.2"/>
<rect x="230" y="341.6" class="st38" width="154.5" height="632.9"/>
<rect x="424.4" y="301.8" class="st37" width="154.5" height="672.8"/>
<rect x="618.7" y="356.6" class="st55" width="154.5" height="618"/>
<rect x="813.1" y="401.4" class="st78" width="154.5" height="573.1"/>
</svg>
